  0
SECTION
  2
HEADER
  9
$ACADVER
  1
AC1027
  9
$ACADMAINTVER
 70
   125
  9
$DWGCODEPAGE
  3
ANSI_936
  9
$LASTSAVEDBY
  1
user
  9
$REQUIREDVERSIONS
160
                 0
  9
$INSBASE
 10
0.0
 20
0.0
 30
0.0
  9
$EXTMIN
 10
-0.0000000433
 20
-0.00000039
 30
0.0
  9
$EXTMAX
 10
420.0000004328999
 20
296.9999998901
 30
0.0
  9
$LIMMIN
 10
0.0
 20
0.0
  9
$LIMMAX
 10
420.0
 20
297.0
  9
$ORTHOMODE
 70
     0
  9
$REGENMODE
 70
     1
  9
$FILLMODE
 70
     1
  9
$QTEXTMODE
 70
     0
  9
$MIRRTEXT
 70
     0
  9
$LTSCALE
 40
23.1
  9
$ATTMODE
 70
     1
  9
$TEXTSIZE
 40
0.2
  9
$TRACEWID
 40
0.05
  9
$TEXTSTYLE
  7
STANDARD
  9
$CLAYER
  8
0
  9
$CELTYPE
  6
BYLAYER
  9
$CECOLOR
 62
   256
  9
$CELTSCALE
 40
1.0
  9
$DISPSILH
 70
     0
  9
$DIMSCALE
 40
1.0
  9
$DIMASZ
 40
2.0
  9
$DIMEXO
 40
1.0
  9
$DIMDLI
 40
15.96
  9
$DIMRND
 40
0.0
  9
$DIMDLE
 40
0.0
  9
$DIMEXE
 40
2.0
  9
$DIMTP
 40
0.01
  9
$DIMTM
 40
0.01
  9
$DIMTXT
 40
3.0
  9
$DIMCEN
 40
3.779999999999999
  9
$DIMTSZ
 40
0.0
  9
$DIMTOL
 70
     1
  9
$DIMLIM
 70
     0
  9
$DIMTIH
 70
     1
  9
$DIMTOH
 70
     1
  9
$DIMSE1
 70
     0
  9
$DIMSE2
 70
     0
  9
$DIMTAD
 70
     0
  9
$DIMZIN
 70
     0
  9
$DIMBLK
  1
_FILLED
  9
$DIMASO
 70
     1
  9
$DIMSHO
 70
     1
  9
$DIMPOST
  1

  9
$DIMAPOST
  1

  9
$DIMALT
 70
     0
  9
$DIMALTD
 70
     2
  9
$DIMALTF
 40
25.4
  9
$DIMLFAC
 40
1.0
  9
$DIMTOFL
 70
     0
  9
$DIMTVP
 40
0.0
  9
$DIMTIX
 70
     0
  9
$DIMSOXD
 70
     0
  9
$DIMSAH
 70
     0
  9
$DIMBLK1
  1

  9
$DIMBLK2
  1

  9
$DIMSTYLE
  2
STANDARD
  9
$DIMCLRD
 70
     0
  9
$DIMCLRE
 70
     0
  9
$DIMCLRT
 70
     0
  9
$DIMTFAC
 40
1.0
  9
$DIMGAP
 40
0.625
  9
$DIMJUST
 70
     0
  9
$DIMSD1
 70
     0
  9
$DIMSD2
 70
     0
  9
$DIMTOLJ
 70
     1
  9
$DIMTZIN
 70
     0
  9
$DIMALTZ
 70
     0
  9
$DIMALTTZ
 70
     0
  9
$DIMUPT
 70
     0
  9
$DIMDEC
 70
     4
  9
$DIMTDEC
 70
     4
  9
$DIMALTU
 70
     2
  9
$DIMALTTD
 70
     2
  9
$DIMTXSTY
  7
STANDARD
  9
$DIMAUNIT
 70
     0
  9
$DIMADEC
 70
     0
  9
$DIMALTRND
 40
0.0
  9
$DIMAZIN
 70
     0
  9
$DIMDSEP
 70
    46
  9
$DIMATFIT
 70
     3
  9
$DIMFRAC
 70
     0
  9
$DIMLDRBLK
  1

  9
$DIMLUNIT
 70
     2
  9
$DIMLWD
 70
    -2
  9
$DIMLWE
 70
    -2
  9
$DIMTMOVE
 70
     0
  9
$DIMFXL
 40
1.0
  9
$DIMFXLON
 70
     0
  9
$DIMJOGANG
 40
0.7853981633974483
  9
$DIMTFILL
 70
     0
  9
$DIMTFILLCLR
 70
     0
  9
$DIMARCSYM
 70
     0
  9
$DIMLTYPE
  6

  9
$DIMLTEX1
  6

  9
$DIMLTEX2
  6

  9
$DIMTXTDIRECTION
 70
     0
  9
$LUNITS
 70
     2
  9
$LUPREC
 70
     4
  9
$SKETCHINC
 40
0.1
  9
$FILLETRAD
 40
0.0
  9
$AUNITS
 70
     0
  9
$AUPREC
 70
     0
  9
$MENU
  1
.
  9
$ELEVATION
 40
0.0
  9
$PELEVATION
 40
0.0
  9
$THICKNESS
 40
0.0
  9
$LIMCHECK
 70
     0
  9
$CHAMFERA
 40
0.0
  9
$CHAMFERB
 40
0.0
  9
$CHAMFERC
 40
0.0
  9
$CHAMFERD
 40
0.0
  9
$SKPOLY
 70
     0
  9
$TDCREATE
 40
2460244.486157407
  9
$TDUCREATE
 40
2460244.152824074
  9
$TDUPDATE
 40
2460244.487094908
  9
$TDUUPDATE
 40
2460244.153761574
  9
$TDINDWG
 40
0.0009375000
  9
$TDUSRTIMER
 40
0.0009375000
  9
$USRTIMER
 70
     1
  9
$ANGBASE
 50
0.0
  9
$ANGDIR
 70
     0
  9
$PDMODE
 70
     3
  9
$PDSIZE
 40
2.0
  9
$PLINEWID
 40
0.0
  9
$SPLFRAME
 70
     0
  9
$SPLINETYPE
 70
     6
  9
$SPLINESEGS
 70
     8
  9
$HANDSEED
  5
841
  9
$SURFTAB1
 70
     6
  9
$SURFTAB2
 70
     6
  9
$SURFTYPE
 70
     6
  9
$SURFU
 70
     6
  9
$SURFV
 70
     6
  9
$UCSBASE
  2

  9
$UCSNAME
  2

  9
$UCSORG
 10
0.0
 20
0.0
 30
0.0
  9
$UCSXDIR
 10
1.0
 20
0.0
 30
0.0
  9
$UCSYDIR
 10
0.0
 20
1.0
 30
0.0
  9
$UCSORTHOREF
  2

  9
$UCSORTHOVIEW
 70
     0
  9
$UCSORGTOP
 10
0.0
 20
0.0
 30
0.0
  9
$UCSORGBOTTOM
 10
0.0
 20
0.0
 30
0.0
  9
$UCSORGLEFT
 10
0.0
 20
0.0
 30
0.0
  9
$UCSORGRIGHT
 10
0.0
 20
0.0
 30
0.0
  9
$UCSORGFRONT
 10
0.0
 20
0.0
 30
0.0
  9
$UCSORGBACK
 10
0.0
 20
0.0
 30
0.0
  9
$PUCSBASE
  2

  9
$PUCSNAME
  2

  9
$PUCSORG
 10
0.0
 20
0.0
 30
0.0
  9
$PUCSXDIR
 10
1.0
 20
0.0
 30
0.0
  9
$PUCSYDIR
 10
0.0
 20
1.0
 30
0.0
  9
$PUCSORTHOREF
  2

  9
$PUCSORTHOVIEW
 70
     0
  9
$PUCSORGTOP
 10
0.0
 20
0.0
 30
0.0
  9
$PUCSORGBOTTOM
 10
0.0
 20
0.0
 30
0.0
  9
$PUCSORGLEFT
 10
0.0
 20
0.0
 30
0.0
  9
$PUCSORGRIGHT
 10
0.0
 20
0.0
 30
0.0
  9
$PUCSORGFRONT
 10
0.0
 20
0.0
 30
0.0
  9
$PUCSORGBACK
 10
0.0
 20
0.0
 30
0.0
  9
$USERI1
 70
     0
  9
$USERI2
 70
     0
  9
$USERI3
 70
     0
  9
$USERI4
 70
     0
  9
$USERI5
 70
     0
  9
$USERR1
 40
0.0
  9
$USERR2
 40
0.0
  9
$USERR3
 40
0.0
  9
$USERR4
 40
0.0
  9
$USERR5
 40
0.0
  9
$WORLDVIEW
 70
     1
  9
$SHADEDGE
 70
     3
  9
$SHADEDIF
 70
    70
  9
$TILEMODE
 70
     1
  9
$MAXACTVP
 70
    64
  9
$PINSBASE
 10
0.0
 20
0.0
 30
0.0
  9
$PLIMCHECK
 70
     0
  9
$PEXTMIN
 10
1.000000000000000E+20
 20
1.000000000000000E+20
 30
1.000000000000000E+20
  9
$PEXTMAX
 10
-1.000000000000000E+20
 20
-1.000000000000000E+20
 30
-1.000000000000000E+20
  9
$PLIMMIN
 10
0.0
 20
0.0
  9
$PLIMMAX
 10
12.0
 20
9.0
  9
$UNITMODE
 70
     0
  9
$VISRETAIN
 70
     1
  9
$PLINEGEN
 70
     0
  9
$PSLTSCALE
 70
     1
  9
$TREEDEPTH
 70
  3020
  9
$CMLSTYLE
  2
Standard
  9
$CMLJUST
 70
     0
  9
$CMLSCALE
 40
1.0
  9
$PROXYGRAPHICS
 70
     1
  9
$MEASUREMENT
 70
     1
  9
$CELWEIGHT
370
    -1
  9
$ENDCAPS
280
     0
  9
$JOINSTYLE
280
     0
  9
$LWDISPLAY
290
     0
  9
$INSUNITS
 70
     4
  9
$HYPERLINKBASE
  1

  9
$STYLESHEET
  1

  9
$XEDIT
290
     1
  9
$CEPSNTYPE
380
     0
  9
$PSTYLEMODE
290
     1
  9
$FINGERPRINTGUID
  2
{8B803A62-1499-1940-8ECB-0EF8527498C0}
  9
$VERSIONGUID
  2
{626E3A89-6F14-9A43-A874-FFA8ACE59D5A}
  9
$EXTNAMES
290
     1
  9
$PSVPSCALE
 40
0.0
  9
$OLESTARTUP
290
     0
  9
$SORTENTS
280
   127
  9
$INDEXCTL
280
     0
  9
$HIDETEXT
280
     1
  9
$XCLIPFRAME
280
     2
  9
$HALOGAP
280
     0
  9
$OBSCOLOR
 70
   257
  9
$OBSLTYPE
280
     0
  9
$INTERSECTIONDISPLAY
280
     0
  9
$INTERSECTIONCOLOR
 70
   257
  9
$DIMASSOC
280
     2
  9
$PROJECTNAME
  1

  9
$CAMERADISPLAY
290
     0
  9
$LENSLENGTH
 40
50.0
  9
$CAMERAHEIGHT
 40
0.0
  9
$STEPSPERSEC
 40
2.0
  9
$STEPSIZE
 40
6.0
  9
$3DDWFPREC
 40
2.0
  9
$PSOLWIDTH
 40
0.25
  9
$PSOLHEIGHT
 40
4.0
  9
$LOFTANG1
 40
1.570796326794896
  9
$LOFTANG2
 40
1.570796326794896
  9
$LOFTMAG1
 40
0.0
  9
$LOFTMAG2
 40
0.0
  9
$LOFTPARAM
 70
     7
  9
$LOFTNORMALS
280
     1
  9
$LATITUDE
 40
37.795
  9
$LONGITUDE
 40
-122.394
  9
$NORTHDIRECTION
 40
0.0
  9
$TIMEZONE
 70
 -8000
  9
$LIGHTGLYPHDISPLAY
280
     1
  9
$TILEMODELIGHTSYNCH
280
     1
  9
$CMATERIAL
347
7D2
  9
$SOLIDHIST
280
     0
  9
$SHOWHIST
280
     1
  9
$DWFFRAME
280
     2
  9
$DGNFRAME
280
     0
  9
$REALWORLDSCALE
290
     1
  9
$INTERFERECOLOR
 62
     1
  9
$INTERFEREOBJVS
345
7F4
  9
$INTERFEREVPVS
346
7F1
  9
$CSHADOW
280
     0
  9
$SHADOWPLANELOCATION
 40
0.0
  0
ENDSEC
  0
SECTION
  2
CLASSES
  0
CLASS
  1
ACDBDICTIONARYWDFLT
  2
AcDbDictionaryWithDefault
  3
ObjectDBX Classes
 90
        0
 91
        1
280
     0
281
     0
  0
CLASS
  1
TABLESTYLE
  2
AcDbTableStyle
  3
ObjectDBX Classes
 90
     4095
 91
        2
280
     0
281
     0
  0
CLASS
  1
ACAD_TABLE
  2
AcDbTable
  3
ObjectDBX Classes
 90
     1025
 91
        3
280
     0
281
     1
  0
CLASS
  1
MATERIAL
  2
AcDbMaterial
  3
ObjectDBX Classes
 90
     1153
 91
        3
280
     0
281
     0
  0
CLASS
  1
VISUALSTYLE
  2
AcDbVisualStyle
  3
ObjectDBX Classes
 90
     4095
 91
       24
280
     0
281
     0
  0
CLASS
  1
SCALE
  2
AcDbScale
  3
ObjectDBX Classes
 90
     1153
 91
       17
280
     0
281
     0
  0
CLASS
  1
MLEADERSTYLE
  2
AcDbMLeaderStyle
  3
ACDB_MLEADERSTYLE_CLASS
 90
     4095
 91
        1
280
     0
281
     0
  0
CLASS
  1
ACDBSECTIONVIEWSTYLE
  2
AcDbSectionViewStyle
  3
ObjectDBX Classes
 90
     1025
 91
        1
280
     0
281
     0
  0
CLASS
  1
ACDBDETAILVIEWSTYLE
  2
AcDbDetailViewStyle
  3
ObjectDBX Classes
 90
     1025
 91
        1
280
     0
281
     0
  0
CLASS
  1
DICTIONARYVAR
  2
AcDbDictionaryVar
  3
ObjectDBX Classes
 90
        0
 91
       10
280
     0
281
     0
  0
CLASS
  1
CELLSTYLEMAP
  2
AcDbCellStyleMap
  3
ObjectDBX Classes
 90
     1152
 91
        2
280
     0
281
     0
  0
ENDSEC
  0
SECTION
  2
TABLES
  0
TABLE
  2
VPORT
  5
8
330
0
100
AcDbSymbolTable
 70
     1
1001
ACAD
1000
DbSaveVer
1071
      278
  0
VPORT
  5
1F4
330
8
100
AcDbSymbolTableRecord
100
AcDbViewportTableRecord
  2
*ACTIVE
 70
     0
 10
0.0
 20
0.0
 11
1.0
 21
1.0
 12
117.2098532002543
 22
202.6439974153445
 13
0.0
 23
0.0
 14
1.0
 24
1.0
 15
0.0
 25
0.0
 16
0.0
 26
0.0
 36
1.0
 17
0.0
 27
0.0
 37
0.0
 40
117.1971284582275
 41
2.364544319600499
 42
50.0
 43
0.0
 44
0.0
 50
0.0
 51
0.0
 71
     0
 72
   100
 73
     1
 74
     1
 75
     0
 76
     0
 77
     0
 78
     0
281
     0
 65
     1
110
0.0
120
0.0
130
0.0
111
1.0
121
0.0
131
0.0
112
0.0
122
1.0
132
0.0
 79
     0
146
0.0
348
7F0
 60
     3
 61
     5
292
     1
282
     1
141
0.0
142
0.0
 63
   250
421
  3355443
1001
ACAD_NAV_VCDISPLAY
1070
     3
  0
ENDTAB
  0
TABLE
  2
LTYPE
  5
5
330
0
100
AcDbSymbolTable
 70
     6
  0
LTYPE
  5
14
330
5
100
AcDbSymbolTableRecord
100
AcDbLinetypeTableRecord
  2
BYBLOCK
 70
     0
  3

 72
    65
 73
     0
 40
0.0
  0
LTYPE
  5
15
330
5
100
AcDbSymbolTableRecord
100
AcDbLinetypeTableRecord
  2
BYLAYER
 70
     0
  3

 72
    65
 73
     0
 40
0.0
  0
LTYPE
  5
16
330
5
100
AcDbSymbolTableRecord
100
AcDbLinetypeTableRecord
  2
CONTINUOUS
 70
     0
  3
Solid line
 72
    65
 73
     0
 40
0.0
  0
LTYPE
  5
1F5
330
5
100
AcDbSymbolTableRecord
100
AcDbLinetypeTableRecord
  2
CENTER
 70
     0
  3
____ _ ____ _ ____ _ ____ _ ____ _ ____ _ ____
 72
    65
 73
     4
 40
0.6
 49
0.375
 74
     0
 49
-0.075
 74
     0
 49
0.075
 74
     0
 49
-0.075
 74
     0
  0
LTYPE
  5
1F6
330
5
100
AcDbSymbolTableRecord
100
AcDbLinetypeTableRecord
  2
HIDDEN
 70
     0
  3
- - - - - - - - - - - - - - - - - - - -
 72
    65
 73
     2
 40
0.2
 49
0.1
 74
     0
 49
-0.1
 74
     0
  0
LTYPE
  5
1F7
330
5
100
AcDbSymbolTableRecord
100
AcDbLinetypeTableRecord
  2
PHANTOM
 70
     0
  3
_____ _ _ _____ _ _ _____ _ _ _____
 72
    65
 73
     6
 40
0.8
 49
0.45
 74
     0
 49
-0.05
 74
     0
 49
0.1
 74
     0
 49
-0.05
 74
     0
 49
0.1
 74
     0
 49
-0.05
 74
     0
  0
LTYPE
  5
1F8
330
5
100
AcDbSymbolTableRecord
100
AcDbLinetypeTableRecord
  2
DOT
 70
     0
  3
. . . . . . . . . . . . . . . . . . . .
 72
    65
 73
     2
 40
0.2
 49
0.1
 74
     0
 49
-0.1
 74
     0
  0
LTYPE
  5
1F9
330
5
100
AcDbSymbolTableRecord
100
AcDbLinetypeTableRecord
  2
DASHED
 70
     0
  3
- - - - - - - - - - - - - - - - - - - -
 72
    65
 73
     2
 40
0.2
 49
0.1
 74
     0
 49
-0.1
 74
     0
  0
ENDTAB
  0
TABLE
  2
LAYER
  5
2
330
0
100
AcDbSymbolTable
 70
    13
  0
LAYER
  5
10
330
2
100
AcDbSymbolTableRecord
100
AcDbLayerTableRecord
  2
0
 70
     0
 62
     7
  6
CONTINUOUS
370
    -3
390
F
347
7E2
348
0
  0
LAYER
  5
1FA
330
2
100
AcDbSymbolTableRecord
100
AcDbLayerTableRecord
  2
DEFAULT_1
 70
     0
 62
     7
  6
CENTER
370
    -3
390
F
347
7E2
348
0
  0
LAYER
  5
1FB
330
2
100
AcDbSymbolTableRecord
100
AcDbLayerTableRecord
  2
DEFAULT_2
 70
     0
 62
     8
  6
HIDDEN
370
    -3
390
F
347
7E2
348
0
  0
LAYER
  5
1FC
330
2
100
AcDbSymbolTableRecord
100
AcDbLayerTableRecord
  2
DEFAULT_3
 70
     0
 62
     7
  6
PHANTOM
370
    -3
390
F
347
7E2
348
0
  0
LAYER
  5
1FD
330
2
100
AcDbSymbolTableRecord
100
AcDbLayerTableRecord
  2
01___PRT_ALL_DTM_PLN
 70
     0
 62
     7
  6
CONTINUOUS
370
    -3
390
F
347
7E2
348
0
  0
LAYER
  5
1FE
330
2
100
AcDbSymbolTableRecord
100
AcDbLayerTableRecord
  2
01___PRT_DEF_DTM_PLN
 70
     0
 62
     7
  6
CONTINUOUS
370
    -3
390
F
347
7E2
348
0
  0
LAYER
  5
1FF
330
2
100
AcDbSymbolTableRecord
100
AcDbLayerTableRecord
  2
02___PRT_ALL_AXES
 70
     0
 62
     7
  6
CONTINUOUS
370
    -3
390
F
347
7E2
348
0
  0
LAYER
  5
200
330
2
100
AcDbSymbolTableRecord
100
AcDbLayerTableRecord
  2
03___PRT_ALL_CURVES
 70
     0
 62
     7
  6
CONTINUOUS
370
    -3
390
F
347
7E2
348
0
  0
LAYER
  5
201
330
2
100
AcDbSymbolTableRecord
100
AcDbLayerTableRecord
  2
04___PRT_ALL_DTM_PNT
 70
     0
 62
     7
  6
CONTINUOUS
370
    -3
390
F
347
7E2
348
0
  0
LAYER
  5
202
330
2
100
AcDbSymbolTableRecord
100
AcDbLayerTableRecord
  2
05___PRT_ALL_DTM_CSYS
 70
     0
 62
     7
  6
CONTINUOUS
370
    -3
390
F
347
7E2
348
0
  0
LAYER
  5
203
330
2
100
AcDbSymbolTableRecord
100
AcDbLayerTableRecord
  2
05___PRT_DEF_DTM_CSYS
 70
     0
 62
     7
  6
CONTINUOUS
370
    -3
390
F
347
7E2
348
0
  0
LAYER
  5
204
330
2
100
AcDbSymbolTableRecord
100
AcDbLayerTableRecord
  2
06___PRT_ALL_SURFS
 70
     0
 62
     7
  6
CONTINUOUS
370
    -3
390
F
347
7E2
348
0
  0
LAYER
  5
824
330
2
100
AcDbSymbolTableRecord
100
AcDbLayerTableRecord
  2
Defpoints
 70
     0
 62
     7
  6
CONTINUOUS
290
     0
370
    -3
390
F
347
7E2
348
0
  0
ENDTAB
  0
TABLE
  2
STYLE
  5
3
330
0
100
AcDbSymbolTable
 70
     6
  0
STYLE
  5
11
330
3
100
AcDbSymbolTableRecord
100
AcDbTextStyleTableRecord
  2
STANDARD
 70
     0
 40
0.0
 41
1.0
 50
0.0
 71
     0
 42
0.2
  3
simfang.ttf
  4

1001
ACAD
1000
FangSong
1071
    34353
  0
STYLE
  5
205
330
3
100
AcDbSymbolTableRecord
100
AcDbTextStyleTableRecord
  2
TEXTSTYLE_1
 70
     0
 40
0.0
 41
0.8
 50
0.0
 71
     0
 42
0.2
  3
gdt
  4

  0
STYLE
  5
206
330
3
100
AcDbSymbolTableRecord
100
AcDbTextStyleTableRecord
  2
TEXTSTYLE_2
 70
     0
 40
0.0
 41
1.0
 50
0.0
 71
     0
 42
0.2
  3
simfang.ttf
  4

1001
ACAD
1000
FangSong
1071
    34353
  0
STYLE
  5
207
330
3
100
AcDbSymbolTableRecord
100
AcDbTextStyleTableRecord
  2
TEXTSTYLE_3
 70
     0
 40
0.0
 41
1.0
 50
0.0
 71
     0
 42
0.2
  3
simfang.ttf
  4

1001
ACAD
1000
FangSong
1071
    34353
  0
STYLE
  5
208
330
3
100
AcDbSymbolTableRecord
100
AcDbTextStyleTableRecord
  2
TEXTSTYLE_4
 70
     0
 40
0.0
 41
1.0
 50
0.0
 71
     0
 42
0.2
  3
arial.ttf
  4

1001
ACAD
1000
Arial
1071
       34
  0
STYLE
  5
209
330
3
100
AcDbSymbolTableRecord
100
AcDbTextStyleTableRecord
  2
TEXTSTYLE_5
 70
     0
 40
0.0
 41
1.0
 50
0.0
 71
     0
 42
0.2
  3
symbol_asme.ttf
  4

  0
ENDTAB
  0
TABLE
  2
VIEW
  5
6
330
0
100
AcDbSymbolTable
 70
     0
  0
ENDTAB
  0
TABLE
  2
UCS
  5
7
330
0
100
AcDbSymbolTable
 70
     0
  0
ENDTAB
  0
TABLE
  2
APPID
  5
9
330
0
100
AcDbSymbolTable
 70
     2
  0
APPID
  5
20A
330
9
100
AcDbSymbolTableRecord
100
AcDbRegAppTableRecord
  2
ACAD
 70
     0
  0
APPID
  5
837
330
9
100
AcDbSymbolTableRecord
100
AcDbRegAppTableRecord
  2
ACAD_NAV_VCDISPLAY
 70
     0
  0
ENDTAB
  0
TABLE
  2
DIMSTYLE
  5
A
330
0
100
AcDbSymbolTable
 70
     3
100
AcDbDimStyleTable
 71
     0
  0
DIMSTYLE
105
224
330
A
100
AcDbSymbolTableRecord
100
AcDbDimStyleTableRecord
  2
STANDARD
 70
     0
 41
2.0
 42
1.0
 44
2.0
 47
0.01
 48
0.01
 71
     1
 73
     0
 74
     0
 77
     1
140
3.0
147
0.625
171
     1
179
     2
271
     2
272
     2
340
11
341
20D
342
20D
343
20D
344
20D
  0
DIMSTYLE
105
225
330
A
100
AcDbSymbolTableRecord
100
AcDbDimStyleTableRecord
  2
DIMSTYLE_1
 70
     0
 41
2.0
 42
1.0
 44
2.0
 73
     0
 74
     0
 77
     1
140
3.0
147
0.75
171
     1
179
     2
271
     2
272
     2
340
11
341
20D
342
20D
343
20D
344
20D
  0
DIMSTYLE
105
226
330
A
100
AcDbSymbolTableRecord
100
AcDbDimStyleTableRecord
  2
DIMSTYLE_2
 70
     0
  3
<>
 41
2.0
 42
1.0
 44
2.0
 73
     0
 74
     0
 77
     1
140
3.0
147
0.625
171
     1
172
     1
179
     2
271
     2
272
     2
288
     1
289
     2
340
11
341
20D
342
20D
343
20D
344
20D
  0
ENDTAB
  0
TABLE
  2
BLOCK_RECORD
  5
1
330
0
100
AcDbSymbolTable
 70
    23
  0
BLOCK_RECORD
  5
20B
330
1
100
AcDbSymbolTableRecord
100
AcDbBlockTableRecord
  2
*Model_Space
340
7CA
 70
     0
280
     1
281
     0
  0
BLOCK_RECORD
  5
20C
330
1
100
AcDbSymbolTableRecord
100
AcDbBlockTableRecord
  2
*Paper_Space
340
7CB
 70
     0
280
     1
281
     0
  0
BLOCK_RECORD
  5
20D
330
1
100
AcDbSymbolTableRecord
100
AcDbBlockTableRecord
  2
_FILLED
340
0
102
{BLKREFS
331
238
331
239
331
241
331
242
331
24B
331
24C
331
255
331
256
331
260
331
261
331
26A
331
26B
331
275
331
276
331
27E
331
27F
331
289
331
28A
331
294
331
295
331
29F
331
2A0
331
2A9
331
2AA
331
2B3
331
2B4
331
2BE
331
2BF
331
2C9
331
2CA
331
2D3
331
2D4
331
2DE
331
2DF
102
}
 70
     0
280
     1
281
     0
  0
BLOCK_RECORD
  5
20E
330
1
100
AcDbSymbolTableRecord
100
AcDbBlockTableRecord
  2
*D1
340
0
 70
     0
280
     1
281
     0
  0
BLOCK_RECORD
  5
20F
330
1
100
AcDbSymbolTableRecord
100
AcDbBlockTableRecord
  2
*D2
340
0
 70
     0
280
     1
281
     0
  0
BLOCK_RECORD
  5
210
330
1
100
AcDbSymbolTableRecord
100
AcDbBlockTableRecord
  2
*D3
340
0
 70
     0
280
     1
281
     0
  0
BLOCK_RECORD
  5
211
330
1
100
AcDbSymbolTableRecord
100
AcDbBlockTableRecord
  2
*D4
340
0
 70
     0
280
     1
281
     0
  0
BLOCK_RECORD
  5
212
330
1
100
AcDbSymbolTableRecord
100
AcDbBlockTableRecord
  2
*D5
340
0
 70
     0
280
     1
281
     0
  0
BLOCK_RECORD
  5
213
330
1
100
AcDbSymbolTableRecord
100
AcDbBlockTableRecord
  2
*D6
340
0
 70
     0
280
     1
281
     0
  0
BLOCK_RECORD
  5
214
330
1
100
AcDbSymbolTableRecord
100
AcDbBlockTableRecord
  2
*D7
340
0
 70
     0
280
     1
281
     0
  0
BLOCK_RECORD
  5
215
330
1
100
AcDbSymbolTableRecord
100
AcDbBlockTableRecord
  2
*D8
340
0
 70
     0
280
     1
281
     0
  0
BLOCK_RECORD
  5
216
330
1
100
AcDbSymbolTableRecord
100
AcDbBlockTableRecord
  2
*D9
340
0
 70
     0
280
     1
281
     0
  0
BLOCK_RECORD
  5
217
330
1
100
AcDbSymbolTableRecord
100
AcDbBlockTableRecord
  2
*D10
340
0
 70
     0
280
     1
281
     0
  0
BLOCK_RECORD
  5
218
330
1
100
AcDbSymbolTableRecord
100
AcDbBlockTableRecord
  2
*D11
340
0
 70
     0
280
     1
281
     0
  0
BLOCK_RECORD
  5
219
330
1
100
AcDbSymbolTableRecord
100
AcDbBlockTableRecord
  2
*D12
340
0
 70
     0
280
     1
281
     0
  0
BLOCK_RECORD
  5
21A
330
1
100
AcDbSymbolTableRecord
100
AcDbBlockTableRecord
  2
*D13
340
0
 70
     0
280
     1
281
     0
  0
BLOCK_RECORD
  5
21B
330
1
100
AcDbSymbolTableRecord
100
AcDbBlockTableRecord
  2
*D14
340
0
 70
     0
280
     1
281
     0
  0
BLOCK_RECORD
  5
21C
330
1
100
AcDbSymbolTableRecord
100
AcDbBlockTableRecord
  2
*D15
340
0
 70
     0
280
     1
281
     0
  0
BLOCK_RECORD
  5
21D
330
1
100
AcDbSymbolTableRecord
100
AcDbBlockTableRecord
  2
*D16
340
0
 70
     0
280
     1
281
     0
  0
BLOCK_RECORD
  5
21E
330
1
100
AcDbSymbolTableRecord
100
AcDbBlockTableRecord
  2
*D17
340
0
 70
     0
280
     1
281
     0
  0
BLOCK_RECORD
  5
21F
330
1
100
AcDbSymbolTableRecord
100
AcDbBlockTableRecord
  2
CONFIDENTIAL_BL1
340
0
 70
     0
280
     1
281
     0
  0
BLOCK_RECORD
  5
220
330
1
100
AcDbSymbolTableRecord
100
AcDbBlockTableRecord
  2
CONFIDENTIAL_BL0
340
0
 70
     0
280
     1
281
     0
  0
ENDTAB
  0
ENDSEC
  0
SECTION
  2
BLOCKS
  0
BLOCK
  5
20
330
20B
100
AcDbEntity
  8
0
100
AcDbBlockBegin
  2
*Model_Space
 70
     0
 10
0.0
 20
0.0
 30
0.0
  3
*Model_Space
  1

  0
ENDBLK
  5
21
330
20B
100
AcDbEntity
  8
0
100
AcDbBlockEnd
  0
BLOCK
  5
1C
330
20C
100
AcDbEntity
 67
     1
  8
0
100
AcDbBlockBegin
  2
*Paper_Space
 70
     0
 10
0.0
 20
0.0
 30
0.0
  3
*Paper_Space
  1

  0
ENDBLK
  5
1D
330
20C
100
AcDbEntity
 67
     1
  8
0
100
AcDbBlockEnd
  0
BLOCK
  5
22D
330
20D
100
AcDbEntity
  8
0
100
AcDbBlockBegin
  2
_FILLED
 70
     0
 10
0.0
 20
0.0
 30
0.0
  3
_FILLED
  1

  0
SOLID
  5
22E
330
20D
100
AcDbEntity
  8
0
  6
ByBlock
 62
     0
100
AcDbTrace
 10
0.0
 20
0.0
 30
0.0
 11
-1.0
 21
0.2
 31
0.0
 12
-1.0
 22
-0.2
 32
0.0
 13
-1.0
 23
-0.2
 33
0.0
  0
ENDBLK
  5
22F
330
20D
100
AcDbEntity
  8
0
  6
ByBlock
 62
     0
100
AcDbBlockEnd
  0
BLOCK
  5
230
330
20E
100
AcDbEntity
  8
0
  6
Continuous
 62
     2
100
AcDbBlockBegin
  2
*D1
 70
     1
 10
0.0
 20
0.0
 30
0.0
  3
*D1
  1

  0
MTEXT
  5
231
330
20E
100
AcDbEntity
  8
0
  6
Continuous
 62
     2
440
 16777216
100
AcDbMText
 10
220.0725930774
 20
245.3635029715
 30
0.0
 40
3.0
 41
8.324723247199999
 46
0.0
 71
     1
 72
     1
  1
1.60
 73
     2
 44
0.9
  0
LINE
  5
232
330
20E
100
AcDbEntity
  8
0
  6
Continuous
 62
     2
440
 16777216
100
AcDbLine
 10
211.0884343841
 20
232.0256946133
 30
0.0
 11
211.0884343841
 21
243.6135029715
 31
0.0
  0
LINE
  5
233
330
20E
100
AcDbEntity
  8
0
  6
Continuous
 62
     2
440
 16777216
100
AcDbLine
 10
212.6884343841
 20
232.0256946133
 30
0.0
 11
212.6884343841
 21
243.6135029715
 31
0.0
  0
LINE
  5
234
330
20E
100
AcDbEntity
  8
0
  6
Continuous
 62
     2
440
 16777216
100
AcDbLine
 10
211.0884343841
 20
241.6135029715
 30
0.0
 11
206.0884343841
 21
241.6135029715
 31
0.0
  0
LINE
  5
235
330
20E
100
AcDbEntity
  8
0
  6
Continuous
 62
     2
440
 16777216
100
AcDbLine
 10
206.0884343841
 20
241.6135029715
 30
0.0
 11
211.8884343841
 21
241.6135029715
 31
0.0
  0
LINE
  5
236
330
20E
100
AcDbEntity
  8
0
  6
Continuous
 62
     2
440
 16777216
100
AcDbLine
 10
212.6884343841
 20
241.6135029715
 30
0.0
 11
228.3973163247
 21
241.6135029715
 31
0.0
  0
LINE
  5
237
330
20E
100
AcDbEntity
  8
0
  6
Continuous
 62
     2
440
 16777216
100
AcDbLine
 10
228.3973163247
 20
241.6135029715
 30
0.0
 11
211.8884343841
 21
241.6135029715
 31
0.0
  0
INSERT
  5
238
330
20E
100
AcDbEntity
  8
0
  6
Continuous
 62
     2
440
 16777216
100
AcDbBlockReference
  2
_FILLED
 10
211.0884343841
 20
241.6135029715
 30
0.0
 41
2.0
 42
2.0
 43
2.0
  0
INSERT
  5
239
330
20E
100
AcDbEntity
  8
0
  6
Continuous
 62
     2
440
 16777216
100
AcDbBlockReference
  2
_FILLED
 10
212.6884343841
 20
241.6135029715
 30
0.0
 41
2.0
 42
2.0
 43
2.0
 50
180.0
  0
ENDBLK
  5
23A
330
20E
100
AcDbEntity
  8
0
  6
ByBlock
 62
     0
100
AcDbBlockEnd
  0
BLOCK
  5
23B
330
20F
100
AcDbEntity
  8
0
  6
Continuous
 62
     2
100
AcDbBlockBegin
  2
*D2
 70
     1
 10
0.0
 20
0.0
 30
0.0
  3
*D2
  1

  0
MTEXT
  5
23C
330
20F
100
AcDbEntity
  8
0
  6
Continuous
 62
     2
440
 16777216
100
AcDbMText
 10
312.1549879084
 20
161.1097661455
 30
0.0
 40
3.0
 41
43.6162361624
 46
0.0
 71
     2
 72
     1
  1
87.08（此尺寸可以改）
 73
     2
 44
0.9
  0
LINE
  5
23D
330
20F
100
AcDbEntity
  8
0
  6
Continuous
 62
     2
440
 16777216
100
AcDbLine
 10
268.6149879084
 20
128.3461510682
 30
0.0
 11
268.6149879084
 21
159.3597661455
 31
0.0
  0
LINE
  5
23E
330
20F
100
AcDbEntity
  8
0
  6
Continuous
 62
     2
440
 16777216
100
AcDbLine
 10
355.6949879084
 20
128.3461510682
 30
0.0
 11
355.6949879084
 21
159.3597661455
 31
0.0
  0
LINE
  5
23F
330
20F
100
AcDbEntity
  8
0
  6
Continuous
 62
     2
440
 16777216
100
AcDbLine
 10
268.6149879084
 20
157.3597661455
 30
0.0
 11
312.1549879084
 21
157.3597661455
 31
0.0
  0
LINE
  5
240
330
20F
100
AcDbEntity
  8
0
  6
Continuous
 62
     2
440
 16777216
100
AcDbLine
 10
355.6949879084
 20
157.3597661455
 30
0.0
 11
312.1549879084
 21
157.3597661455
 31
0.0
  0
INSERT
  5
241
330
20F
100
AcDbEntity
  8
0
  6
Continuous
 62
     2
440
 16777216
100
AcDbBlockReference
  2
_FILLED
 10
268.6149879084
 20
157.3597661455
 30
0.0
 41
2.0
 42
2.0
 43
2.0
 50
180.0
  0
INSERT
  5
242
330
20F
100
AcDbEntity
  8
0
  6
Continuous
 62
     2
440
 16777216
100
AcDbBlockReference
  2
_FILLED
 10
355.6949879084
 20
157.3597661455
 30
0.0
 41
2.0
 42
2.0
 43
2.0
  0
ENDBLK
  5
243
330
20F
100
AcDbEntity
  8
0
  6
ByBlock
 62
     0
100
AcDbBlockEnd
  0
BLOCK
  5
244
330
210
100
AcDbEntity
  8
0
  6
Continuous
 62
     2
100
AcDbBlockBegin
  2
*D3
 70
     1
 10
0.0
 20
0.0
 30
0.0
  3
*D3
  1

  0
MTEXT
  5
245
330
210
100
AcDbEntity
  8
0
  6
Continuous
 62
     2
440
 16777216
100
AcDbMText
 10
230.5445403373
 20
95.51999878040001
 30
0.0
 40
3.0
 41
43.6162361624
 46
0.0
 71
     3
 72
     1
  1
30.00（此尺寸可以改）
 11
0.0
 21
1.0
 31
0.0
 73
     2
 44
0.9
  0
LINE
  5
246
330
210
100
AcDbEntity
  8
0
  6
Continuous
 62
     2
440
 16777216
100
AcDbLine
 10
269.6149879084
 20
129.3461510682
 30
0.0
 11
232.2945403373
 21
129.3461510682
 31
0.0
  0
LINE
  5
247
330
210
100
AcDbEntity
  8
0
  6
Continuous
 62
     2
440
 16777216
100
AcDbLine
 10
269.6149879084
 20
99.3461510682
 30
0.0
 11
232.2945403373
 21
99.3461510682
 31
0.0
  0
LINE
  5
248
330
210
100
AcDbEntity
  8
0
  6
Continuous
 62
     2
440
 16777216
100
AcDbLine
 10
234.2945403373
 20
129.3461510682
 30
0.0
 11
234.2945403373
 21
114.3461510682
 31
0.0
  0
LINE
  5
249
330
210
100
AcDbEntity
  8
0
  6
Continuous
 62
     2
440
 16777216
100
AcDbLine
 10
234.2945403373
 20
99.3461510682
 30
0.0
 11
234.2945403373
 21
114.3461510682
 31
0.0
  0
LINE
  5
24A
330
210
100
AcDbEntity
  8
0
  6
Continuous
 62
     2
440
 16777216
100
AcDbLine
 10
234.2945403373
 20
114.3461510682
 30
0.0
 11
234.2945403373
 21
51.903762618
 31
0.0
  0
INSERT
  5
24B
330
210
100
AcDbEntity
  8
0
  6
Continuous
 62
     2
440
 16777216
100
AcDbBlockReference
  2
_FILLED
 10
234.2945403373
 20
129.3461510682
 30
0.0
 41
2.0
 42
2.0
 43
2.0
 50
90.0
  0
INSERT
  5
24C
330
210
100
AcDbEntity
  8
0
  6
Continuous
 62
     2
440
 16777216
100
AcDbBlockReference
  2
_FILLED
 10
234.2945403373
 20
99.3461510682
 30
0.0
 41
2.0
 42
2.0
 43
2.0
 50
270.0
  0
ENDBLK
  5
24D
330
210
100
AcDbEntity
  8
0
  6
ByBlock
 62
     0
100
AcDbBlockEnd
  0
BLOCK
  5
24E
330
211
100
AcDbEntity
  8
0
  6
Continuous
 62
     2
100
AcDbBlockBegin
  2
*D4
 70
     1
 10
0.0
 20
0.0
 30
0.0
  3
*D4
  1

  0
MTEXT
  5
24F
330
211
100
AcDbEntity
  8
0
  6
Continuous
 62
     2
440
 16777216
100
AcDbMText
 10
252.4614963824
 20
143.9533205381
 30
0.0
 40
3.0
 41
26.4093102469
 46
0.0
 71
     3
 72
     1
  1
?\fFangSong_GB2312;2.60-通孔*4
  7
TEXTSTYLE_5
 73
     2
 44
0.9
  0
LINE
  5
250
330
211
100
AcDbEntity
  8
0
  6
Continuous
 62
     2
440
 16777216
100
AcDbLine
 10
270.6282960517
 20
127.1925783716
 30
0.0
 11
271.6149879084
 21
126.3461510682
 31
0.0
  0
LINE
  5
251
330
211
100
AcDbEntity
  8
0
  6
Continuous
 62
     2
440
 16777216
100
AcDbLine
 10
271.6149879084
 20
126.3461510682
 30
0.0
 11
255.4614963824
 21
140.2033205381
 31
0.0
  0
LINE
  5
252
330
211
100
AcDbEntity
  8
0
  6
Continuous
 62
     2
440
 16777216
100
AcDbLine
 10
255.4614963824
 20
140.2033205381
 30
0.0
 11
223.0521861355
 21
140.2033205381
 31
0.0
  0
LINE
  5
253
330
211
100
AcDbEntity
  8
0
  6
Continuous
 62
     2
440
 16777216
100
AcDbLine
 10
223.0521861355
 20
140.2033205381
 30
0.0
 11
255.4614543824
 21
140.2033205381
 31
0.0
  0
LINE
  5
254
330
211
100
AcDbEntity
  8
0
  6
Continuous
 62
     2
440
 16777216
100
AcDbLine
 10
272.6016797650999
 20
125.4997237648
 30
0.0
 11
271.6149879084
 21
126.3461510682
 31
0.0
  0
INSERT
  5
255
330
211
100
AcDbEntity
  8
0
  6
Continuous
 62
     2
440
 16777216
100
AcDbBlockReference
  2
_FILLED
 10
270.6282960517
 20
127.1925783716
 30
0.0
 41
2.0
 42
2.0
 43
2.0
 50
139.3755679995
  0
INSERT
  5
256
330
211
100
AcDbEntity
  8
0
  6
Continuous
 62
     2
440
 16777216
100
AcDbBlockReference
  2
_FILLED
 10
272.6016797650999
 20
125.4997237648
 30
0.0
 41
2.0
 42
2.0
 43
2.0
 50
319.3755679995
  0
ENDBLK
  5
257
330
211
100
AcDbEntity
  8
0
  6
ByBlock
 62
     0
100
AcDbBlockEnd
  0
BLOCK
  5
258
330
212
100
AcDbEntity
  8
0
  6
Continuous
 62
     2
100
AcDbBlockBegin
  2
*D5
 70
     1
 10
0.0
 20
0.0
 30
0.0
  3
*D5
  1

  0
MTEXT
  5
259
330
212
100
AcDbEntity
  8
0
  6
Continuous
 62
     2
440
 16777216
100
AcDbMText
 10
237.1476385054
 20
123.2954205503
 30
0.0
 40
3.0
 41
8.324723247199999
 46
0.0
 71
     3
 72
     1
  1
3.00
 11
0.0
 21
1.0
 31
0.0
 73
     2
 44
0.9
  0
LINE
  5
25A
330
212
100
AcDbEntity
  8
0
  6
Continuous
 62
     2
440
 16777216
100
AcDbLine
 10
269.6149879084
 20
129.3461510682
 30
0.0
 11
238.8976385054
 21
129.3461510682
 31
0.0
  0
LINE
  5
25B
330
212
100
AcDbEntity
  8
0
  6
Continuous
 62
     2
440
 16777216
100
AcDbLine
 10
270.6149879084
 20
126.3461510682
 30
0.0
 11
238.8976385054
 21
126.3461510682
 31
0.0
  0
LINE
  5
25C
330
212
100
AcDbEntity
  8
0
  6
Continuous
 62
     2
440
 16777216
100
AcDbLine
 10
240.8976385054
 20
129.3461510682
 30
0.0
 11
240.8976385054
 21
134.3461510682
 31
0.0
  0
LINE
  5
25D
330
212
100
AcDbEntity
  8
0
  6
Continuous
 62
     2
440
 16777216
100
AcDbLine
 10
240.8976385054
 20
134.3461510682
 30
0.0
 11
240.8976385054
 21
127.8461510682
 31
0.0
  0
LINE
  5
25E
330
212
100
AcDbEntity
  8
0
  6
Continuous
 62
     2
440
 16777216
100
AcDbLine
 10
240.8976385054
 20
126.3461510682
 30
0.0
 11
240.8976385054
 21
114.9706973031
 31
0.0
  0
LINE
  5
25F
330
212
100
AcDbEntity
  8
0
  6
Continuous
 62
     2
440
 16777216
100
AcDbLine
 10
240.8976385054
 20
114.9706973031
 30
0.0
 11
240.8976385054
 21
127.8461510682
 31
0.0
  0
INSERT
  5
260
330
212
100
AcDbEntity
  8
0
  6
Continuous
 62
     2
440
 16777216
100
AcDbBlockReference
  2
_FILLED
 10
240.8976385054
 20
129.3461510682
 30
0.0
 41
2.0
 42
2.0
 43
2.0
 50
270.0
  0
INSERT
  5
261
330
212
100
AcDbEntity
  8
0
  6
Continuous
 62
     2
440
 16777216
100
AcDbBlockReference
  2
_FILLED
 10
240.8976385054
 20
126.3461510682
 30
0.0
 41
2.0
 42
2.0
 43
2.0
 50
90.0
  0
ENDBLK
  5
262
330
212
100
AcDbEntity
  8
0
  6
ByBlock
 62
     0
100
AcDbBlockEnd
  0
BLOCK
  5
263
330
213
100
AcDbEntity
  8
0
  6
Continuous
 62
     2
100
AcDbBlockBegin
  2
*D6
 70
     1
 10
0.0
 20
0.0
 30
0.0
  3
*D6
  1

  0
MTEXT
  5
264
330
213
100
AcDbEntity
  8
0
  6
Continuous
 62
     2
440
 16777216
100
AcDbMText
 10
242.3135013441
 20
85.8168636059
 30
0.0
 40
3.0
 41
10.405904059
 46
0.0
 71
     3
 72
     1
  1
24.00
 11
0.0
 21
1.0
 31
0.0
 73
     2
 44
0.9
  0
LINE
  5
265
330
213
100
AcDbEntity
  8
0
  6
Continuous
 62
     2
440
 16777216
100
AcDbLine
 10
270.6149879084
 20
126.3461510682
 30
0.0
 11
244.0635013441
 21
126.3461510682
 31
0.0
  0
LINE
  5
266
330
213
100
AcDbEntity
  8
0
  6
Continuous
 62
     2
440
 16777216
100
AcDbLine
 10
270.6149879084
 20
102.3461510682
 30
0.0
 11
244.0635013441
 21
102.3461510682
 31
0.0
  0
LINE
  5
267
330
213
100
AcDbEntity
  8
0
  6
Continuous
 62
     2
440
 16777216
100
AcDbLine
 10
246.0635013441
 20
126.3461510682
 30
0.0
 11
246.0635013441
 21
114.3461510682
 31
0.0
  0
LINE
  5
268
330
213
100
AcDbEntity
  8
0
  6
Continuous
 62
     2
440
 16777216
100
AcDbLine
 10
246.0635013441
 20
102.3461510682
 30
0.0
 11
246.0635013441
 21
114.3461510682
 31
0.0
  0
LINE
  5
269
330
213
100
AcDbEntity
  8
0
  6
Continuous
 62
     2
440
 16777216
100
AcDbLine
 10
246.0635013441
 20
114.3461510682
 30
0.0
 11
246.0635013441
 21
75.4109595468
 31
0.0
  0
INSERT
  5
26A
330
213
100
AcDbEntity
  8
0
  6
Continuous
 62
     2
440
 16777216
100
AcDbBlockReference
  2
_FILLED
 10
246.0635013441
 20
126.3461510682
 30
0.0
 41
2.0
 42
2.0
 43
2.0
 50
90.0
  0
INSERT
  5
26B
330
213
100
AcDbEntity
  8
0
  6
Continuous
 62
     2
440
 16777216
100
AcDbBlockReference
  2
_FILLED
 10
246.0635013441
 20
102.3461510682
 30
0.0
 41
2.0
 42
2.0
 43
2.0
 50
270.0
  0
ENDBLK
  5
26C
330
213
100
AcDbEntity
  8
0
  6
ByBlock
 62
     0
100
AcDbBlockEnd
  0
BLOCK
  5
26D
330
214
100
AcDbEntity
  8
0
  6
Continuous
 62
     2
100
AcDbBlockBegin
  2
*D7
 70
     1
 10
0.0
 20
0.0
 30
0.0
  3
*D7
  1

  0
MTEXT
  5
26E
330
214
100
AcDbEntity
  8
0
  6
Continuous
 62
     2
440
 16777216
100
AcDbMText
 10
279.568454081
 20
151.3054881034
 30
0.0
 40
3.0
 41
8.324723247199999
 46
0.0
 71
     1
 72
     1
  1
3.00
 73
     2
 44
0.9
  0
LINE
  5
26F
330
214
100
AcDbEntity
  8
0
  6
Continuous
 62
     2
440
 16777216
100
AcDbLine
 10
268.6149879084
 20
128.3461510682
 30
0.0
 11
268.6149879084
 21
149.5554881034
 31
0.0
  0
LINE
  5
270
330
214
100
AcDbEntity
  8
0
  6
Continuous
 62
     2
440
 16777216
100
AcDbLine
 10
271.6149879084
 20
127.3461510682
 30
0.0
 11
271.6149879084
 21
149.5554881034
 31
0.0
  0
LINE
  5
271
330
214
100
AcDbEntity
  8
0
  6
Continuous
 62
     2
440
 16777216
100
AcDbLine
 10
268.6149879084
 20
147.5554881034
 30
0.0
 11
263.6149879084
 21
147.5554881034
 31
0.0
  0
LINE
  5
272
330
214
100
AcDbEntity
  8
0
  6
Continuous
 62
     2
440
 16777216
100
AcDbLine
 10
263.6149879084
 20
147.5554881034
 30
0.0
 11
270.1149879084
 21
147.5554881034
 31
0.0
  0
LINE
  5
273
330
214
100
AcDbEntity
  8
0
  6
Continuous
 62
     2
440
 16777216
100
AcDbLine
 10
271.6149879084
 20
147.5554881034
 30
0.0
 11
287.8931773283
 21
147.5554881034
 31
0.0
  0
LINE
  5
274
330
214
100
AcDbEntity
  8
0
  6
Continuous
 62
     2
440
 16777216
100
AcDbLine
 10
287.8931773283
 20
147.5554881034
 30
0.0
 11
270.1149879084
 21
147.5554881034
 31
0.0
  0
INSERT
  5
275
330
214
100
AcDbEntity
  8
0
  6
Continuous
 62
     2
440
 16777216
100
AcDbBlockReference
  2
_FILLED
 10
268.6149879084
 20
147.5554881034
 30
0.0
 41
2.0
 42
2.0
 43
2.0
  0
INSERT
  5
276
330
214
100
AcDbEntity
  8
0
  6
Continuous
 62
     2
440
 16777216
100
AcDbBlockReference
  2
_FILLED
 10
271.6149879084
 20
147.5554881034
 30
0.0
 41
2.0
 42
2.0
 43
2.0
 50
180.0
  0
ENDBLK
  5
277
330
214
100
AcDbEntity
  8
0
  6
ByBlock
 62
     0
100
AcDbBlockEnd
  0
BLOCK
  5
278
330
215
100
AcDbEntity
  8
0
  6
Continuous
 62
     2
100
AcDbBlockBegin
  2
*D8
 70
     1
 10
0.0
 20
0.0
 30
0.0
  3
*D8
  1

  0
MTEXT
  5
279
330
215
100
AcDbEntity
  8
0
  6
Continuous
 62
     2
440
 16777216
100
AcDbMText
 10
284.5033623075
 20
156.300682378
 30
0.0
 40
3.0
 41
10.405904059
 46
0.0
 71
     2
 72
     1
  1
81.08
 73
     2
 44
0.9
  0
LINE
  5
27A
330
215
100
AcDbEntity
  8
0
  6
Continuous
 62
     2
440
 16777216
100
AcDbLine
 10
271.6149879084
 20
127.3461510682
 30
0.0
 11
271.6149879084
 21
154.550682378
 31
0.0
  0
LINE
  5
27B
330
215
100
AcDbEntity
  8
0
  6
Continuous
 62
     2
440
 16777216
100
AcDbLine
 10
352.6949879084
 20
127.3461510682
 30
0.0
 11
352.6949879084
 21
154.550682378
 31
0.0
  0
LINE
  5
27C
330
215
100
AcDbEntity
  8
0
  6
Continuous
 62
     2
440
 16777216
100
AcDbLine
 10
271.6149879084
 20
152.550682378
 30
0.0
 11
312.1549879084
 21
152.550682378
 31
0.0
  0
LINE
  5
27D
330
215
100
AcDbEntity
  8
0
  6
Continuous
 62
     2
440
 16777216
100
AcDbLine
 10
352.6949879084
 20
152.550682378
 30
0.0
 11
312.1549879084
 21
152.550682378
 31
0.0
  0
INSERT
  5
27E
330
215
100
AcDbEntity
  8
0
  6
Continuous
 62
     2
440
 16777216
100
AcDbBlockReference
  2
_FILLED
 10
271.6149879084
 20
152.550682378
 30
0.0
 41
2.0
 42
2.0
 43
2.0
 50
180.0
  0
INSERT
  5
27F
330
215
100
AcDbEntity
  8
0
  6
Continuous
 62
     2
440
 16777216
100
AcDbBlockReference
  2
_FILLED
 10
352.6949879084
 20
152.550682378
 30
0.0
 41
2.0
 42
2.0
 43
2.0
  0
ENDBLK
  5
280
330
215
100
AcDbEntity
  8
0
  6
ByBlock
 62
     0
100
AcDbBlockEnd
  0
BLOCK
  5
281
330
216
100
AcDbEntity
  8
0
  6
Continuous
 62
     2
100
AcDbBlockBegin
  2
*D9
 70
     1
 10
0.0
 20
0.0
 30
0.0
  3
*D9
  1

  0
MTEXT
  5
282
330
216
100
AcDbEntity
  8
0
  6
Continuous
 62
     2
440
 16777216
100
AcDbMText
 10
279.5803241758
 20
145.8264793895
 30
0.0
 40
3.0
 41
8.324723247199999
 46
0.0
 71
     1
 72
     1
  1
5.70
 73
     2
 44
0.9
  0
LINE
  5
283
330
216
100
AcDbEntity
  8
0
  6
Continuous
 62
     2
440
 16777216
100
AcDbLine
 10
277.3149879084
 20
130.3461510682
 30
0.0
 11
277.3149879084
 21
144.0764793895
 31
0.0
  0
LINE
  5
284
330
216
100
AcDbEntity
  8
0
  6
Continuous
 62
     2
440
 16777216
100
AcDbLine
 10
271.6149879084
 20
127.3461510682
 30
0.0
 11
271.6149879084
 21
144.0764793895
 31
0.0
  0
LINE
  5
285
330
216
100
AcDbEntity
  8
0
  6
Continuous
 62
     2
440
 16777216
100
AcDbLine
 10
277.3149879084
 20
142.0764793895
 30
0.0
 11
287.9050474231
 21
142.0764793895
 31
0.0
  0
LINE
  5
286
330
216
100
AcDbEntity
  8
0
  6
Continuous
 62
     2
440
 16777216
100
AcDbLine
 10
287.9050474231
 20
142.0764793895
 30
0.0
 11
274.4649879084
 21
142.0764793895
 31
0.0
  0
LINE
  5
287
330
216
100
AcDbEntity
  8
0
  6
Continuous
 62
     2
440
 16777216
100
AcDbLine
 10
271.6149879084
 20
142.0764793895
 30
0.0
 11
266.6149879084
 21
142.0764793895
 31
0.0
  0
LINE
  5
288
330
216
100
AcDbEntity
  8
0
  6
Continuous
 62
     2
440
 16777216
100
AcDbLine
 10
266.6149879084
 20
142.0764793895
 30
0.0
 11
274.4649879084
 21
142.0764793895
 31
0.0
  0
INSERT
  5
289
330
216
100
AcDbEntity
  8
0
  6
Continuous
 62
     2
440
 16777216
100
AcDbBlockReference
  2
_FILLED
 10
277.3149879084
 20
142.0764793895
 30
0.0
 41
2.0
 42
2.0
 43
2.0
 50
180.0
  0
INSERT
  5
28A
330
216
100
AcDbEntity
  8
0
  6
Continuous
 62
     2
440
 16777216
100
AcDbBlockReference
  2
_FILLED
 10
271.6149879084
 20
142.0764793895
 30
0.0
 41
2.0
 42
2.0
 43
2.0
  0
ENDBLK
  5
28B
330
216
100
AcDbEntity
  8
0
  6
ByBlock
 62
     0
100
AcDbBlockEnd
  0
BLOCK
  5
28C
330
217
100
AcDbEntity
  8
0
  6
Continuous
 62
     2
100
AcDbBlockBegin
  2
*D10
 70
     1
 10
0.0
 20
0.0
 30
0.0
  3
*D10
  1

  0
MTEXT
  5
28D
330
217
100
AcDbEntity
  8
0
  6
Continuous
 62
     2
440
 16777216
100
AcDbMText
 10
282.4841949662
 20
141.438128218
 30
0.0
 40
3.0
 41
24.9298892989
 46
0.0
 71
     1
 72
     1
  1
1.50（线粗）
 73
     2
 44
0.9
  0
LINE
  5
28E
330
217
100
AcDbEntity
  8
0
  6
Continuous
 62
     2
440
 16777216
100
AcDbLine
 10
277.3149879084
 20
130.3461510682
 30
0.0
 11
277.3149879084
 21
139.688128218
 31
0.0
  0
LINE
  5
28F
330
217
100
AcDbEntity
  8
0
  6
Continuous
 62
     2
440
 16777216
100
AcDbLine
 10
278.8149879084
 20
130.3461510682
 30
0.0
 11
278.8149879084
 21
139.688128218
 31
0.0
  0
LINE
  5
290
330
217
100
AcDbEntity
  8
0
  6
Continuous
 62
     2
440
 16777216
100
AcDbLine
 10
277.3149879084
 20
137.688128218
 30
0.0
 11
272.3149879084
 21
137.688128218
 31
0.0
  0
LINE
  5
291
330
217
100
AcDbEntity
  8
0
  6
Continuous
 62
     2
440
 16777216
100
AcDbLine
 10
272.3149879084
 20
137.688128218
 30
0.0
 11
278.0649879084
 21
137.688128218
 31
0.0
  0
LINE
  5
292
330
217
100
AcDbEntity
  8
0
  6
Continuous
 62
     2
440
 16777216
100
AcDbLine
 10
278.8149879084
 20
137.688128218
 30
0.0
 11
307.4140842651
 21
137.688128218
 31
0.0
  0
LINE
  5
293
330
217
100
AcDbEntity
  8
0
  6
Continuous
 62
     2
440
 16777216
100
AcDbLine
 10
307.4140842651
 20
137.688128218
 30
0.0
 11
278.0649879084
 21
137.688128218
 31
0.0
  0
INSERT
  5
294
330
217
100
AcDbEntity
  8
0
  6
Continuous
 62
     2
440
 16777216
100
AcDbBlockReference
  2
_FILLED
 10
277.3149879084
 20
137.688128218
 30
0.0
 41
2.0
 42
2.0
 43
2.0
  0
INSERT
  5
295
330
217
100
AcDbEntity
  8
0
  6
Continuous
 62
     2
440
 16777216
100
AcDbBlockReference
  2
_FILLED
 10
278.8149879084
 20
137.688128218
 30
0.0
 41
2.0
 42
2.0
 43
2.0
 50
180.0
  0
ENDBLK
  5
296
330
217
100
AcDbEntity
  8
0
  6
ByBlock
 62
     0
100
AcDbBlockEnd
  0
BLOCK
  5
297
330
218
100
AcDbEntity
  8
0
  6
Continuous
 62
     2
100
AcDbBlockBegin
  2
*D11
 70
     1
 10
0.0
 20
0.0
 30
0.0
  3
*D11
  1

  0
MTEXT
  5
298
330
218
100
AcDbEntity
  8
0
  6
Continuous
 62
     2
440
 16777216
100
AcDbMText
 10
281.5231248538
 20
136.4890634342
 30
0.0
 40
3.0
 41
24.9520295203
 46
0.0
 71
     1
 72
     1
  1
2.54-间距*12
 73
     2
 44
0.9
  0
LINE
  5
299
330
218
100
AcDbEntity
  8
0
  6
Continuous
 62
     2
440
 16777216
100
AcDbLine
 10
277.3149879084
 20
130.3461510682
 30
0.0
 11
277.3149879084
 21
134.7390634342
 31
0.0
  0
LINE
  5
29A
330
218
100
AcDbEntity
  8
0
  6
Continuous
 62
     2
440
 16777216
100
AcDbLine
 10
279.8549879084
 20
130.3461510682
 30
0.0
 11
279.8549879084
 21
134.7390634342
 31
0.0
  0
LINE
  5
29B
330
218
100
AcDbEntity
  8
0
  6
Continuous
 62
     2
440
 16777216
100
AcDbLine
 10
277.3149879084
 20
132.7390634342
 30
0.0
 11
272.3149879084
 21
132.7390634342
 31
0.0
  0
LINE
  5
29C
330
218
100
AcDbEntity
  8
0
  6
Continuous
 62
     2
440
 16777216
100
AcDbLine
 10
272.3149879084
 20
132.7390634342
 30
0.0
 11
278.5849879084
 21
132.7390634342
 31
0.0
  0
LINE
  5
29D
330
218
100
AcDbEntity
  8
0
  6
Continuous
 62
     2
440
 16777216
100
AcDbLine
 10
279.8549879084
 20
132.7390634342
 30
0.0
 11
306.4751543741
 21
132.7390634342
 31
0.0
  0
LINE
  5
29E
330
218
100
AcDbEntity
  8
0
  6
Continuous
 62
     2
440
 16777216
100
AcDbLine
 10
306.4751543741
 20
132.7390634342
 30
0.0
 11
278.5849879084
 21
132.7390634342
 31
0.0
  0
INSERT
  5
29F
330
218
100
AcDbEntity
  8
0
  6
Continuous
 62
     2
440
 16777216
100
AcDbBlockReference
  2
_FILLED
 10
277.3149879084
 20
132.7390634342
 30
0.0
 41
2.0
 42
2.0
 43
2.0
  0
INSERT
  5
2A0
330
218
100
AcDbEntity
  8
0
  6
Continuous
 62
     2
440
 16777216
100
AcDbBlockReference
  2
_FILLED
 10
279.8549879084
 20
132.7390634342
 30
0.0
 41
2.0
 42
2.0
 43
2.0
 50
180.0
  0
ENDBLK
  5
2A1
330
218
100
AcDbEntity
  8
0
  6
ByBlock
 62
     0
100
AcDbBlockEnd
  0
BLOCK
  5
2A2
330
219
100
AcDbEntity
  8
0
  6
Continuous
 62
     2
100
AcDbBlockBegin
  2
*D12
 70
     1
 10
0.0
 20
0.0
 30
0.0
  3
*D12
  1

  0
MTEXT
  5
2A3
330
219
100
AcDbEntity
  8
0
  6
Continuous
 62
     2
440
 16777216
100
AcDbMText
 10
320.8076746636
 20
119.201354745
 30
0.0
 40
3.0
 41
10.405904059
 46
0.0
 71
     1
 72
     1
  1
10.80
 73
     2
 44
0.9
  0
LINE
  5
2A4
330
219
100
AcDbEntity
  8
0
  6
Continuous
 62
     2
440
 16777216
100
AcDbLine
 10
306.7549879084
 20
125.7461510682
 30
0.0
 11
306.7549879084
 21
113.451354745
 31
0.0
  0
LINE
  5
2A5
330
219
100
AcDbEntity
  8
0
  6
Continuous
 62
     2
440
 16777216
100
AcDbLine
 10
317.5549879084
 20
125.7461510682
 30
0.0
 11
317.5549879084
 21
113.451354745
 31
0.0
  0
LINE
  5
2A6
330
219
100
AcDbEntity
  8
0
  6
Continuous
 62
     2
440
 16777216
100
AcDbLine
 10
306.7549879084
 20
115.451354745
 30
0.0
 11
312.1549879084
 21
115.451354745
 31
0.0
  0
LINE
  5
2A7
330
219
100
AcDbEntity
  8
0
  6
Continuous
 62
     2
440
 16777216
100
AcDbLine
 10
317.5549879084
 20
115.451354745
 30
0.0
 11
312.1549879084
 21
115.451354745
 31
0.0
  0
LINE
  5
2A8
330
219
100
AcDbEntity
  8
0
  6
Continuous
 62
     2
440
 16777216
100
AcDbLine
 10
312.1549879084
 20
115.451354745
 30
0.0
 11
331.2135787226
 21
115.451354745
 31
0.0
  0
INSERT
  5
2A9
330
219
100
AcDbEntity
  8
0
  6
Continuous
 62
     2
440
 16777216
100
AcDbBlockReference
  2
_FILLED
 10
306.7549879084
 20
115.451354745
 30
0.0
 41
2.0
 42
2.0
 43
2.0
 50
180.0
  0
INSERT
  5
2AA
330
219
100
AcDbEntity
  8
0
  6
Continuous
 62
     2
440
 16777216
100
AcDbBlockReference
  2
_FILLED
 10
317.5549879084
 20
115.451354745
 30
0.0
 41
2.0
 42
2.0
 43
2.0
  0
ENDBLK
  5
2AB
330
219
100
AcDbEntity
  8
0
  6
ByBlock
 62
     0
100
AcDbBlockEnd
  0
BLOCK
  5
2AC
330
21A
100
AcDbEntity
  8
0
  6
Continuous
 62
     2
100
AcDbBlockBegin
  2
*D13
 70
     1
 10
0.0
 20
0.0
 30
0.0
  3
*D13
  1

  0
MTEXT
  5
2AD
330
21A
100
AcDbEntity
  8
0
  6
Continuous
 62
     2
440
 16777216
100
AcDbMText
 10
247.4265701508
 20
84.31348161729999
 30
0.0
 40
3.0
 41
8.324723247199999
 46
0.0
 71
     3
 72
     1
  1
7.44
 11
0.0
 21
1.0
 31
0.0
 73
     2
 44
0.9
  0
LINE
  5
2AE
330
21A
100
AcDbEntity
  8
0
  6
Continuous
 62
     2
440
 16777216
100
AcDbLine
 10
267.6149879084
 20
118.9061510682
 30
0.0
 11
249.1765701508
 21
118.9061510682
 31
0.0
  0
LINE
  5
2AF
330
21A
100
AcDbEntity
  8
0
  6
Continuous
 62
     2
440
 16777216
100
AcDbLine
 10
270.6149879084
 20
126.3461510682
 30
0.0
 11
249.1765701508
 21
126.3461510682
 31
0.0
  0
LINE
  5
2B0
330
21A
100
AcDbEntity
  8
0
  6
Continuous
 62
     2
440
 16777216
100
AcDbLine
 10
251.1765701508
 20
118.9061510682
 30
0.0
 11
251.1765701508
 21
122.6261510682
 31
0.0
  0
LINE
  5
2B1
330
21A
100
AcDbEntity
  8
0
  6
Continuous
 62
     2
440
 16777216
100
AcDbLine
 10
251.1765701508
 20
122.6261510682
 30
0.0
 11
251.1765701508
 21
75.9887583701
 31
0.0
  0
LINE
  5
2B2
330
21A
100
AcDbEntity
  8
0
  6
Continuous
 62
     2
440
 16777216
100
AcDbLine
 10
251.1765701508
 20
126.3461510682
 30
0.0
 11
251.1765701508
 21
122.6261510682
 31
0.0
  0
INSERT
  5
2B3
330
21A
100
AcDbEntity
  8
0
  6
Continuous
 62
     2
440
 16777216
100
AcDbBlockReference
  2
_FILLED
 10
251.1765701508
 20
118.9061510682
 30
0.0
 41
2.0
 42
2.0
 43
2.0
 50
270.0
  0
INSERT
  5
2B4
330
21A
100
AcDbEntity
  8
0
  6
Continuous
 62
     2
440
 16777216
100
AcDbBlockReference
  2
_FILLED
 10
251.1765701508
 20
126.3461510682
 30
0.0
 41
2.0
 42
2.0
 43
2.0
 50
90.0
  0
ENDBLK
  5
2B5
330
21A
100
AcDbEntity
  8
0
  6
ByBlock
 62
     0
100
AcDbBlockEnd
  0
BLOCK
  5
2B6
330
21B
100
AcDbEntity
  8
0
  6
Continuous
 62
     2
100
AcDbBlockBegin
  2
*D14
 70
     1
 10
0.0
 20
0.0
 30
0.0
  3
*D14
  1

  0
MTEXT
  5
2B7
330
21B
100
AcDbEntity
  8
0
  6
Continuous
 62
     2
440
 16777216
100
AcDbMText
 10
253.1506882516
 20
83.83287384509999
 30
0.0
 40
3.0
 41
8.324723247199999
 46
0.0
 71
     3
 72
     1
  1
1.50
 11
0.0
 21
1.0
 31
0.0
 73
     2
 44
0.9
  0
LINE
  5
2B8
330
21B
100
AcDbEntity
  8
0
  6
Continuous
 62
     2
440
 16777216
100
AcDbLine
 10
267.6149879084
 20
118.9061510682
 30
0.0
 11
254.9006882516
 21
118.9061510682
 31
0.0
  0
LINE
  5
2B9
330
21B
100
AcDbEntity
  8
0
  6
Continuous
 62
     2
440
 16777216
100
AcDbLine
 10
267.6149879084
 20
117.4061510682
 30
0.0
 11
254.9006882516
 21
117.4061510682
 31
0.0
  0
LINE
  5
2BA
330
21B
100
AcDbEntity
  8
0
  6
Continuous
 62
     2
440
 16777216
100
AcDbLine
 10
256.9006882516
 20
118.9061510682
 30
0.0
 11
256.9006882516
 21
123.9061510682
 31
0.0
  0
LINE
  5
2BB
330
21B
100
AcDbEntity
  8
0
  6
Continuous
 62
     2
440
 16777216
100
AcDbLine
 10
256.9006882516
 20
123.9061510682
 30
0.0
 11
256.9006882516
 21
118.1561510682
 31
0.0
  0
LINE
  5
2BC
330
21B
100
AcDbEntity
  8
0
  6
Continuous
 62
     2
440
 16777216
100
AcDbLine
 10
256.9006882516
 20
117.4061510682
 30
0.0
 11
256.9006882516
 21
75.50815059779999
 31
0.0
  0
LINE
  5
2BD
330
21B
100
AcDbEntity
  8
0
  6
Continuous
 62
     2
440
 16777216
100
AcDbLine
 10
256.9006882516
 20
75.50815059779999
 30
0.0
 11
256.9006882516
 21
118.1561510682
 31
0.0
  0
INSERT
  5
2BE
330
21B
100
AcDbEntity
  8
0
  6
Continuous
 62
     2
440
 16777216
100
AcDbBlockReference
  2
_FILLED
 10
256.9006882516
 20
118.9061510682
 30
0.0
 41
2.0
 42
2.0
 43
2.0
 50
270.0
  0
INSERT
  5
2BF
330
21B
100
AcDbEntity
  8
0
  6
Continuous
 62
     2
440
 16777216
100
AcDbBlockReference
  2
_FILLED
 10
256.9006882516
 20
117.4061510682
 30
0.0
 41
2.0
 42
2.0
 43
2.0
 50
90.0
  0
ENDBLK
  5
2C0
330
21B
100
AcDbEntity
  8
0
  6
ByBlock
 62
     0
100
AcDbBlockEnd
  0
BLOCK
  5
2C1
330
21C
100
AcDbEntity
  8
0
  6
Continuous
 62
     2
100
AcDbBlockBegin
  2
*D15
 70
     1
 10
0.0
 20
0.0
 30
0.0
  3
*D15
  1

  0
MTEXT
  5
2C2
330
21C
100
AcDbEntity
  8
0
  6
Continuous
 62
     2
440
 16777216
100
AcDbMText
 10
259.4531263431
 20
84.47027564229999
 30
0.0
 40
3.0
 41
8.324723247199999
 46
0.0
 71
     3
 72
     1
  1
2.54
 11
0.0
 21
1.0
 31
0.0
 73
     2
 44
0.9
  0
LINE
  5
2C3
330
21C
100
AcDbEntity
  8
0
  6
Continuous
 62
     2
440
 16777216
100
AcDbLine
 10
267.6149879084
 20
118.9061510682
 30
0.0
 11
261.2031263431
 21
118.9061510682
 31
0.0
  0
LINE
  5
2C4
330
21C
100
AcDbEntity
  8
0
  6
Continuous
 62
     2
440
 16777216
100
AcDbLine
 10
267.6149879084
 20
116.3661510682
 30
0.0
 11
261.2031263431
 21
116.3661510682
 31
0.0
  0
LINE
  5
2C5
330
21C
100
AcDbEntity
  8
0
  6
Continuous
 62
     2
440
 16777216
100
AcDbLine
 10
263.2031263431
 20
118.9061510682
 30
0.0
 11
263.2031263431
 21
123.9061510682
 31
0.0
  0
LINE
  5
2C6
330
21C
100
AcDbEntity
  8
0
  6
Continuous
 62
     2
440
 16777216
100
AcDbLine
 10
263.2031263431
 20
123.9061510682
 30
0.0
 11
263.2031263431
 21
117.6361510682
 31
0.0
  0
LINE
  5
2C7
330
21C
100
AcDbEntity
  8
0
  6
Continuous
 62
     2
440
 16777216
100
AcDbLine
 10
263.2031263431
 20
116.3661510682
 30
0.0
 11
263.2031263431
 21
76.1455523951
 31
0.0
  0
LINE
  5
2C8
330
21C
100
AcDbEntity
  8
0
  6
Continuous
 62
     2
440
 16777216
100
AcDbLine
 10
263.2031263431
 20
76.1455523951
 30
0.0
 11
263.2031263431
 21
117.6361510682
 31
0.0
  0
INSERT
  5
2C9
330
21C
100
AcDbEntity
  8
0
  6
Continuous
 62
     2
440
 16777216
100
AcDbBlockReference
  2
_FILLED
 10
263.2031263431
 20
118.9061510682
 30
0.0
 41
2.0
 42
2.0
 43
2.0
 50
270.0
  0
INSERT
  5
2CA
330
21C
100
AcDbEntity
  8
0
  6
Continuous
 62
     2
440
 16777216
100
AcDbBlockReference
  2
_FILLED
 10
263.2031263431
 20
116.3661510682
 30
0.0
 41
2.0
 42
2.0
 43
2.0
 50
90.0
  0
ENDBLK
  5
2CB
330
21C
100
AcDbEntity
  8
0
  6
ByBlock
 62
     0
100
AcDbBlockEnd
  0
BLOCK
  5
2CC
330
21D
100
AcDbEntity
  8
0
  6
Continuous
 62
     2
100
AcDbBlockBegin
  2
*D16
 70
     1
 10
0.0
 20
0.0
 30
0.0
  3
*D16
  1

  0
MTEXT
  5
2CD
330
21D
100
AcDbEntity
  8
0
  6
Continuous
 62
     2
440
 16777216
100
AcDbMText
 10
369.8075101764
 20
133.5953275413
 30
0.0
 40
3.0
 41
10.405904059
 46
0.0
 71
     1
 72
     1
  1
10.50
 11
0.0
 21
1.0
 31
0.0
 73
     2
 44
0.9
  0
LINE
  5
2CE
330
21D
100
AcDbEntity
  8
0
  6
Continuous
 62
     2
440
 16777216
100
AcDbLine
 10
356.6949879084
 20
115.8461510682
 30
0.0
 11
375.5575101764
 21
115.8461510682
 31
0.0
  0
LINE
  5
2CF
330
21D
100
AcDbEntity
  8
0
  6
Continuous
 62
     2
440
 16777216
100
AcDbLine
 10
353.6949879084
 20
126.3461510682
 30
0.0
 11
375.5575101764
 21
126.3461510682
 31
0.0
  0
LINE
  5
2D0
330
21D
100
AcDbEntity
  8
0
  6
Continuous
 62
     2
440
 16777216
100
AcDbLine
 10
373.5575101764
 20
115.8461510682
 30
0.0
 11
373.5575101764
 21
121.0961510682
 31
0.0
  0
LINE
  5
2D1
330
21D
100
AcDbEntity
  8
0
  6
Continuous
 62
     2
440
 16777216
100
AcDbLine
 10
373.5575101764
 20
126.3461510682
 30
0.0
 11
373.5575101764
 21
121.0961510682
 31
0.0
  0
LINE
  5
2D2
330
21D
100
AcDbEntity
  8
0
  6
Continuous
 62
     2
440
 16777216
100
AcDbLine
 10
373.5575101764
 20
121.0961510682
 30
0.0
 11
373.5575101764
 21
144.0012316003
 31
0.0
  0
INSERT
  5
2D3
330
21D
100
AcDbEntity
  8
0
  6
Continuous
 62
     2
440
 16777216
100
AcDbBlockReference
  2
_FILLED
 10
373.5575101764
 20
115.8461510682
 30
0.0
 41
2.0
 42
2.0
 43
2.0
 50
270.0
  0
INSERT
  5
2D4
330
21D
100
AcDbEntity
  8
0
  6
Continuous
 62
     2
440
 16777216
100
AcDbBlockReference
  2
_FILLED
 10
373.5575101764
 20
126.3461510682
 30
0.0
 41
2.0
 42
2.0
 43
2.0
 50
90.0
  0
ENDBLK
  5
2D5
330
21D
100
AcDbEntity
  8
0
  6
ByBlock
 62
     0
100
AcDbBlockEnd
  0
BLOCK
  5
2D6
330
21E
100
AcDbEntity
  8
0
  6
Continuous
 62
     2
100
AcDbBlockBegin
  2
*D17
 70
     1
 10
0.0
 20
0.0
 30
0.0
  3
*D17
  1

  0
MTEXT
  5
2D7
330
21E
100
AcDbEntity
  8
0
  6
Continuous
 62
     2
440
 16777216
100
AcDbMText
 10
377.2609073064
 20
135.7768096281
 30
0.0
 40
3.0
 41
8.324723247199999
 46
0.0
 71
     1
 72
     1
  1
3.00
 11
0.0
 21
1.0
 31
0.0
 73
     2
 44
0.9
  0
LINE
  5
2D8
330
21E
100
AcDbEntity
  8
0
  6
Continuous
 62
     2
440
 16777216
100
AcDbLine
 10
356.6949879084
 20
115.8461510682
 30
0.0
 11
383.0109073064
 21
115.8461510682
 31
0.0
  0
LINE
  5
2D9
330
21E
100
AcDbEntity
  8
0
  6
Continuous
 62
     2
440
 16777216
100
AcDbLine
 10
356.6949879084
 20
112.8461510682
 30
0.0
 11
383.0109073064
 21
112.8461510682
 31
0.0
  0
LINE
  5
2DA
330
21E
100
AcDbEntity
  8
0
  6
Continuous
 62
     2
440
 16777216
100
AcDbLine
 10
381.0109073064
 20
115.8461510682
 30
0.0
 11
381.0109073064
 21
144.1015328754
 31
0.0
  0
LINE
  5
2DB
330
21E
100
AcDbEntity
  8
0
  6
Continuous
 62
     2
440
 16777216
100
AcDbLine
 10
381.0109073064
 20
144.1015328754
 30
0.0
 11
381.0109073064
 21
114.3461510682
 31
0.0
  0
LINE
  5
2DC
330
21E
100
AcDbEntity
  8
0
  6
Continuous
 62
     2
440
 16777216
100
AcDbLine
 10
381.0109073064
 20
112.8461510682
 30
0.0
 11
381.0109073064
 21
107.8461510682
 31
0.0
  0
LINE
  5
2DD
330
21E
100
AcDbEntity
  8
0
  6
Continuous
 62
     2
440
 16777216
100
AcDbLine
 10
381.0109073064
 20
107.8461510682
 30
0.0
 11
381.0109073064
 21
114.3461510682
 31
0.0
  0
INSERT
  5
2DE
330
21E
100
AcDbEntity
  8
0
  6
Continuous
 62
     2
440
 16777216
100
AcDbBlockReference
  2
_FILLED
 10
381.0109073064
 20
115.8461510682
 30
0.0
 41
2.0
 42
2.0
 43
2.0
 50
270.0
  0
INSERT
  5
2DF
330
21E
100
AcDbEntity
  8
0
  6
Continuous
 62
     2
440
 16777216
100
AcDbBlockReference
  2
_FILLED
 10
381.0109073064
 20
112.8461510682
 30
0.0
 41
2.0
 42
2.0
 43
2.0
 50
90.0
  0
ENDBLK
  5
2E0
330
21E
100
AcDbEntity
  8
0
  6
ByBlock
 62
     0
100
AcDbBlockEnd
  0
BLOCK
  5
227
330
21F
100
AcDbEntity
  8
0
  6
Continuous
 62
     2
100
AcDbBlockBegin
  2
CONFIDENTIAL_BL1
 70
     0
 10
283.0641011555
 20
164.8460677467
 30
0.0
  3
CONFIDENTIAL_BL1
  1

  0
TEXT
  5
228
330
21F
100
AcDbEntity
  8
0
  6
Continuous
 62
     9
420
 12237498
100
AcDbText
 10
229.5053626177
 20
93.6096596792
 30
0.0
 40
25.0
  1
confidential
 50
45.0
  7
TEXTSTYLE_4
100
AcDbText
  0
ENDBLK
  5
229
330
21F
100
AcDbEntity
  8
0
  6
ByBlock
 62
     0
100
AcDbBlockEnd
  0
BLOCK
  5
22A
330
220
100
AcDbEntity
  8
0
  6
Continuous
 62
     2
100
AcDbBlockBegin
  2
CONFIDENTIAL_BL0
 70
     0
 10
139.4864167682
 20
167.2201581779
 30
0.0
  3
CONFIDENTIAL_BL0
  1

  0
TEXT
  5
22B
330
220
100
AcDbEntity
  8
0
  6
Continuous
 62
     9
420
 12237498
100
AcDbText
 10
85.9276782304
 20
95.98375011040001
 30
0.0
 40
25.0
  1
confidential
 50
45.0
  7
TEXTSTYLE_4
100
AcDbText
  0
ENDBLK
  5
22C
330
220
100
AcDbEntity
  8
0
  6
ByBlock
 62
     0
100
AcDbBlockEnd
  0
ENDSEC
  0
SECTION
  2
ENTITIES
  0
LINE
  5
38F
330
20B
100
AcDbEntity
  8
03___PRT_ALL_CURVES
  6
Continuous
 62
     2
100
AcDbLine
 10
65.8806333209
 20
231.3690261197
 30
0.0
 11
66.64572787770001
 21
232.1341206765
 31
0.0
  0
LINE
  5
390
330
20B
100
AcDbEntity
  8
03___PRT_ALL_CURVES
  6
Continuous
 62
     2
100
AcDbLine
 10
65.4992910189
 20
229.7997444253
 30
0.0
 11
68.2150095722
 21
232.5154629786
 31
0.0
  0
LINE
  5
391
330
20B
100
AcDbEntity
  8
03___PRT_ALL_CURVES
  6
Continuous
 62
     2
100
AcDbLine
 10
65.7671897051
 20
228.8797037191
 30
0.0
 11
66.7057199581
 21
229.8182339721
 31
0.0
  0
LINE
  5
392
330
20B
100
AcDbEntity
  8
03___PRT_ALL_CURVES
  6
Continuous
 62
     2
100
AcDbLine
 10
68.1965200253
 20
231.3090340393
 30
0.0
 11
69.1350502783
 21
232.2475642923
 31
0.0
  0
LINE
  5
393
330
20B
100
AcDbEntity
  8
03___PRT_ALL_CURVES
  6
Continuous
 62
     2
100
AcDbLine
 10
66.27821091310001
 20
228.2027855347
 30
0.0
 11
67.12756006710001
 21
229.0521346887
 31
0.0
  0
LINE
  5
394
330
20B
100
AcDbEntity
  8
03___PRT_ALL_CURVES
  6
Continuous
 62
     2
100
AcDbLine
 10
68.9626193087
 20
230.8871939303
 30
0.0
 11
69.81196846279999
 21
231.7365430844
 31
0.0
  0
LINE
  5
395
330
20B
100
AcDbEntity
  8
03___PRT_ALL_CURVES
  6
Continuous
 62
     2
100
AcDbLine
 10
66.9951311618
 20
227.731766391
 30
0.0
 11
67.9890593841
 21
228.7256946133
 31
0.0
  0
LINE
  5
396
330
20B
100
AcDbEntity
  8
03___PRT_ALL_CURVES
  6
Continuous
 62
     2
100
AcDbLine
 10
69.2890593841
 20
230.0256946133
 30
0.0
 11
70.2829876064
 21
231.0196228356
 31
0.0
  0
LINE
  5
397
330
20B
100
AcDbEntity
  8
03___PRT_ALL_CURVES
  6
Continuous
 62
     2
100
AcDbLine
 10
67.9770277288
 20
227.5257235656
 30
0.0
 11
70.48903043180001
 21
230.0377262686
 31
0.0
  0
LINE
  5
398
330
20B
100
AcDbEntity
  8
03___PRT_ALL_CURVES
  6
Continuous
 62
     2
100
AcDbLine
 10
65.48906445520001
 20
206.0307300137
 30
0.0
 11
67.9840239838
 21
208.5256895423
 31
0.0
  0
LINE
  5
399
330
20B
100
AcDbEntity
  8
03___PRT_ALL_CURVES
  6
Continuous
 62
     2
100
AcDbLine
 10
65.6899902596
 20
205.0437164258
 30
0.0
 11
66.68917323710001
 21
206.0428994032
 31
0.0
  0
LINE
  5
39A
330
20B
100
AcDbEntity
  8
03___PRT_ALL_CURVES
  6
Continuous
 62
     2
100
AcDbLine
 10
67.97185459419999
 20
207.3255807603
 30
0.0
 11
68.9710375717
 21
208.3247637378
 31
0.0
  0
LINE
  5
39B
330
20B
100
AcDbEntity
  8
03___PRT_ALL_CURVES
  6
Continuous
 62
     2
100
AcDbLine
 10
66.1578965153
 20
204.3236832891
 30
0.0
 11
67.00751579910001
 21
205.1733025728
 31
0.0
  0
LINE
  5
39C
330
20B
100
AcDbEntity
  8
03___PRT_ALL_CURVES
  6
Continuous
 62
     2
100
AcDbLine
 10
68.84145142459999
 20
207.0072381983
 30
0.0
 11
69.6910707084
 21
207.8568574821
 31
0.0
  0
LINE
  5
39D
330
20B
100
AcDbEntity
  8
03___PRT_ALL_CURVES
  6
Continuous
 62
     2
100
AcDbLine
 10
66.8318169888
 20
203.8096643702
 30
0.0
 11
67.766960079
 21
204.7448074603
 31
0.0
  0
LINE
  5
39E
330
20B
100
AcDbEntity
  8
03___PRT_ALL_CURVES
  6
Continuous
 62
     2
100
AcDbLine
 10
69.2699465371
 20
206.2477939184
 30
0.0
 11
70.2050896273
 21
207.1829370086
 31
0.0
  0
LINE
  5
39F
330
20B
100
AcDbEntity
  8
03___PRT_ALL_CURVES
  6
Continuous
 62
     2
100
AcDbLine
 10
67.7474855782
 20
203.5373935672
 30
0.0
 11
70.47736043029999
 21
206.2672684192
 31
0.0
  0
LINE
  5
3A0
330
20B
100
AcDbEntity
  8
03___PRT_ALL_CURVES
  6
Continuous
 62
     2
100
AcDbLine
 10
69.2871478071
 20
203.8891164036
 30
0.0
 11
70.1256375938
 21
204.7276061904
 31
0.0
  0
LINE
  5
3A1
330
20B
100
AcDbEntity
  8
03___PRT_ALL_CURVES
  6
Continuous
 62
     2
100
AcDbLine
 10
146.5698987861
 20
230.0904735098
 30
0.0
 11
149.0042804877
 21
232.5248552113
 31
0.0
  0
LINE
  5
3A2
330
20B
100
AcDbEntity
  8
03___PRT_ALL_CURVES
  6
Continuous
 62
     2
100
AcDbLine
 10
146.7526687381
 20
229.0853040694
 30
0.0
 11
147.7714234337
 21
230.104058765
 31
0.0
  0
LINE
  5
3A3
330
20B
100
AcDbEntity
  8
03___PRT_ALL_CURVES
  6
Continuous
 62
     2
100
AcDbLine
 10
148.9906952325
 20
231.3233305637
 30
0.0
 11
150.0094499281
 21
232.3420852593
 31
0.0
  0
LINE
  5
3A4
330
20B
100
AcDbEntity
  8
03___PRT_ALL_CURVES
  6
Continuous
 62
     2
100
AcDbLine
 10
147.2097646603
 20
228.3544605992
 30
0.0
 11
148.0606121154
 21
229.2053080543
 31
0.0
  0
LINE
  5
3A5
330
20B
100
AcDbEntity
  8
03___PRT_ALL_CURVES
  6
Continuous
 62
     2
100
AcDbLine
 10
149.8894459432
 20
231.034141882
 30
0.0
 11
150.7402933983
 21
231.8849893371
 31
0.0
  0
LINE
  5
3A6
330
20B
100
AcDbEntity
  8
03___PRT_ALL_CURVES
  6
Continuous
 62
     2
100
AcDbLine
 10
147.8733983436
 20
227.8301548901
 30
0.0
 11
148.7975969787
 21
228.7543535252
 31
0.0
  0
LINE
  5
3A7
330
20B
100
AcDbEntity
  8
03___PRT_ALL_CURVES
  6
Continuous
 62
     2
100
AcDbLine
 10
150.3404004723
 20
230.2971570187
 30
0.0
 11
151.2645991073
 21
231.2213556538
 31
0.0
  0
LINE
  5
3A8
330
20B
100
AcDbEntity
  8
03___PRT_ALL_CURVES
  6
Continuous
 62
     2
100
AcDbLine
 10
148.7743133106
 20
227.5431304647
 30
0.0
 11
151.5516235328
 21
230.3204406868
 31
0.0
  0
LINE
  5
3A9
330
20B
100
AcDbEntity
  8
03___PRT_ALL_CURVES
  6
Continuous
 62
     2
100
AcDbLine
 10
150.2315188757
 20
227.8123966373
 30
0.0
 11
151.2823573601
 21
228.8632351218
 31
0.0
  0
LINE
  5
3AA
330
20B
100
AcDbEntity
  8
03___PRT_ALL_CURVES
  6
Continuous
 62
    40
100
AcDbLine
 10
64.9890593841
 20
222.5856946133
 30
0.0
 11
64.9890593841
 21
221.0856946133
 31
0.0
  0
LINE
  5
3AB
330
20B
100
AcDbEntity
  8
03___PRT_ALL_CURVES
  6
Continuous
 62
    40
100
AcDbLine
 10
64.9890593841
 20
220.0456946133
 30
0.0
 11
64.9890593841
 21
218.5456946133
 31
0.0
  0
LINE
  5
3AC
330
20B
100
AcDbEntity
  8
03___PRT_ALL_CURVES
  6
Continuous
 62
    40
100
AcDbLine
 10
64.9890593841
 20
217.5056946133
 30
0.0
 11
64.9890593841
 21
216.0056946133
 31
0.0
  0
LINE
  5
3AD
330
20B
100
AcDbEntity
  8
03___PRT_ALL_CURVES
  6
Continuous
 62
    40
100
AcDbLine
 10
64.9890593841
 20
214.9656946133
 30
0.0
 11
64.9890593841
 21
213.4656946133
 31
0.0
  0
LINE
  5
3AE
330
20B
100
AcDbEntity
  8
0
  6
Continuous
 62
     7
100
AcDbLine
 10
64.9890593841
 20
205.0256946133
 30
0.0
 11
64.9890593841
 21
231.0256946133
 31
0.0
  0
LINE
  5
3AF
330
20B
100
AcDbEntity
  8
03___PRT_ALL_CURVES
  6
Continuous
 62
    40
100
AcDbLine
 10
67.58905938409999
 20
213.4656946133
 30
0.0
 11
67.58905938409999
 21
214.9656946133
 31
0.0
  0
LINE
  5
3B0
330
20B
100
AcDbEntity
  8
03___PRT_ALL_CURVES
  6
Continuous
 62
    40
100
AcDbLine
 10
67.58905938409999
 20
216.0056946133
 30
0.0
 11
67.58905938409999
 21
217.5056946133
 31
0.0
  0
LINE
  5
3B1
330
20B
100
AcDbEntity
  8
03___PRT_ALL_CURVES
  6
Continuous
 62
    40
100
AcDbLine
 10
67.58905938409999
 20
218.5456946133
 30
0.0
 11
67.58905938409999
 21
220.0456946133
 31
0.0
  0
LINE
  5
3B2
330
20B
100
AcDbEntity
  8
03___PRT_ALL_CURVES
  6
Continuous
 62
    40
100
AcDbLine
 10
67.58905938409999
 20
221.0856946133
 30
0.0
 11
67.58905938409999
 21
222.5856946133
 31
0.0
  0
LINE
  5
3B3
330
20B
100
AcDbEntity
  8
03___PRT_ALL_CURVES
  6
Continuous
 62
     2
100
AcDbLine
 10
146.5904812096
 20
206.3522680853
 30
0.0
 11
148.7424859121
 21
208.5042727879
 31
0.0
  0
LINE
  5
3B4
330
20B
100
AcDbEntity
  8
03___PRT_ALL_CURVES
  6
Continuous
 62
     2
100
AcDbLine
 10
146.6884621212
 20
205.2623096045
 30
0.0
 11
147.8232392005
 21
206.3970866839
 31
0.0
  0
LINE
  5
3B5
330
20B
100
AcDbEntity
  8
03___PRT_ALL_CURVES
  6
Continuous
 62
     2
100
AcDbLine
 10
148.6976673136
 20
207.271514797
 30
0.0
 11
149.8324443929
 21
208.4062918763
 31
0.0
  0
LINE
  5
3B6
330
20B
100
AcDbEntity
  8
03___PRT_ALL_CURVES
  6
Continuous
 62
     2
100
AcDbLine
 10
147.0997346041
 20
204.4856426951
 30
0.0
 11
147.9605934379
 21
205.3465015288
 31
0.0
  0
LINE
  5
3B7
330
20B
100
AcDbEntity
  8
03___PRT_ALL_CURVES
  6
Continuous
 62
     2
100
AcDbLine
 10
149.7482524686
 20
207.1341605596
 30
0.0
 11
150.6091113024
 21
207.9950193933
 31
0.0
  0
LINE
  5
3B8
330
20B
100
AcDbEntity
  8
03___PRT_ALL_CURVES
  6
Continuous
 62
     2
100
AcDbLine
 10
147.7218046054
 20
203.919773304
 30
0.0
 11
148.6110717588
 21
204.8090404574
 31
0.0
  0
LINE
  5
3B9
330
20B
100
AcDbEntity
  8
03___PRT_ALL_CURVES
  6
Continuous
 62
     2
100
AcDbLine
 10
150.28571354
 20
206.4836822386
 30
0.0
 11
151.1749806935
 21
207.3729493921
 31
0.0
  0
LINE
  5
3BA
330
20B
100
AcDbEntity
  8
03___PRT_ALL_CURVES
  6
Continuous
 62
     2
100
AcDbLine
 10
148.5666654441
 20
203.5766947503
 30
0.0
 11
151.5180592471
 21
206.5280885533
 31
0.0
  0
LINE
  5
3BB
330
20B
100
AcDbEntity
  8
03___PRT_ALL_CURVES
  6
Continuous
 62
     2
100
AcDbLine
 10
149.8186179008
 20
203.6407078146
 30
0.0
 11
151.4540461828
 21
205.2761360966
 31
0.0
  0
LINE
  5
3BC
330
20B
100
AcDbEntity
  8
03___PRT_ALL_CURVES
  6
Continuous
 62
    40
100
AcDbLine
 10
73.68905938410001
 20
205.6256946133
 30
0.0
 11
73.68905938410001
 21
203.0256946133
 31
0.0
  0
LINE
  5
3BD
330
20B
100
AcDbEntity
  8
03___PRT_ALL_CURVES
  6
Continuous
 62
    40
100
AcDbLine
 10
73.68905938410001
 20
230.4256946133
 30
0.0
 11
73.68905938410001
 21
233.0256946133
 31
0.0
  0
LINE
  5
3BE
330
20B
100
AcDbEntity
  8
03___PRT_ALL_CURVES
  6
Continuous
 62
    40
100
AcDbLine
 10
75.1890593841
 20
233.0256946133
 30
0.0
 11
75.1890593841
 21
230.4256946133
 31
0.0
  0
LINE
  5
3BF
330
20B
100
AcDbEntity
  8
03___PRT_ALL_CURVES
  6
Continuous
 62
    40
100
AcDbLine
 10
75.1890593841
 20
203.0256946133
 30
0.0
 11
75.1890593841
 21
205.6256946133
 31
0.0
  0
LINE
  5
3C0
330
20B
100
AcDbEntity
  8
03___PRT_ALL_CURVES
  6
Continuous
 62
    40
100
AcDbLine
 10
76.22905938409999
 20
205.6256946133
 30
0.0
 11
76.22905938409999
 21
203.0256946133
 31
0.0
  0
LINE
  5
3C1
330
20B
100
AcDbEntity
  8
03___PRT_ALL_CURVES
  6
Continuous
 62
    40
100
AcDbLine
 10
76.22905938409999
 20
230.4256946133
 30
0.0
 11
76.22905938409999
 21
233.0256946133
 31
0.0
  0
LINE
  5
3C2
330
20B
100
AcDbEntity
  8
03___PRT_ALL_CURVES
  6
Continuous
 62
    40
100
AcDbLine
 10
77.7290593841
 20
233.0256946133
 30
0.0
 11
77.7290593841
 21
230.4256946133
 31
0.0
  0
LINE
  5
3C3
330
20B
100
AcDbEntity
  8
03___PRT_ALL_CURVES
  6
Continuous
 62
    40
100
AcDbLine
 10
77.7290593841
 20
203.0256946133
 30
0.0
 11
77.7290593841
 21
205.6256946133
 31
0.0
  0
LINE
  5
3C4
330
20B
100
AcDbEntity
  8
03___PRT_ALL_CURVES
  6
Continuous
 62
    40
100
AcDbLine
 10
78.76905938410001
 20
205.6256946133
 30
0.0
 11
78.76905938410001
 21
203.0256946133
 31
0.0
  0
LINE
  5
3C5
330
20B
100
AcDbEntity
  8
03___PRT_ALL_CURVES
  6
Continuous
 62
    40
100
AcDbLine
 10
78.76905938410001
 20
230.4256946133
 30
0.0
 11
78.76905938410001
 21
233.0256946133
 31
0.0
  0
LINE
  5
3C6
330
20B
100
AcDbEntity
  8
03___PRT_ALL_CURVES
  6
Continuous
 62
    40
100
AcDbLine
 10
80.26905938410001
 20
233.0256946133
 30
0.0
 11
80.26905938410001
 21
230.4256946133
 31
0.0
  0
LINE
  5
3C7
330
20B
100
AcDbEntity
  8
03___PRT_ALL_CURVES
  6
Continuous
 62
    40
100
AcDbLine
 10
80.26905938410001
 20
203.0256946133
 30
0.0
 11
80.26905938410001
 21
205.6256946133
 31
0.0
  0
LINE
  5
3C8
330
20B
100
AcDbEntity
  8
03___PRT_ALL_CURVES
  6
Continuous
 62
    40
100
AcDbLine
 10
81.3090593841
 20
205.6256946133
 30
0.0
 11
81.3090593841
 21
203.0256946133
 31
0.0
  0
LINE
  5
3C9
330
20B
100
AcDbEntity
  8
03___PRT_ALL_CURVES
  6
Continuous
 62
    40
100
AcDbLine
 10
81.3090593841
 20
230.4256946133
 30
0.0
 11
81.3090593841
 21
233.0256946133
 31
0.0
  0
LINE
  5
3CA
330
20B
100
AcDbEntity
  8
03___PRT_ALL_CURVES
  6
Continuous
 62
    40
100
AcDbLine
 10
82.80905938409999
 20
233.0256946133
 30
0.0
 11
82.80905938409999
 21
230.4256946133
 31
0.0
  0
LINE
  5
3CB
330
20B
100
AcDbEntity
  8
03___PRT_ALL_CURVES
  6
Continuous
 62
    40
100
AcDbLine
 10
82.80905938409999
 20
203.0256946133
 30
0.0
 11
82.80905938409999
 21
205.6256946133
 31
0.0
  0
LINE
  5
3CC
330
20B
100
AcDbEntity
  8
03___PRT_ALL_CURVES
  6
Continuous
 62
    40
100
AcDbLine
 10
83.8490593841
 20
205.6256946133
 30
0.0
 11
83.8490593841
 21
203.0256946133
 31
0.0
  0
LINE
  5
3CD
330
20B
100
AcDbEntity
  8
03___PRT_ALL_CURVES
  6
Continuous
 62
    40
100
AcDbLine
 10
83.8490593841
 20
230.4256946133
 30
0.0
 11
83.8490593841
 21
233.0256946133
 31
0.0
  0
LINE
  5
3CE
330
20B
100
AcDbEntity
  8
03___PRT_ALL_CURVES
  6
Continuous
 62
    40
100
AcDbLine
 10
85.3490593841
 20
233.0256946133
 30
0.0
 11
85.3490593841
 21
230.4256946133
 31
0.0
  0
LINE
  5
3CF
330
20B
100
AcDbEntity
  8
03___PRT_ALL_CURVES
  6
Continuous
 62
    40
100
AcDbLine
 10
85.3490593841
 20
203.0256946133
 30
0.0
 11
85.3490593841
 21
205.6256946133
 31
0.0
  0
LINE
  5
3D0
330
20B
100
AcDbEntity
  8
03___PRT_ALL_CURVES
  6
Continuous
 62
    40
100
AcDbLine
 10
86.38905938409999
 20
205.6256946133
 30
0.0
 11
86.38905938409999
 21
203.0256946133
 31
0.0
  0
LINE
  5
3D1
330
20B
100
AcDbEntity
  8
03___PRT_ALL_CURVES
  6
Continuous
 62
    40
100
AcDbLine
 10
86.38905938409999
 20
230.4256946133
 30
0.0
 11
86.38905938409999
 21
233.0256946133
 31
0.0
  0
LINE
  5
3D2
330
20B
100
AcDbEntity
  8
03___PRT_ALL_CURVES
  6
Continuous
 62
    40
100
AcDbLine
 10
87.8890593841
 20
233.0256946133
 30
0.0
 11
87.8890593841
 21
230.4256946133
 31
0.0
  0
LINE
  5
3D3
330
20B
100
AcDbEntity
  8
03___PRT_ALL_CURVES
  6
Continuous
 62
    40
100
AcDbLine
 10
87.8890593841
 20
203.0256946133
 30
0.0
 11
87.8890593841
 21
205.6256946133
 31
0.0
  0
LINE
  5
3D4
330
20B
100
AcDbEntity
  8
03___PRT_ALL_CURVES
  6
Continuous
 62
    40
100
AcDbLine
 10
88.92905938410001
 20
205.6256946133
 30
0.0
 11
88.92905938410001
 21
203.0256946133
 31
0.0
  0
LINE
  5
3D5
330
20B
100
AcDbEntity
  8
03___PRT_ALL_CURVES
  6
Continuous
 62
    40
100
AcDbLine
 10
88.92905938410001
 20
230.4256946133
 30
0.0
 11
88.92905938410001
 21
233.0256946133
 31
0.0
  0
LINE
  5
3D6
330
20B
100
AcDbEntity
  8
03___PRT_ALL_CURVES
  6
Continuous
 62
    40
100
AcDbLine
 10
90.42905938409999
 20
233.0256946133
 30
0.0
 11
90.42905938409999
 21
230.4256946133
 31
0.0
  0
LINE
  5
3D7
330
20B
100
AcDbEntity
  8
03___PRT_ALL_CURVES
  6
Continuous
 62
    40
100
AcDbLine
 10
90.42905938409999
 20
203.0256946133
 30
0.0
 11
90.42905938409999
 21
205.6256946133
 31
0.0
  0
LINE
  5
3D8
330
20B
100
AcDbEntity
  8
03___PRT_ALL_CURVES
  6
Continuous
 62
    40
100
AcDbLine
 10
91.46905938409998
 20
205.6256946133
 30
0.0
 11
91.46905938409998
 21
203.0256946133
 31
0.0
  0
LINE
  5
3D9
330
20B
100
AcDbEntity
  8
03___PRT_ALL_CURVES
  6
Continuous
 62
    40
100
AcDbLine
 10
91.46905938409998
 20
230.4256946133
 30
0.0
 11
91.46905938409998
 21
233.0256946133
 31
0.0
  0
LINE
  5
3DA
330
20B
100
AcDbEntity
  8
03___PRT_ALL_CURVES
  6
Continuous
 62
    40
100
AcDbLine
 10
92.96905938409999
 20
233.0256946133
 30
0.0
 11
92.96905938409999
 21
230.4256946133
 31
0.0
  0
LINE
  5
3DB
330
20B
100
AcDbEntity
  8
03___PRT_ALL_CURVES
  6
Continuous
 62
    40
100
AcDbLine
 10
92.96905938409999
 20
203.0256946133
 30
0.0
 11
92.96905938409999
 21
205.6256946133
 31
0.0
  0
LINE
  5
3DC
330
20B
100
AcDbEntity
  8
03___PRT_ALL_CURVES
  6
Continuous
 62
    40
100
AcDbLine
 10
94.0090593841
 20
205.6256946133
 30
0.0
 11
94.0090593841
 21
203.0256946133
 31
0.0
  0
LINE
  5
3DD
330
20B
100
AcDbEntity
  8
03___PRT_ALL_CURVES
  6
Continuous
 62
    40
100
AcDbLine
 10
94.0090593841
 20
230.4256946133
 30
0.0
 11
94.0090593841
 21
233.0256946133
 31
0.0
  0
LINE
  5
3DE
330
20B
100
AcDbEntity
  8
03___PRT_ALL_CURVES
  6
Continuous
 62
    40
100
AcDbLine
 10
95.5090593841
 20
233.0256946133
 30
0.0
 11
95.5090593841
 21
230.4256946133
 31
0.0
  0
LINE
  5
3DF
330
20B
100
AcDbEntity
  8
03___PRT_ALL_CURVES
  6
Continuous
 62
    40
100
AcDbLine
 10
95.5090593841
 20
203.0256946133
 30
0.0
 11
95.5090593841
 21
205.6256946133
 31
0.0
  0
LINE
  5
3E0
330
20B
100
AcDbEntity
  8
03___PRT_ALL_CURVES
  6
Continuous
 62
    40
100
AcDbLine
 10
96.54905938410001
 20
205.6256946133
 30
0.0
 11
96.54905938410001
 21
203.0256946133
 31
0.0
  0
LINE
  5
3E1
330
20B
100
AcDbEntity
  8
03___PRT_ALL_CURVES
  6
Continuous
 62
    40
100
AcDbLine
 10
96.54905938410001
 20
230.4256946133
 30
0.0
 11
96.54905938410001
 21
233.0256946133
 31
0.0
  0
LINE
  5
3E2
330
20B
100
AcDbEntity
  8
03___PRT_ALL_CURVES
  6
Continuous
 62
    40
100
AcDbLine
 10
98.04905938410001
 20
233.0256946133
 30
0.0
 11
98.04905938410001
 21
230.4256946133
 31
0.0
  0
LINE
  5
3E3
330
20B
100
AcDbEntity
  8
03___PRT_ALL_CURVES
  6
Continuous
 62
    40
100
AcDbLine
 10
98.04905938410001
 20
203.0256946133
 30
0.0
 11
98.04905938410001
 21
205.6256946133
 31
0.0
  0
LINE
  5
3E4
330
20B
100
AcDbEntity
  8
03___PRT_ALL_CURVES
  6
Continuous
 62
    40
100
AcDbLine
 10
99.08905938410001
 20
205.6256946133
 30
0.0
 11
99.08905938410001
 21
203.0256946133
 31
0.0
  0
LINE
  5
3E5
330
20B
100
AcDbEntity
  8
03___PRT_ALL_CURVES
  6
Continuous
 62
    40
100
AcDbLine
 10
99.08905938410001
 20
230.4256946133
 30
0.0
 11
99.08905938410001
 21
233.0256946133
 31
0.0
  0
LINE
  5
3E6
330
20B
100
AcDbEntity
  8
03___PRT_ALL_CURVES
  6
Continuous
 62
    40
100
AcDbLine
 10
100.5890593841
 20
233.0256946133
 30
0.0
 11
100.5890593841
 21
230.4256946133
 31
0.0
  0
LINE
  5
3E7
330
20B
100
AcDbEntity
  8
03___PRT_ALL_CURVES
  6
Continuous
 62
    40
100
AcDbLine
 10
100.5890593841
 20
203.0256946133
 30
0.0
 11
100.5890593841
 21
205.6256946133
 31
0.0
  0
LINE
  5
3E8
330
20B
100
AcDbEntity
  8
03___PRT_ALL_CURVES
  6
Continuous
 62
    40
100
AcDbLine
 10
101.6290593841
 20
205.6256946133
 30
0.0
 11
101.6290593841
 21
203.0256946133
 31
0.0
  0
LINE
  5
3E9
330
20B
100
AcDbEntity
  8
03___PRT_ALL_CURVES
  6
Continuous
 62
    40
100
AcDbLine
 10
101.6290593841
 20
230.4256946133
 30
0.0
 11
101.6290593841
 21
233.0256946133
 31
0.0
  0
LINE
  5
3EA
330
20B
100
AcDbEntity
  8
03___PRT_ALL_CURVES
  6
Continuous
 62
    40
100
AcDbLine
 10
103.1290593841
 20
233.0256946133
 30
0.0
 11
103.1290593841
 21
230.4256946133
 31
0.0
  0
LINE
  5
3EB
330
20B
100
AcDbEntity
  8
03___PRT_ALL_CURVES
  6
Continuous
 62
    40
100
AcDbLine
 10
103.1290593841
 20
203.0256946133
 30
0.0
 11
103.1290593841
 21
205.6256946133
 31
0.0
  0
LINE
  5
3EC
330
20B
100
AcDbEntity
  8
03___PRT_ALL_CURVES
  6
Continuous
 62
    40
100
AcDbLine
 10
113.9290593841
 20
205.6256946133
 30
0.0
 11
113.9290593841
 21
203.0256946133
 31
0.0
  0
LINE
  5
3ED
330
20B
100
AcDbEntity
  8
03___PRT_ALL_CURVES
  6
Continuous
 62
    40
100
AcDbLine
 10
113.9290593841
 20
230.4256946133
 30
0.0
 11
113.9290593841
 21
233.0256946133
 31
0.0
  0
LINE
  5
3EE
330
20B
100
AcDbEntity
  8
03___PRT_ALL_CURVES
  6
Continuous
 62
    40
100
AcDbLine
 10
115.4290593841
 20
233.0256946133
 30
0.0
 11
115.4290593841
 21
230.4256946133
 31
0.0
  0
LINE
  5
3EF
330
20B
100
AcDbEntity
  8
03___PRT_ALL_CURVES
  6
Continuous
 62
    40
100
AcDbLine
 10
115.4290593841
 20
203.0256946133
 30
0.0
 11
115.4290593841
 21
205.6256946133
 31
0.0
  0
LINE
  5
3F0
330
20B
100
AcDbEntity
  8
03___PRT_ALL_CURVES
  6
Continuous
 62
    40
100
AcDbLine
 10
116.4690593841
 20
205.6256946133
 30
0.0
 11
116.4690593841
 21
203.0256946133
 31
0.0
  0
LINE
  5
3F1
330
20B
100
AcDbEntity
  8
03___PRT_ALL_CURVES
  6
Continuous
 62
    40
100
AcDbLine
 10
116.4690593841
 20
230.4256946133
 30
0.0
 11
116.4690593841
 21
233.0256946133
 31
0.0
  0
LINE
  5
3F2
330
20B
100
AcDbEntity
  8
03___PRT_ALL_CURVES
  6
Continuous
 62
    40
100
AcDbLine
 10
117.9690593841
 20
233.0256946133
 30
0.0
 11
117.9690593841
 21
230.4256946133
 31
0.0
  0
LINE
  5
3F3
330
20B
100
AcDbEntity
  8
03___PRT_ALL_CURVES
  6
Continuous
 62
    40
100
AcDbLine
 10
117.9690593841
 20
203.0256946133
 30
0.0
 11
117.9690593841
 21
205.6256946133
 31
0.0
  0
LINE
  5
3F4
330
20B
100
AcDbEntity
  8
03___PRT_ALL_CURVES
  6
Continuous
 62
    40
100
AcDbLine
 10
119.0090593841
 20
205.6256946133
 30
0.0
 11
119.0090593841
 21
203.0256946133
 31
0.0
  0
LINE
  5
3F5
330
20B
100
AcDbEntity
  8
03___PRT_ALL_CURVES
  6
Continuous
 62
    40
100
AcDbLine
 10
119.0090593841
 20
230.4256946133
 30
0.0
 11
119.0090593841
 21
233.0256946133
 31
0.0
  0
LINE
  5
3F6
330
20B
100
AcDbEntity
  8
03___PRT_ALL_CURVES
  6
Continuous
 62
    40
100
AcDbLine
 10
120.5090593841
 20
233.0256946133
 30
0.0
 11
120.5090593841
 21
230.4256946133
 31
0.0
  0
LINE
  5
3F7
330
20B
100
AcDbEntity
  8
03___PRT_ALL_CURVES
  6
Continuous
 62
    40
100
AcDbLine
 10
120.5090593841
 20
203.0256946133
 30
0.0
 11
120.5090593841
 21
205.6256946133
 31
0.0
  0
LINE
  5
3F8
330
20B
100
AcDbEntity
  8
03___PRT_ALL_CURVES
  6
Continuous
 62
    40
100
AcDbLine
 10
121.5490593841
 20
205.6256946133
 30
0.0
 11
121.5490593841
 21
203.0256946133
 31
0.0
  0
LINE
  5
3F9
330
20B
100
AcDbEntity
  8
03___PRT_ALL_CURVES
  6
Continuous
 62
    40
100
AcDbLine
 10
121.5490593841
 20
230.4256946133
 30
0.0
 11
121.5490593841
 21
233.0256946133
 31
0.0
  0
LINE
  5
3FA
330
20B
100
AcDbEntity
  8
03___PRT_ALL_CURVES
  6
Continuous
 62
    40
100
AcDbLine
 10
123.0490593841
 20
233.0256946133
 30
0.0
 11
123.0490593841
 21
230.4256946133
 31
0.0
  0
LINE
  5
3FB
330
20B
100
AcDbEntity
  8
03___PRT_ALL_CURVES
  6
Continuous
 62
    40
100
AcDbLine
 10
123.0490593841
 20
203.0256946133
 30
0.0
 11
123.0490593841
 21
205.6256946133
 31
0.0
  0
LINE
  5
3FC
330
20B
100
AcDbEntity
  8
03___PRT_ALL_CURVES
  6
Continuous
 62
    40
100
AcDbLine
 10
124.0890593841
 20
205.6256946133
 30
0.0
 11
124.0890593841
 21
203.0256946133
 31
0.0
  0
LINE
  5
3FD
330
20B
100
AcDbEntity
  8
03___PRT_ALL_CURVES
  6
Continuous
 62
    40
100
AcDbLine
 10
124.0890593841
 20
230.4256946133
 30
0.0
 11
124.0890593841
 21
233.0256946133
 31
0.0
  0
LINE
  5
3FE
330
20B
100
AcDbEntity
  8
03___PRT_ALL_CURVES
  6
Continuous
 62
    40
100
AcDbLine
 10
125.5890593841
 20
233.0256946133
 30
0.0
 11
125.5890593841
 21
230.4256946133
 31
0.0
  0
LINE
  5
3FF
330
20B
100
AcDbEntity
  8
03___PRT_ALL_CURVES
  6
Continuous
 62
    40
100
AcDbLine
 10
125.5890593841
 20
203.0256946133
 30
0.0
 11
125.5890593841
 21
205.6256946133
 31
0.0
  0
LINE
  5
400
330
20B
100
AcDbEntity
  8
03___PRT_ALL_CURVES
  6
Continuous
 62
    40
100
AcDbLine
 10
126.6290593841
 20
205.6256946133
 30
0.0
 11
126.6290593841
 21
203.0256946133
 31
0.0
  0
LINE
  5
401
330
20B
100
AcDbEntity
  8
03___PRT_ALL_CURVES
  6
Continuous
 62
    40
100
AcDbLine
 10
126.6290593841
 20
230.4256946133
 30
0.0
 11
126.6290593841
 21
233.0256946133
 31
0.0
  0
LINE
  5
402
330
20B
100
AcDbEntity
  8
03___PRT_ALL_CURVES
  6
Continuous
 62
    40
100
AcDbLine
 10
128.1290593841
 20
233.0256946133
 30
0.0
 11
128.1290593841
 21
230.4256946133
 31
0.0
  0
LINE
  5
403
330
20B
100
AcDbEntity
  8
03___PRT_ALL_CURVES
  6
Continuous
 62
    40
100
AcDbLine
 10
128.1290593841
 20
203.0256946133
 30
0.0
 11
128.1290593841
 21
205.6256946133
 31
0.0
  0
LINE
  5
404
330
20B
100
AcDbEntity
  8
03___PRT_ALL_CURVES
  6
Continuous
 62
    40
100
AcDbLine
 10
129.1690593841
 20
205.6256946133
 30
0.0
 11
129.1690593841
 21
203.0256946133
 31
0.0
  0
LINE
  5
405
330
20B
100
AcDbEntity
  8
03___PRT_ALL_CURVES
  6
Continuous
 62
    40
100
AcDbLine
 10
129.1690593841
 20
230.4256946133
 30
0.0
 11
129.1690593841
 21
233.0256946133
 31
0.0
  0
LINE
  5
406
330
20B
100
AcDbEntity
  8
03___PRT_ALL_CURVES
  6
Continuous
 62
    40
100
AcDbLine
 10
130.6690593841
 20
233.0256946133
 30
0.0
 11
130.6690593841
 21
230.4256946133
 31
0.0
  0
LINE
  5
407
330
20B
100
AcDbEntity
  8
03___PRT_ALL_CURVES
  6
Continuous
 62
    40
100
AcDbLine
 10
130.6690593841
 20
203.0256946133
 30
0.0
 11
130.6690593841
 21
205.6256946133
 31
0.0
  0
LINE
  5
408
330
20B
100
AcDbEntity
  8
03___PRT_ALL_CURVES
  6
Continuous
 62
    40
100
AcDbLine
 10
131.7090593841
 20
205.6256946133
 30
0.0
 11
131.7090593841
 21
203.0256946133
 31
0.0
  0
LINE
  5
409
330
20B
100
AcDbEntity
  8
03___PRT_ALL_CURVES
  6
Continuous
 62
    40
100
AcDbLine
 10
131.7090593841
 20
230.4256946133
 30
0.0
 11
131.7090593841
 21
233.0256946133
 31
0.0
  0
LINE
  5
40A
330
20B
100
AcDbEntity
  8
03___PRT_ALL_CURVES
  6
Continuous
 62
    40
100
AcDbLine
 10
133.2090593841
 20
233.0256946133
 30
0.0
 11
133.2090593841
 21
230.4256946133
 31
0.0
  0
LINE
  5
40B
330
20B
100
AcDbEntity
  8
03___PRT_ALL_CURVES
  6
Continuous
 62
    40
100
AcDbLine
 10
133.2090593841
 20
203.0256946133
 30
0.0
 11
133.2090593841
 21
205.6256946133
 31
0.0
  0
LINE
  5
40C
330
20B
100
AcDbEntity
  8
03___PRT_ALL_CURVES
  6
Continuous
 62
    40
100
AcDbLine
 10
134.2490593841
 20
205.6256946133
 30
0.0
 11
134.2490593841
 21
203.0256946133
 31
0.0
  0
LINE
  5
40D
330
20B
100
AcDbEntity
  8
03___PRT_ALL_CURVES
  6
Continuous
 62
    40
100
AcDbLine
 10
134.2490593841
 20
230.4256946133
 30
0.0
 11
134.2490593841
 21
233.0256946133
 31
0.0
  0
LINE
  5
40E
330
20B
100
AcDbEntity
  8
03___PRT_ALL_CURVES
  6
Continuous
 62
    40
100
AcDbLine
 10
135.7490593841
 20
233.0256946133
 30
0.0
 11
135.7490593841
 21
230.4256946133
 31
0.0
  0
LINE
  5
40F
330
20B
100
AcDbEntity
  8
03___PRT_ALL_CURVES
  6
Continuous
 62
    40
100
AcDbLine
 10
135.7490593841
 20
203.0256946133
 30
0.0
 11
135.7490593841
 21
205.6256946133
 31
0.0
  0
LINE
  5
410
330
20B
100
AcDbEntity
  8
03___PRT_ALL_CURVES
  6
Continuous
 62
    40
100
AcDbLine
 10
136.7890593841
 20
205.6256946133
 30
0.0
 11
136.7890593841
 21
203.0256946133
 31
0.0
  0
LINE
  5
411
330
20B
100
AcDbEntity
  8
03___PRT_ALL_CURVES
  6
Continuous
 62
    40
100
AcDbLine
 10
136.7890593841
 20
230.4256946133
 30
0.0
 11
136.7890593841
 21
233.0256946133
 31
0.0
  0
LINE
  5
412
330
20B
100
AcDbEntity
  8
03___PRT_ALL_CURVES
  6
Continuous
 62
    40
100
AcDbLine
 10
138.2890593841
 20
233.0256946133
 30
0.0
 11
138.2890593841
 21
230.4256946133
 31
0.0
  0
LINE
  5
413
330
20B
100
AcDbEntity
  8
03___PRT_ALL_CURVES
  6
Continuous
 62
    40
100
AcDbLine
 10
138.2890593841
 20
203.0256946133
 30
0.0
 11
138.2890593841
 21
205.6256946133
 31
0.0
  0
LINE
  5
414
330
20B
100
AcDbEntity
  8
03___PRT_ALL_CURVES
  6
Continuous
 62
    40
100
AcDbLine
 10
139.3290593841
 20
205.6256946133
 30
0.0
 11
139.3290593841
 21
203.0256946133
 31
0.0
  0
LINE
  5
415
330
20B
100
AcDbEntity
  8
03___PRT_ALL_CURVES
  6
Continuous
 62
    40
100
AcDbLine
 10
139.3290593841
 20
230.4256946133
 30
0.0
 11
139.3290593841
 21
233.0256946133
 31
0.0
  0
LINE
  5
416
330
20B
100
AcDbEntity
  8
03___PRT_ALL_CURVES
  6
Continuous
 62
    40
100
AcDbLine
 10
140.8290593841
 20
233.0256946133
 30
0.0
 11
140.8290593841
 21
230.4256946133
 31
0.0
  0
LINE
  5
417
330
20B
100
AcDbEntity
  8
03___PRT_ALL_CURVES
  6
Continuous
 62
    40
100
AcDbLine
 10
140.8290593841
 20
203.0256946133
 30
0.0
 11
140.8290593841
 21
205.6256946133
 31
0.0
  0
LINE
  5
418
330
20B
100
AcDbEntity
  8
03___PRT_ALL_CURVES
  6
Continuous
 62
    40
100
AcDbLine
 10
141.8690593841
 20
205.6256946133
 30
0.0
 11
141.8690593841
 21
203.0256946133
 31
0.0
  0
LINE
  5
419
330
20B
100
AcDbEntity
  8
03___PRT_ALL_CURVES
  6
Continuous
 62
    40
100
AcDbLine
 10
141.8690593841
 20
230.4256946133
 30
0.0
 11
141.8690593841
 21
233.0256946133
 31
0.0
  0
LINE
  5
41A
330
20B
100
AcDbEntity
  8
03___PRT_ALL_CURVES
  6
Continuous
 62
    40
100
AcDbLine
 10
143.3690593841
 20
233.0256946133
 30
0.0
 11
143.3690593841
 21
230.4256946133
 31
0.0
  0
LINE
  5
41B
330
20B
100
AcDbEntity
  8
03___PRT_ALL_CURVES
  6
Continuous
 62
    40
100
AcDbLine
 10
143.3690593841
 20
203.0256946133
 30
0.0
 11
143.3690593841
 21
205.6256946133
 31
0.0
  0
LINE
  5
41C
330
20B
100
AcDbEntity
  8
03___PRT_ALL_CURVES
  6
Continuous
 62
    40
100
AcDbLine
 10
149.3690593841
 20
216.5256946133
 30
0.0
 11
149.3690593841
 21
219.5256946133
 31
0.0
  0
LINE
  5
41D
330
20B
100
AcDbEntity
  8
0
  6
Continuous
 62
     7
100
AcDbLine
 10
152.0690593841
 20
231.0256946133
 30
0.0
 11
152.0690593841
 21
205.0256946133
 31
0.0
  0
LINE
  5
41E
330
20B
100
AcDbEntity
  8
03___PRT_ALL_CURVES
  6
Continuous
 62
    40
100
AcDbLine
 10
152.0690593841
 20
219.5256946133
 30
0.0
 11
152.0690593841
 21
216.5256946133
 31
0.0
  0
LINE
  5
41F
330
20B
100
AcDbEntity
  8
0
  6
Continuous
 62
     7
100
AcDbLine
 10
150.0690593841
 20
203.0256946133
 30
0.0
 11
66.9890593841
 21
203.0256946133
 31
0.0
  0
LINE
  5
420
330
20B
100
AcDbEntity
  8
03___PRT_ALL_CURVES
  6
Continuous
 62
    40
100
AcDbLine
 10
73.68905938410001
 20
203.0256946133
 30
0.0
 11
75.1890593841
 21
203.0256946133
 31
0.0
  0
LINE
  5
421
330
20B
100
AcDbEntity
  8
03___PRT_ALL_CURVES
  6
Continuous
 62
    40
100
AcDbLine
 10
76.22905938409999
 20
203.0256946133
 30
0.0
 11
77.7290593841
 21
203.0256946133
 31
0.0
  0
LINE
  5
422
330
20B
100
AcDbEntity
  8
03___PRT_ALL_CURVES
  6
Continuous
 62
    40
100
AcDbLine
 10
78.76905938410001
 20
203.0256946133
 30
0.0
 11
80.26905938410001
 21
203.0256946133
 31
0.0
  0
LINE
  5
423
330
20B
100
AcDbEntity
  8
03___PRT_ALL_CURVES
  6
Continuous
 62
    40
100
AcDbLine
 10
81.3090593841
 20
203.0256946133
 30
0.0
 11
82.80905938409999
 21
203.0256946133
 31
0.0
  0
LINE
  5
424
330
20B
100
AcDbEntity
  8
03___PRT_ALL_CURVES
  6
Continuous
 62
    40
100
AcDbLine
 10
83.8490593841
 20
203.0256946133
 30
0.0
 11
85.3490593841
 21
203.0256946133
 31
0.0
  0
LINE
  5
425
330
20B
100
AcDbEntity
  8
03___PRT_ALL_CURVES
  6
Continuous
 62
    40
100
AcDbLine
 10
86.38905938409999
 20
203.0256946133
 30
0.0
 11
87.8890593841
 21
203.0256946133
 31
0.0
  0
LINE
  5
426
330
20B
100
AcDbEntity
  8
03___PRT_ALL_CURVES
  6
Continuous
 62
    40
100
AcDbLine
 10
88.92905938410001
 20
203.0256946133
 30
0.0
 11
90.42905938409999
 21
203.0256946133
 31
0.0
  0
LINE
  5
427
330
20B
100
AcDbEntity
  8
03___PRT_ALL_CURVES
  6
Continuous
 62
    40
100
AcDbLine
 10
91.46905938409998
 20
203.0256946133
 30
0.0
 11
92.96905938409999
 21
203.0256946133
 31
0.0
  0
LINE
  5
428
330
20B
100
AcDbEntity
  8
03___PRT_ALL_CURVES
  6
Continuous
 62
    40
100
AcDbLine
 10
94.0090593841
 20
203.0256946133
 30
0.0
 11
95.5090593841
 21
203.0256946133
 31
0.0
  0
LINE
  5
429
330
20B
100
AcDbEntity
  8
03___PRT_ALL_CURVES
  6
Continuous
 62
    40
100
AcDbLine
 10
96.54905938410001
 20
203.0256946133
 30
0.0
 11
98.04905938410001
 21
203.0256946133
 31
0.0
  0
LINE
  5
42A
330
20B
100
AcDbEntity
  8
03___PRT_ALL_CURVES
  6
Continuous
 62
    40
100
AcDbLine
 10
99.08905938410001
 20
203.0256946133
 30
0.0
 11
100.5890593841
 21
203.0256946133
 31
0.0
  0
LINE
  5
42B
330
20B
100
AcDbEntity
  8
03___PRT_ALL_CURVES
  6
Continuous
 62
    40
100
AcDbLine
 10
101.6290593841
 20
203.0256946133
 30
0.0
 11
103.1290593841
 21
203.0256946133
 31
0.0
  0
LINE
  5
42C
330
20B
100
AcDbEntity
  8
03___PRT_ALL_CURVES
  6
Continuous
 62
    40
100
AcDbLine
 10
113.9290593841
 20
203.0256946133
 30
0.0
 11
115.4290593841
 21
203.0256946133
 31
0.0
  0
LINE
  5
42D
330
20B
100
AcDbEntity
  8
03___PRT_ALL_CURVES
  6
Continuous
 62
    40
100
AcDbLine
 10
116.4690593841
 20
203.0256946133
 30
0.0
 11
117.9690593841
 21
203.0256946133
 31
0.0
  0
LINE
  5
42E
330
20B
100
AcDbEntity
  8
03___PRT_ALL_CURVES
  6
Continuous
 62
    40
100
AcDbLine
 10
119.0090593841
 20
203.0256946133
 30
0.0
 11
120.5090593841
 21
203.0256946133
 31
0.0
  0
LINE
  5
42F
330
20B
100
AcDbEntity
  8
03___PRT_ALL_CURVES
  6
Continuous
 62
    40
100
AcDbLine
 10
121.5490593841
 20
203.0256946133
 30
0.0
 11
123.0490593841
 21
203.0256946133
 31
0.0
  0
LINE
  5
430
330
20B
100
AcDbEntity
  8
03___PRT_ALL_CURVES
  6
Continuous
 62
    40
100
AcDbLine
 10
124.0890593841
 20
203.0256946133
 30
0.0
 11
125.5890593841
 21
203.0256946133
 31
0.0
  0
LINE
  5
431
330
20B
100
AcDbEntity
  8
03___PRT_ALL_CURVES
  6
Continuous
 62
    40
100
AcDbLine
 10
126.6290593841
 20
203.0256946133
 30
0.0
 11
128.1290593841
 21
203.0256946133
 31
0.0
  0
LINE
  5
432
330
20B
100
AcDbEntity
  8
03___PRT_ALL_CURVES
  6
Continuous
 62
    40
100
AcDbLine
 10
129.1690593841
 20
203.0256946133
 30
0.0
 11
130.6690593841
 21
203.0256946133
 31
0.0
  0
LINE
  5
433
330
20B
100
AcDbEntity
  8
03___PRT_ALL_CURVES
  6
Continuous
 62
    40
100
AcDbLine
 10
131.7090593841
 20
203.0256946133
 30
0.0
 11
133.2090593841
 21
203.0256946133
 31
0.0
  0
LINE
  5
434
330
20B
100
AcDbEntity
  8
03___PRT_ALL_CURVES
  6
Continuous
 62
    40
100
AcDbLine
 10
134.2490593841
 20
203.0256946133
 30
0.0
 11
135.7490593841
 21
203.0256946133
 31
0.0
  0
LINE
  5
435
330
20B
100
AcDbEntity
  8
03___PRT_ALL_CURVES
  6
Continuous
 62
    40
100
AcDbLine
 10
136.7890593841
 20
203.0256946133
 30
0.0
 11
138.2890593841
 21
203.0256946133
 31
0.0
  0
LINE
  5
436
330
20B
100
AcDbEntity
  8
03___PRT_ALL_CURVES
  6
Continuous
 62
    40
100
AcDbLine
 10
139.3290593841
 20
203.0256946133
 30
0.0
 11
140.8290593841
 21
203.0256946133
 31
0.0
  0
LINE
  5
437
330
20B
100
AcDbEntity
  8
03___PRT_ALL_CURVES
  6
Continuous
 62
    40
100
AcDbLine
 10
141.8690593841
 20
203.0256946133
 30
0.0
 11
143.3690593841
 21
203.0256946133
 31
0.0
  0
LINE
  5
438
330
20B
100
AcDbEntity
  8
03___PRT_ALL_CURVES
  6
Continuous
 62
    40
100
AcDbLine
 10
143.3690593841
 20
205.6256946133
 30
0.0
 11
141.8690593841
 21
205.6256946133
 31
0.0
  0
LINE
  5
439
330
20B
100
AcDbEntity
  8
03___PRT_ALL_CURVES
  6
Continuous
 62
    40
100
AcDbLine
 10
140.8290593841
 20
205.6256946133
 30
0.0
 11
139.3290593841
 21
205.6256946133
 31
0.0
  0
LINE
  5
43A
330
20B
100
AcDbEntity
  8
03___PRT_ALL_CURVES
  6
Continuous
 62
    40
100
AcDbLine
 10
138.2890593841
 20
205.6256946133
 30
0.0
 11
136.7890593841
 21
205.6256946133
 31
0.0
  0
LINE
  5
43B
330
20B
100
AcDbEntity
  8
03___PRT_ALL_CURVES
  6
Continuous
 62
    40
100
AcDbLine
 10
135.7490593841
 20
205.6256946133
 30
0.0
 11
134.2490593841
 21
205.6256946133
 31
0.0
  0
LINE
  5
43C
330
20B
100
AcDbEntity
  8
03___PRT_ALL_CURVES
  6
Continuous
 62
    40
100
AcDbLine
 10
133.2090593841
 20
205.6256946133
 30
0.0
 11
131.7090593841
 21
205.6256946133
 31
0.0
  0
LINE
  5
43D
330
20B
100
AcDbEntity
  8
03___PRT_ALL_CURVES
  6
Continuous
 62
    40
100
AcDbLine
 10
130.6690593841
 20
205.6256946133
 30
0.0
 11
129.1690593841
 21
205.6256946133
 31
0.0
  0
LINE
  5
43E
330
20B
100
AcDbEntity
  8
03___PRT_ALL_CURVES
  6
Continuous
 62
    40
100
AcDbLine
 10
128.1290593841
 20
205.6256946133
 30
0.0
 11
126.6290593841
 21
205.6256946133
 31
0.0
  0
LINE
  5
43F
330
20B
100
AcDbEntity
  8
03___PRT_ALL_CURVES
  6
Continuous
 62
    40
100
AcDbLine
 10
125.5890593841
 20
205.6256946133
 30
0.0
 11
124.0890593841
 21
205.6256946133
 31
0.0
  0
LINE
  5
440
330
20B
100
AcDbEntity
  8
03___PRT_ALL_CURVES
  6
Continuous
 62
    40
100
AcDbLine
 10
123.0490593841
 20
205.6256946133
 30
0.0
 11
121.5490593841
 21
205.6256946133
 31
0.0
  0
LINE
  5
441
330
20B
100
AcDbEntity
  8
03___PRT_ALL_CURVES
  6
Continuous
 62
    40
100
AcDbLine
 10
120.5090593841
 20
205.6256946133
 30
0.0
 11
119.0090593841
 21
205.6256946133
 31
0.0
  0
LINE
  5
442
330
20B
100
AcDbEntity
  8
03___PRT_ALL_CURVES
  6
Continuous
 62
    40
100
AcDbLine
 10
117.9690593841
 20
205.6256946133
 30
0.0
 11
116.4690593841
 21
205.6256946133
 31
0.0
  0
LINE
  5
443
330
20B
100
AcDbEntity
  8
03___PRT_ALL_CURVES
  6
Continuous
 62
    40
100
AcDbLine
 10
115.4290593841
 20
205.6256946133
 30
0.0
 11
113.9290593841
 21
205.6256946133
 31
0.0
  0
LINE
  5
444
330
20B
100
AcDbEntity
  8
03___PRT_ALL_CURVES
  6
Continuous
 62
    40
100
AcDbLine
 10
103.1290593841
 20
205.6256946133
 30
0.0
 11
101.6290593841
 21
205.6256946133
 31
0.0
  0
LINE
  5
445
330
20B
100
AcDbEntity
  8
03___PRT_ALL_CURVES
  6
Continuous
 62
    40
100
AcDbLine
 10
100.5890593841
 20
205.6256946133
 30
0.0
 11
99.08905938410001
 21
205.6256946133
 31
0.0
  0
LINE
  5
446
330
20B
100
AcDbEntity
  8
03___PRT_ALL_CURVES
  6
Continuous
 62
    40
100
AcDbLine
 10
98.04905938410001
 20
205.6256946133
 30
0.0
 11
96.54905938410001
 21
205.6256946133
 31
0.0
  0
LINE
  5
447
330
20B
100
AcDbEntity
  8
03___PRT_ALL_CURVES
  6
Continuous
 62
    40
100
AcDbLine
 10
95.5090593841
 20
205.6256946133
 30
0.0
 11
94.0090593841
 21
205.6256946133
 31
0.0
  0
LINE
  5
448
330
20B
100
AcDbEntity
  8
03___PRT_ALL_CURVES
  6
Continuous
 62
    40
100
AcDbLine
 10
92.96905938409999
 20
205.6256946133
 30
0.0
 11
91.46905938409998
 21
205.6256946133
 31
0.0
  0
LINE
  5
449
330
20B
100
AcDbEntity
  8
03___PRT_ALL_CURVES
  6
Continuous
 62
    40
100
AcDbLine
 10
90.42905938409999
 20
205.6256946133
 30
0.0
 11
88.92905938410001
 21
205.6256946133
 31
0.0
  0
LINE
  5
44A
330
20B
100
AcDbEntity
  8
03___PRT_ALL_CURVES
  6
Continuous
 62
    40
100
AcDbLine
 10
87.8890593841
 20
205.6256946133
 30
0.0
 11
86.38905938409999
 21
205.6256946133
 31
0.0
  0
LINE
  5
44B
330
20B
100
AcDbEntity
  8
03___PRT_ALL_CURVES
  6
Continuous
 62
    40
100
AcDbLine
 10
85.3490593841
 20
205.6256946133
 30
0.0
 11
83.8490593841
 21
205.6256946133
 31
0.0
  0
LINE
  5
44C
330
20B
100
AcDbEntity
  8
03___PRT_ALL_CURVES
  6
Continuous
 62
    40
100
AcDbLine
 10
82.80905938409999
 20
205.6256946133
 30
0.0
 11
81.3090593841
 21
205.6256946133
 31
0.0
  0
LINE
  5
44D
330
20B
100
AcDbEntity
  8
03___PRT_ALL_CURVES
  6
Continuous
 62
    40
100
AcDbLine
 10
80.26905938410001
 20
205.6256946133
 30
0.0
 11
78.76905938410001
 21
205.6256946133
 31
0.0
  0
LINE
  5
44E
330
20B
100
AcDbEntity
  8
03___PRT_ALL_CURVES
  6
Continuous
 62
    40
100
AcDbLine
 10
77.7290593841
 20
205.6256946133
 30
0.0
 11
76.22905938409999
 21
205.6256946133
 31
0.0
  0
LINE
  5
44F
330
20B
100
AcDbEntity
  8
03___PRT_ALL_CURVES
  6
Continuous
 62
    40
100
AcDbLine
 10
75.1890593841
 20
205.6256946133
 30
0.0
 11
73.68905938410001
 21
205.6256946133
 31
0.0
  0
LINE
  5
450
330
20B
100
AcDbEntity
  8
02___PRT_ALL_AXES
  6
Continuous
 62
     7
100
AcDbLine
 10
148.1501858872
 20
224.7102015935
 30
0.0
 11
148.5501858872
 21
224.7902905884
 31
0.0
  0
LINE
  5
451
330
20B
100
AcDbEntity
  8
02___PRT_ALL_AXES
  6
Continuous
 62
     7
100
AcDbLine
 10
148.2556970415
 20
226.2610986383
 30
0.0
 11
147.8556970415
 21
226.1810096435
 31
0.0
  0
LINE
  5
452
330
20B
100
AcDbEntity
  8
03___PRT_ALL_CURVES
  6
Continuous
 62
    40
100
AcDbLine
 10
64.9890593841
 20
213.4656946133
 30
0.0
 11
67.58905938409999
 21
213.4656946133
 31
0.0
  0
LINE
  5
453
330
20B
100
AcDbEntity
  8
03___PRT_ALL_CURVES
  6
Continuous
 62
    40
100
AcDbLine
 10
67.58905938409999
 20
214.9656946133
 30
0.0
 11
64.9890593841
 21
214.9656946133
 31
0.0
  0
LINE
  5
454
330
20B
100
AcDbEntity
  8
03___PRT_ALL_CURVES
  6
Continuous
 62
    40
100
AcDbLine
 10
64.9890593841
 20
216.0056946133
 30
0.0
 11
67.58905938409999
 21
216.0056946133
 31
0.0
  0
LINE
  5
455
330
20B
100
AcDbEntity
  8
03___PRT_ALL_CURVES
  6
Continuous
 62
    40
100
AcDbLine
 10
152.0690593841
 20
216.5256946133
 30
0.0
 11
149.3690593841
 21
216.5256946133
 31
0.0
  0
LINE
  5
456
330
20B
100
AcDbEntity
  8
03___PRT_ALL_CURVES
  6
Continuous
 62
    40
100
AcDbLine
 10
67.58905938409999
 20
217.5056946133
 30
0.0
 11
64.9890593841
 21
217.5056946133
 31
0.0
  0
LINE
  5
457
330
20B
100
AcDbEntity
  8
03___PRT_ALL_CURVES
  6
Continuous
 62
    40
100
AcDbLine
 10
64.9890593841
 20
218.5456946133
 30
0.0
 11
67.58905938409999
 21
218.5456946133
 31
0.0
  0
LINE
  5
458
330
20B
100
AcDbEntity
  8
03___PRT_ALL_CURVES
  6
Continuous
 62
    40
100
AcDbLine
 10
149.3690593841
 20
219.5256946133
 30
0.0
 11
152.0690593841
 21
219.5256946133
 31
0.0
  0
LINE
  5
459
330
20B
100
AcDbEntity
  8
03___PRT_ALL_CURVES
  6
Continuous
 62
    40
100
AcDbLine
 10
67.58905938409999
 20
220.0456946133
 30
0.0
 11
64.9890593841
 21
220.0456946133
 31
0.0
  0
LINE
  5
45A
330
20B
100
AcDbEntity
  8
03___PRT_ALL_CURVES
  6
Continuous
 62
    40
100
AcDbLine
 10
64.9890593841
 20
221.0856946133
 30
0.0
 11
67.58905938409999
 21
221.0856946133
 31
0.0
  0
LINE
  5
45B
330
20B
100
AcDbEntity
  8
03___PRT_ALL_CURVES
  6
Continuous
 62
    40
100
AcDbLine
 10
67.58905938409999
 20
222.5856946133
 30
0.0
 11
64.9890593841
 21
222.5856946133
 31
0.0
  0
LINE
  5
45C
330
20B
100
AcDbEntity
  8
03___PRT_ALL_CURVES
  6
Continuous
 62
    40
100
AcDbLine
 10
143.3690593841
 20
230.4256946133
 30
0.0
 11
141.8690593841
 21
230.4256946133
 31
0.0
  0
LINE
  5
45D
330
20B
100
AcDbEntity
  8
03___PRT_ALL_CURVES
  6
Continuous
 62
    40
100
AcDbLine
 10
140.8290593841
 20
230.4256946133
 30
0.0
 11
139.3290593841
 21
230.4256946133
 31
0.0
  0
LINE
  5
45E
330
20B
100
AcDbEntity
  8
03___PRT_ALL_CURVES
  6
Continuous
 62
    40
100
AcDbLine
 10
138.2890593841
 20
230.4256946133
 30
0.0
 11
136.7890593841
 21
230.4256946133
 31
0.0
  0
LINE
  5
45F
330
20B
100
AcDbEntity
  8
03___PRT_ALL_CURVES
  6
Continuous
 62
    40
100
AcDbLine
 10
135.7490593841
 20
230.4256946133
 30
0.0
 11
134.2490593841
 21
230.4256946133
 31
0.0
  0
LINE
  5
460
330
20B
100
AcDbEntity
  8
03___PRT_ALL_CURVES
  6
Continuous
 62
    40
100
AcDbLine
 10
133.2090593841
 20
230.4256946133
 30
0.0
 11
131.7090593841
 21
230.4256946133
 31
0.0
  0
LINE
  5
461
330
20B
100
AcDbEntity
  8
03___PRT_ALL_CURVES
  6
Continuous
 62
    40
100
AcDbLine
 10
130.6690593841
 20
230.4256946133
 30
0.0
 11
129.1690593841
 21
230.4256946133
 31
0.0
  0
LINE
  5
462
330
20B
100
AcDbEntity
  8
03___PRT_ALL_CURVES
  6
Continuous
 62
    40
100
AcDbLine
 10
128.1290593841
 20
230.4256946133
 30
0.0
 11
126.6290593841
 21
230.4256946133
 31
0.0
  0
LINE
  5
463
330
20B
100
AcDbEntity
  8
03___PRT_ALL_CURVES
  6
Continuous
 62
    40
100
AcDbLine
 10
125.5890593841
 20
230.4256946133
 30
0.0
 11
124.0890593841
 21
230.4256946133
 31
0.0
  0
LINE
  5
464
330
20B
100
AcDbEntity
  8
03___PRT_ALL_CURVES
  6
Continuous
 62
    40
100
AcDbLine
 10
123.0490593841
 20
230.4256946133
 30
0.0
 11
121.5490593841
 21
230.4256946133
 31
0.0
  0
LINE
  5
465
330
20B
100
AcDbEntity
  8
03___PRT_ALL_CURVES
  6
Continuous
 62
    40
100
AcDbLine
 10
120.5090593841
 20
230.4256946133
 30
0.0
 11
119.0090593841
 21
230.4256946133
 31
0.0
  0
LINE
  5
466
330
20B
100
AcDbEntity
  8
03___PRT_ALL_CURVES
  6
Continuous
 62
    40
100
AcDbLine
 10
117.9690593841
 20
230.4256946133
 30
0.0
 11
116.4690593841
 21
230.4256946133
 31
0.0
  0
LINE
  5
467
330
20B
100
AcDbEntity
  8
03___PRT_ALL_CURVES
  6
Continuous
 62
    40
100
AcDbLine
 10
115.4290593841
 20
230.4256946133
 30
0.0
 11
113.9290593841
 21
230.4256946133
 31
0.0
  0
LINE
  5
468
330
20B
100
AcDbEntity
  8
03___PRT_ALL_CURVES
  6
Continuous
 62
    40
100
AcDbLine
 10
103.1290593841
 20
230.4256946133
 30
0.0
 11
101.6290593841
 21
230.4256946133
 31
0.0
  0
LINE
  5
469
330
20B
100
AcDbEntity
  8
03___PRT_ALL_CURVES
  6
Continuous
 62
    40
100
AcDbLine
 10
100.5890593841
 20
230.4256946133
 30
0.0
 11
99.08905938410001
 21
230.4256946133
 31
0.0
  0
LINE
  5
46A
330
20B
100
AcDbEntity
  8
03___PRT_ALL_CURVES
  6
Continuous
 62
    40
100
AcDbLine
 10
98.04905938410001
 20
230.4256946133
 30
0.0
 11
96.54905938410001
 21
230.4256946133
 31
0.0
  0
LINE
  5
46B
330
20B
100
AcDbEntity
  8
03___PRT_ALL_CURVES
  6
Continuous
 62
    40
100
AcDbLine
 10
95.5090593841
 20
230.4256946133
 30
0.0
 11
94.0090593841
 21
230.4256946133
 31
0.0
  0
LINE
  5
46C
330
20B
100
AcDbEntity
  8
03___PRT_ALL_CURVES
  6
Continuous
 62
    40
100
AcDbLine
 10
92.96905938409999
 20
230.4256946133
 30
0.0
 11
91.46905938409998
 21
230.4256946133
 31
0.0
  0
LINE
  5
46D
330
20B
100
AcDbEntity
  8
03___PRT_ALL_CURVES
  6
Continuous
 62
    40
100
AcDbLine
 10
90.42905938409999
 20
230.4256946133
 30
0.0
 11
88.92905938410001
 21
230.4256946133
 31
0.0
  0
LINE
  5
46E
330
20B
100
AcDbEntity
  8
03___PRT_ALL_CURVES
  6
Continuous
 62
    40
100
AcDbLine
 10
87.8890593841
 20
230.4256946133
 30
0.0
 11
86.38905938409999
 21
230.4256946133
 31
0.0
  0
LINE
  5
46F
330
20B
100
AcDbEntity
  8
03___PRT_ALL_CURVES
  6
Continuous
 62
    40
100
AcDbLine
 10
85.3490593841
 20
230.4256946133
 30
0.0
 11
83.8490593841
 21
230.4256946133
 31
0.0
  0
LINE
  5
470
330
20B
100
AcDbEntity
  8
03___PRT_ALL_CURVES
  6
Continuous
 62
    40
100
AcDbLine
 10
82.80905938409999
 20
230.4256946133
 30
0.0
 11
81.3090593841
 21
230.4256946133
 31
0.0
  0
LINE
  5
471
330
20B
100
AcDbEntity
  8
03___PRT_ALL_CURVES
  6
Continuous
 62
    40
100
AcDbLine
 10
80.26905938410001
 20
230.4256946133
 30
0.0
 11
78.76905938410001
 21
230.4256946133
 31
0.0
  0
LINE
  5
472
330
20B
100
AcDbEntity
  8
03___PRT_ALL_CURVES
  6
Continuous
 62
    40
100
AcDbLine
 10
77.7290593841
 20
230.4256946133
 30
0.0
 11
76.22905938409999
 21
230.4256946133
 31
0.0
  0
LINE
  5
473
330
20B
100
AcDbEntity
  8
03___PRT_ALL_CURVES
  6
Continuous
 62
    40
100
AcDbLine
 10
75.1890593841
 20
230.4256946133
 30
0.0
 11
73.68905938410001
 21
230.4256946133
 31
0.0
  0
LINE
  5
474
330
20B
100
AcDbEntity
  8
0
  6
Continuous
 62
     7
100
AcDbLine
 10
66.9890593841
 20
233.0256946133
 30
0.0
 11
150.0690593841
 21
233.0256946133
 31
0.0
  0
LINE
  5
475
330
20B
100
AcDbEntity
  8
03___PRT_ALL_CURVES
  6
Continuous
 62
    40
100
AcDbLine
 10
73.68905938410001
 20
233.0256946133
 30
0.0
 11
75.1890593841
 21
233.0256946133
 31
0.0
  0
LINE
  5
476
330
20B
100
AcDbEntity
  8
03___PRT_ALL_CURVES
  6
Continuous
 62
    40
100
AcDbLine
 10
76.22905938409999
 20
233.0256946133
 30
0.0
 11
77.7290593841
 21
233.0256946133
 31
0.0
  0
LINE
  5
477
330
20B
100
AcDbEntity
  8
03___PRT_ALL_CURVES
  6
Continuous
 62
    40
100
AcDbLine
 10
78.76905938410001
 20
233.0256946133
 30
0.0
 11
80.26905938410001
 21
233.0256946133
 31
0.0
  0
LINE
  5
478
330
20B
100
AcDbEntity
  8
03___PRT_ALL_CURVES
  6
Continuous
 62
    40
100
AcDbLine
 10
81.3090593841
 20
233.0256946133
 30
0.0
 11
82.80905938409999
 21
233.0256946133
 31
0.0
  0
LINE
  5
479
330
20B
100
AcDbEntity
  8
03___PRT_ALL_CURVES
  6
Continuous
 62
    40
100
AcDbLine
 10
83.8490593841
 20
233.0256946133
 30
0.0
 11
85.3490593841
 21
233.0256946133
 31
0.0
  0
LINE
  5
47A
330
20B
100
AcDbEntity
  8
03___PRT_ALL_CURVES
  6
Continuous
 62
    40
100
AcDbLine
 10
86.38905938409999
 20
233.0256946133
 30
0.0
 11
87.8890593841
 21
233.0256946133
 31
0.0
  0
LINE
  5
47B
330
20B
100
AcDbEntity
  8
03___PRT_ALL_CURVES
  6
Continuous
 62
    40
100
AcDbLine
 10
88.92905938410001
 20
233.0256946133
 30
0.0
 11
90.42905938409999
 21
233.0256946133
 31
0.0
  0
LINE
  5
47C
330
20B
100
AcDbEntity
  8
03___PRT_ALL_CURVES
  6
Continuous
 62
    40
100
AcDbLine
 10
91.46905938409998
 20
233.0256946133
 30
0.0
 11
92.96905938409999
 21
233.0256946133
 31
0.0
  0
LINE
  5
47D
330
20B
100
AcDbEntity
  8
03___PRT_ALL_CURVES
  6
Continuous
 62
    40
100
AcDbLine
 10
94.0090593841
 20
233.0256946133
 30
0.0
 11
95.5090593841
 21
233.0256946133
 31
0.0
  0
LINE
  5
47E
330
20B
100
AcDbEntity
  8
03___PRT_ALL_CURVES
  6
Continuous
 62
    40
100
AcDbLine
 10
96.54905938410001
 20
233.0256946133
 30
0.0
 11
98.04905938410001
 21
233.0256946133
 31
0.0
  0
LINE
  5
47F
330
20B
100
AcDbEntity
  8
03___PRT_ALL_CURVES
  6
Continuous
 62
    40
100
AcDbLine
 10
99.08905938410001
 20
233.0256946133
 30
0.0
 11
100.5890593841
 21
233.0256946133
 31
0.0
  0
LINE
  5
480
330
20B
100
AcDbEntity
  8
03___PRT_ALL_CURVES
  6
Continuous
 62
    40
100
AcDbLine
 10
101.6290593841
 20
233.0256946133
 30
0.0
 11
103.1290593841
 21
233.0256946133
 31
0.0
  0
LINE
  5
481
330
20B
100
AcDbEntity
  8
03___PRT_ALL_CURVES
  6
Continuous
 62
    40
100
AcDbLine
 10
113.9290593841
 20
233.0256946133
 30
0.0
 11
115.4290593841
 21
233.0256946133
 31
0.0
  0
LINE
  5
482
330
20B
100
AcDbEntity
  8
03___PRT_ALL_CURVES
  6
Continuous
 62
    40
100
AcDbLine
 10
116.4690593841
 20
233.0256946133
 30
0.0
 11
117.9690593841
 21
233.0256946133
 31
0.0
  0
LINE
  5
483
330
20B
100
AcDbEntity
  8
03___PRT_ALL_CURVES
  6
Continuous
 62
    40
100
AcDbLine
 10
119.0090593841
 20
233.0256946133
 30
0.0
 11
120.5090593841
 21
233.0256946133
 31
0.0
  0
LINE
  5
484
330
20B
100
AcDbEntity
  8
03___PRT_ALL_CURVES
  6
Continuous
 62
    40
100
AcDbLine
 10
121.5490593841
 20
233.0256946133
 30
0.0
 11
123.0490593841
 21
233.0256946133
 31
0.0
  0
LINE
  5
485
330
20B
100
AcDbEntity
  8
03___PRT_ALL_CURVES
  6
Continuous
 62
    40
100
AcDbLine
 10
124.0890593841
 20
233.0256946133
 30
0.0
 11
125.5890593841
 21
233.0256946133
 31
0.0
  0
LINE
  5
486
330
20B
100
AcDbEntity
  8
03___PRT_ALL_CURVES
  6
Continuous
 62
    40
100
AcDbLine
 10
126.6290593841
 20
233.0256946133
 30
0.0
 11
128.1290593841
 21
233.0256946133
 31
0.0
  0
LINE
  5
487
330
20B
100
AcDbEntity
  8
03___PRT_ALL_CURVES
  6
Continuous
 62
    40
100
AcDbLine
 10
129.1690593841
 20
233.0256946133
 30
0.0
 11
130.6690593841
 21
233.0256946133
 31
0.0
  0
LINE
  5
488
330
20B
100
AcDbEntity
  8
03___PRT_ALL_CURVES
  6
Continuous
 62
    40
100
AcDbLine
 10
131.7090593841
 20
233.0256946133
 30
0.0
 11
133.2090593841
 21
233.0256946133
 31
0.0
  0
LINE
  5
489
330
20B
100
AcDbEntity
  8
03___PRT_ALL_CURVES
  6
Continuous
 62
    40
100
AcDbLine
 10
134.2490593841
 20
233.0256946133
 30
0.0
 11
135.7490593841
 21
233.0256946133
 31
0.0
  0
LINE
  5
48A
330
20B
100
AcDbEntity
  8
03___PRT_ALL_CURVES
  6
Continuous
 62
    40
100
AcDbLine
 10
136.7890593841
 20
233.0256946133
 30
0.0
 11
138.2890593841
 21
233.0256946133
 31
0.0
  0
LINE
  5
48B
330
20B
100
AcDbEntity
  8
03___PRT_ALL_CURVES
  6
Continuous
 62
    40
100
AcDbLine
 10
139.3290593841
 20
233.0256946133
 30
0.0
 11
140.8290593841
 21
233.0256946133
 31
0.0
  0
LINE
  5
48C
330
20B
100
AcDbEntity
  8
03___PRT_ALL_CURVES
  6
Continuous
 62
    40
100
AcDbLine
 10
141.8690593841
 20
233.0256946133
 30
0.0
 11
143.3690593841
 21
233.0256946133
 31
0.0
  0
CIRCLE
  5
77C
330
20B
100
AcDbEntity
  8
03___PRT_ALL_CURVES
  6
Continuous
 62
    40
100
AcDbCircle
 10
67.9890593841
 20
206.0256946133
 30
0.0
 40
2.5
  0
ARC
  5
77D
330
20B
100
AcDbEntity
  8
0
  6
Continuous
 62
     7
100
AcDbCircle
 10
66.9890593841
 20
205.0256946133
 30
0.0
 40
2.0
100
AcDbArc
 50
180.0
 51
270.0
  0
CIRCLE
  5
77E
330
20B
100
AcDbEntity
  8
02___PRT_ALL_AXES
  6
Continuous
 62
     7
100
AcDbCircle
 10
67.9890593841
 20
206.0256946133
 30
0.0
 40
1.3
  0
CIRCLE
  5
77F
330
20B
100
AcDbEntity
  8
03___PRT_ALL_CURVES
  6
Continuous
 62
    40
100
AcDbCircle
 10
67.9890593841
 20
206.0256946133
 30
0.0
 40
1.3
  0
CIRCLE
  5
780
330
20B
100
AcDbEntity
  8
02___PRT_ALL_AXES
  6
Continuous
 62
     7
100
AcDbCircle
 10
70.9890593841
 20
210.0256946133
 30
0.0
 40
0.75
  0
CIRCLE
  5
781
330
20B
100
AcDbEntity
  8
03___PRT_ALL_CURVES
  6
Continuous
 62
    40
100
AcDbCircle
 10
67.9890593841
 20
230.0256946133
 30
0.0
 40
2.5
  0
ARC
  5
782
330
20B
100
AcDbEntity
  8
0
  6
Continuous
 62
     7
100
AcDbCircle
 10
66.9890593841
 20
231.0256946133
 30
0.0
 40
2.0
100
AcDbArc
 50
90.0
 51
180.0
  0
CIRCLE
  5
783
330
20B
100
AcDbEntity
  8
02___PRT_ALL_AXES
  6
Continuous
 62
     7
100
AcDbCircle
 10
67.9890593841
 20
230.0256946133
 30
0.0
 40
1.3
  0
CIRCLE
  5
784
330
20B
100
AcDbEntity
  8
03___PRT_ALL_CURVES
  6
Continuous
 62
    40
100
AcDbCircle
 10
67.9890593841
 20
230.0256946133
 30
0.0
 40
1.3
  0
CIRCLE
  5
785
330
20B
100
AcDbEntity
  8
03___PRT_ALL_CURVES
  6
Continuous
 62
    40
100
AcDbCircle
 10
149.0690593841
 20
206.0256946133
 30
0.0
 40
2.5
  0
ARC
  5
786
330
20B
100
AcDbEntity
  8
0
  6
Continuous
 62
     7
100
AcDbCircle
 10
150.0690593841
 20
205.0256946133
 30
0.0
 40
2.0
100
AcDbArc
 50
270.0
 51
360.0
  0
CIRCLE
  5
787
330
20B
100
AcDbEntity
  8
02___PRT_ALL_AXES
  6
Continuous
 62
     7
100
AcDbCircle
 10
149.0690593841
 20
206.0256946133
 30
0.0
 40
1.3
  0
CIRCLE
  5
788
330
20B
100
AcDbEntity
  8
03___PRT_ALL_CURVES
  6
Continuous
 62
    40
100
AcDbCircle
 10
149.0690593841
 20
206.0256946133
 30
0.0
 40
1.3
  0
CIRCLE
  5
789
330
20B
100
AcDbEntity
  8
03___PRT_ALL_CURVES
  6
Continuous
 62
    40
100
AcDbCircle
 10
149.0690593841
 20
230.0256946133
 30
0.0
 40
2.5
  0
ARC
  5
78A
330
20B
100
AcDbEntity
  8
0
  6
Continuous
 62
     7
100
AcDbCircle
 10
150.0690593841
 20
231.0256946133
 30
0.0
 40
2.0
100
AcDbArc
 50
0.0
 51
90.0
  0
CIRCLE
  5
78B
330
20B
100
AcDbEntity
  8
02___PRT_ALL_AXES
  6
Continuous
 62
     7
100
AcDbCircle
 10
149.0690593841
 20
230.0256946133
 30
0.0
 40
1.3
  0
CIRCLE
  5
78C
330
20B
100
AcDbEntity
  8
03___PRT_ALL_CURVES
  6
Continuous
 62
    40
100
AcDbCircle
 10
149.0690593841
 20
230.0256946133
 30
0.0
 40
1.3
  0
ARC
  5
78D
330
20B
100
AcDbEntity
  8
02___PRT_ALL_AXES
  6
Continuous
 62
     7
100
AcDbCircle
 10
148.0029414644
 20
225.4456056185
 30
0.0
 40
0.75
100
AcDbArc
 50
101.3221892257
 51
281.3221892256
  0
ARC
  5
78E
330
20B
100
AcDbEntity
  8
02___PRT_ALL_AXES
  6
Continuous
 62
     7
100
AcDbCircle
 10
148.4029414644
 20
225.5256946133
 30
0.0
 40
0.75
100
AcDbArc
 50
281.3221892257
 51
101.3221892256
  0
ENDSEC
  0
SECTION
  2
OBJECTS
  0
DICTIONARY
  5
C
330
0
100
AcDbDictionary
281
     1
  3
ACAD_CIP_PREVIOUS_PRODUCT_INFO
350
821
  3
ACAD_COLOR
350
803
  3
ACAD_DETAILVIEWSTYLE
350
81A
  3
ACAD_GROUP
350
D
  3
ACAD_LAYOUT
350
1A
  3
ACAD_MATERIAL
350
7D1
  3
ACAD_MLEADERSTYLE
350
816
  3
ACAD_MLINESTYLE
350
17
  3
ACAD_PLOTSETTINGS
350
19
  3
ACAD_PLOTSTYLENAME
350
E
  3
ACAD_SCALELIST
350
804
  3
ACAD_SECTIONVIEWSTYLE
350
818
  3
ACAD_TABLESTYLE
350
7C9
  3
ACAD_VISUALSTYLE
350
7EA
  3
ACDB_RECOMPOSE_DATA
350
83C
  3
AcDbVariableDictionary
350
822
  0
XRECORD
  5
821
102
{ACAD_REACTORS
330
C
102
}
330
C
100
AcDbXrecord
280
     1
300
ACD
300
2023
300

  0
DICTIONARY
  5
803
102
{ACAD_REACTORS
330
C
102
}
330
C
100
AcDbDictionary
281
     1
  0
DICTIONARY
  5
81A
102
{ACAD_REACTORS
330
C
102
}
330
C
100
AcDbDictionary
281
     1
  3
Metric50
350
81B
  0
DICTIONARY
  5
D
102
{ACAD_REACTORS
330
C
102
}
330
C
100
AcDbDictionary
281
     1
  0
DICTIONARY
  5
1A
102
{ACAD_REACTORS
330
C
102
}
330
C
100
AcDbDictionary
281
     1
  3
Layout1
350
7CB
  3
Model
350
7CA
  0
DICTIONARY
  5
7D1
102
{ACAD_REACTORS
330
C
102
}
330
C
100
AcDbDictionary
281
     1
  3
ByBlock
350
7DA
  3
ByLayer
350
7D2
  3
Global
350
7E2
  0
DICTIONARY
  5
816
102
{ACAD_REACTORS
330
C
102
}
330
C
100
AcDbDictionary
281
     1
  3
Standard
350
817
  0
DICTIONARY
  5
17
102
{ACAD_REACTORS
330
C
102
}
330
C
100
AcDbDictionary
281
     1
  3
Standard
350
18
  0
DICTIONARY
  5
19
102
{ACAD_REACTORS
330
C
102
}
330
C
100
AcDbDictionary
281
     1
  0
ACDBDICTIONARYWDFLT
  5
E
102
{ACAD_REACTORS
330
C
102
}
330
C
100
AcDbDictionary
281
     1
  3
Normal
350
F
100
AcDbDictionaryWithDefault
340
F
  0
DICTIONARY
  5
804
102
{ACAD_REACTORS
330
C
102
}
330
C
100
AcDbDictionary
281
     1
  3
A0
350
805
  3
A1
350
806
  3
A2
350
807
  3
A3
350
808
  3
A4
350
809
  3
A5
350
80A
  3
A6
350
80B
  3
A7
350
80C
  3
A8
350
80D
  3
A9
350
80E
  3
B0
350
80F
  3
B1
350
810
  3
B2
350
811
  3
B3
350
812
  3
B4
350
813
  3
B5
350
814
  3
B6
350
815
  0
DICTIONARY
  5
818
102
{ACAD_REACTORS
330
C
102
}
330
C
100
AcDbDictionary
281
     1
  3
Metric50
350
819
  0
DICTIONARY
  5
7C9
330
C
100
AcDbDictionary
281
     1
  3
Standard
350
7CC
  3
Standard1
350
7CD
  0
DICTIONARY
  5
7EA
102
{ACAD_REACTORS
330
C
102
}
330
C
100
AcDbDictionary
281
     1
  3
2dWireframe
350
7F0
  3
Basic
350
7EF
  3
Brighten
350
7F6
  3
ColorChange
350
7FA
  3
Conceptual
350
7F3
  3
Dim
350
7F5
  3
EdgeColorOff
350
802
  3
Facepattern
350
7F9
  3
Flat
350
7EB
  3
FlatWithEdges
350
7EC
  3
Gouraud
350
7ED
  3
GouraudWithEdges
350
7EE
  3
Hidden
350
7F2
  3
JitterOff
350
800
  3
Linepattern
350
7F8
  3
OverhangOff
350
801
  3
Realistic
350
7F4
  3
Shaded
350
7FF
  3
Shaded with edges
350
7FE
  3
Shades of Gray
350
7FB
  3
Sketchy
350
7FC
  3
Thicken
350
7F7
  3
Wireframe
350
7F1
  3
X-Ray
350
7FD
  0
XRECORD
  5
83C
102
{ACAD_REACTORS
330
C
102
}
330
C
100
AcDbXrecord
280
     1
 90
        1
330
7CC
330
7CD
  0
DICTIONARY
  5
822
102
{ACAD_REACTORS
330
C
102
}
330
C
100
AcDbDictionary
281
     1
  3
CANNOSCALE
350
833
  3
CMLEADERSTYLE
350
82F
  3
CTABLESTYLE
350
82E
  3
CVIEWDETAILSTYLE
350
830
  3
CVIEWSECTIONSTYLE
350
831
  3
LAYEREVAL
350
835
  3
LAYERNOTIFY
350
836
  3
LIGHTINGUNITS
350
834
  3
MSLTSCALE
350
832
  0
ACDBDETAILVIEWSTYLE
  5
81B
102
{ACAD_XDICTIONARY
360
83F
102
}
102
{ACAD_REACTORS
330
81A
102
}
330
81A
100
AcDbModelDocViewStyle
 70
     0
  3
Metric50
290
     0
100
AcDbDetailViewStyle
 70
     0
 71
     0
 90
        3
 71
     1
340
11
 62
   256
 40
5.0
340
0
 62
   256
 40
5.0
300

 40
0.0
280
     1
 71
     2
340
16
 90
       25
 62
   256
 71
     3
340
11
 62
   256
 40
5.0
 90
        0
 40
15.0
 90
        1
300
%<\AcVar ViewDetailId>% (%<\AcVar ViewScale \f "%sn">%)
 71
     4
340
16
 90
       25
 62
   256
340
16
 90
       25
 62
   256
280
     0
  0
LAYOUT
  5
7CB
102
{ACAD_REACTORS
330
1A
102
}
330
1A
100
AcDbPlotSettings
  1

  2
none_device
  4
ISO_A3_(420.00_x_297.00_MM)
  6

 40
0.0
 41
0.0
 42
0.0
 43
0.0
 44
420.0
 45
297.0
 46
0.0
 47
0.0
 48
0.0
 49
0.0
140
0.0
141
0.0
142
1.0
143
1.0
 70
     0
 72
     1
 73
     0
 74
     0
  7

 75
     0
147
1.0
 76
     0
 77
     2
 78
   300
148
0.0
149
0.0
100
AcDbLayout
  1
Layout1
 70
     1
 71
     1
 10
0.0
 20
0.0
 11
12.0
 21
9.0
 12
0.0
 22
0.0
 32
0.0
 14
1.000000000000000E+20
 24
1.000000000000000E+20
 34
1.000000000000000E+20
 15
-1.000000000000000E+20
 25
-1.000000000000000E+20
 35
-1.000000000000000E+20
146
0.0
 13
0.0
 23
0.0
 33
0.0
 16
1.0
 26
0.0
 36
0.0
 17
0.0
 27
1.0
 37
0.0
 76
     0
330
20C
  0
LAYOUT
  5
7CA
102
{ACAD_REACTORS
330
1A
102
}
330
1A
100
AcDbPlotSettings
  1

  2
none_device
  4
ISO_A3_(420.00_x_297.00_MM)
  6

 40
0.0
 41
0.0
 42
0.0
 43
0.0
 44
420.0
 45
297.0
 46
0.0
 47
0.0
 48
0.0
 49
0.0
140
0.0
141
0.0
142
1.0
143
1.0
 70
  1024
 72
     1
 73
     0
 74
     0
  7

 75
     0
147
1.0
 76
     0
 77
     2
 78
   300
148
0.0
149
0.0
100
AcDbLayout
  1
Model
 70
     0
 71
     0
 10
0.0
 20
0.0
 11
420.0
 21
297.0
 12
0.0
 22
0.0
 32
0.0
 14
0.0
 24
0.0
 34
0.0
 15
0.0
 25
0.0
 35
0.0
146
0.0
 13
0.0
 23
0.0
 33
0.0
 16
1.0
 26
0.0
 36
0.0
 17
0.0
 27
1.0
 37
0.0
 76
     0
330
20B
331
1F4
  0
MATERIAL
  5
7DA
102
{ACAD_XDICTIONARY
360
7DB
102
}
102
{ACAD_REACTORS
330
7D1
102
}
330
7D1
100
AcDbMaterial
  1
ByBlock
 72
     0
 43
0.0008202099737533
 43
0.0
 43
0.0
 43
0.0
 43
0.0
 43
0.0008202099737533
 43
0.0
 43
0.0
 43
0.0
 43
0.0
 43
1.0
 43
0.0
 43
0.0
 43
0.0
 43
0.0
 43
1.0
 77
     0
 47
0.0008202099737533
 47
0.0
 47
0.0
 47
0.0
 47
0.0
 47
0.0008202099737533
 47
0.0
 47
0.0
 47
0.0
 47
0.0
 47
1.0
 47
0.0
 47
0.0
 47
0.0
 47
0.0
 47
1.0
171
     0
 49
0.0008202099737533
 49
0.0
 49
0.0
 49
0.0
 49
0.0
 49
0.0008202099737533
 49
0.0
 49
0.0
 49
0.0
 49
0.0
 49
1.0
 49
0.0
 49
0.0
 49
0.0
 49
0.0
 49
1.0
175
     0
142
0.0008202099737533
142
0.0
142
0.0
142
0.0
142
0.0
142
0.0008202099737533
142
0.0
142
0.0
142
0.0
142
0.0
142
1.0
142
0.0
142
0.0
142
0.0
142
0.0
142
1.0
179
     0
144
0.0008202099737533
144
0.0
144
0.0
144
0.0
144
0.0
144
0.0008202099737533
144
0.0
144
0.0
144
0.0
144
0.0
144
1.0
144
0.0
144
0.0
144
0.0
144
0.0
144
1.0
147
0.0008202099737533
147
0.0
147
0.0
147
0.0
147
0.0
147
0.0008202099737533
147
0.0
147
0.0
147
0.0
147
0.0
147
1.0
147
0.0
147
0.0
147
0.0
147
0.0
147
1.0
  0
MATERIAL
  5
7D2
102
{ACAD_XDICTIONARY
360
7D3
102
}
102
{ACAD_REACTORS
330
7D1
102
}
330
7D1
100
AcDbMaterial
  1
ByLayer
 72
     0
 43
0.0008202099737533
 43
0.0
 43
0.0
 43
0.0
 43
0.0
 43
0.0008202099737533
 43
0.0
 43
0.0
 43
0.0
 43
0.0
 43
1.0
 43
0.0
 43
0.0
 43
0.0
 43
0.0
 43
1.0
 77
     0
 47
0.0008202099737533
 47
0.0
 47
0.0
 47
0.0
 47
0.0
 47
0.0008202099737533
 47
0.0
 47
0.0
 47
0.0
 47
0.0
 47
1.0
 47
0.0
 47
0.0
 47
0.0
 47
0.0
 47
1.0
171
     0
 49
0.0008202099737533
 49
0.0
 49
0.0
 49
0.0
 49
0.0
 49
0.0008202099737533
 49
0.0
 49
0.0
 49
0.0
 49
0.0
 49
1.0
 49
0.0
 49
0.0
 49
0.0
 49
0.0
 49
1.0
175
     0
142
0.0008202099737533
142
0.0
142
0.0
142
0.0
142
0.0
142
0.0008202099737533
142
0.0
142
0.0
142
0.0
142
0.0
142
1.0
142
0.0
142
0.0
142
0.0
142
0.0
142
1.0
179
     0
144
0.0008202099737533
144
0.0
144
0.0
144
0.0
144
0.0
144
0.0008202099737533
144
0.0
144
0.0
144
0.0
144
0.0
144
1.0
144
0.0
144
0.0
144
0.0
144
0.0
144
1.0
147
0.0008202099737533
147
0.0
147
0.0
147
0.0
147
0.0
147
0.0008202099737533
147
0.0
147
0.0
147
0.0
147
0.0
147
1.0
147
0.0
147
0.0
147
0.0
147
0.0
147
1.0
  0
MATERIAL
  5
7E2
102
{ACAD_XDICTIONARY
360
7E3
102
}
102
{ACAD_REACTORS
330
7D1
102
}
330
7D1
100
AcDbMaterial
  1
Global
 72
     0
 43
0.0008202099737533
 43
0.0
 43
0.0
 43
0.0
 43
0.0
 43
0.0008202099737533
 43
0.0
 43
0.0
 43
0.0
 43
0.0
 43
1.0
 43
0.0
 43
0.0
 43
0.0
 43
0.0
 43
1.0
 77
     0
 47
0.0008202099737533
 47
0.0
 47
0.0
 47
0.0
 47
0.0
 47
0.0008202099737533
 47
0.0
 47
0.0
 47
0.0
 47
0.0
 47
1.0
 47
0.0
 47
0.0
 47
0.0
 47
0.0
 47
1.0
171
     0
 49
0.0008202099737533
 49
0.0
 49
0.0
 49
0.0
 49
0.0
 49
0.0008202099737533
 49
0.0
 49
0.0
 49
0.0
 49
0.0
 49
1.0
 49
0.0
 49
0.0
 49
0.0
 49
0.0
 49
1.0
175
     0
142
0.0008202099737533
142
0.0
142
0.0
142
0.0
142
0.0
142
0.0008202099737533
142
0.0
142
0.0
142
0.0
142
0.0
142
1.0
142
0.0
142
0.0
142
0.0
142
0.0
142
1.0
179
     0
144
0.0008202099737533
144
0.0
144
0.0
144
0.0
144
0.0
144
0.0008202099737533
144
0.0
144
0.0
144
0.0
144
0.0
144
1.0
144
0.0
144
0.0
144
0.0
144
0.0
144
1.0
147
0.0008202099737533
147
0.0
147
0.0
147
0.0
147
0.0
147
0.0008202099737533
147
0.0
147
0.0
147
0.0
147
0.0
147
1.0
147
0.0
147
0.0
147
0.0
147
0.0
147
1.0
  0
MLEADERSTYLE
  5
817
102
{ACAD_REACTORS
330
816
102
}
330
816
100
AcDbMLeaderStyle
179
     2
170
     2
171
     1
172
     0
 90
        2
 40
0.0
 41
0.0
173
     1
 91
-1056964608
340
14
 92
       -2
290
     1
 42
2.0
291
     1
 43
0.36
  3
Standard
 44
4.0
300

342
11
174
     1
178
     6
175
     1
176
     0
 93
-1056964608
 45
4.0
292
     0
297
     0
 46
4.0
 94
-1056964608
 47
1.0
 49
1.0
140
1.0
293
     1
141
0.0
294
     1
177
     0
142
1.0
295
     0
296
     0
143
0.125
271
     0
272
     9
273
     9
298
     0
  0
MLINESTYLE
  5
18
102
{ACAD_REACTORS
330
17
102
}
330
17
100
AcDbMlineStyle
  2
STANDARD
 70
     0
  3

 62
   256
 51
90.0
 52
90.0
 71
     2
 49
0.5
 62
   256
  6
BYLAYER
 49
-0.5
 62
   256
  6
BYLAYER
  0
ACDBPLACEHOLDER
  5
F
102
{ACAD_REACTORS
330
E
102
}
330
E
  0
SCALE
  5
805
102
{ACAD_REACTORS
330
804
102
}
330
804
100
AcDbScale
 70
     0
300
1:1
140
1.0
141
1.0
290
     1
  0
SCALE
  5
806
102
{ACAD_REACTORS
330
804
102
}
330
804
100
AcDbScale
 70
     0
300
1:2
140
1.0
141
2.0
290
     0
  0
SCALE
  5
807
102
{ACAD_REACTORS
330
804
102
}
330
804
100
AcDbScale
 70
     0
300
1:4
140
1.0
141
4.0
290
     0
  0
SCALE
  5
808
102
{ACAD_REACTORS
330
804
102
}
330
804
100
AcDbScale
 70
     0
300
1:5
140
1.0
141
5.0
290
     0
  0
SCALE
  5
809
102
{ACAD_REACTORS
330
804
102
}
330
804
100
AcDbScale
 70
     0
300
1:8
140
1.0
141
8.0
290
     0
  0
SCALE
  5
80A
102
{ACAD_REACTORS
330
804
102
}
330
804
100
AcDbScale
 70
     0
300
1:10
140
1.0
141
10.0
290
     0
  0
SCALE
  5
80B
102
{ACAD_REACTORS
330
804
102
}
330
804
100
AcDbScale
 70
     0
300
1:16
140
1.0
141
16.0
290
     0
  0
SCALE
  5
80C
102
{ACAD_REACTORS
330
804
102
}
330
804
100
AcDbScale
 70
     0
300
1:20
140
1.0
141
20.0
290
     0
  0
SCALE
  5
80D
102
{ACAD_REACTORS
330
804
102
}
330
804
100
AcDbScale
 70
     0
300
1:30
140
1.0
141
30.0
290
     0
  0
SCALE
  5
80E
102
{ACAD_REACTORS
330
804
102
}
330
804
100
AcDbScale
 70
     0
300
1:40
140
1.0
141
40.0
290
     0
  0
SCALE
  5
80F
102
{ACAD_REACTORS
330
804
102
}
330
804
100
AcDbScale
 70
     0
300
1:50
140
1.0
141
50.0
290
     0
  0
SCALE
  5
810
102
{ACAD_REACTORS
330
804
102
}
330
804
100
AcDbScale
 70
     0
300
1:100
140
1.0
141
100.0
290
     0
  0
SCALE
  5
811
102
{ACAD_REACTORS
330
804
102
}
330
804
100
AcDbScale
 70
     0
300
2:1
140
2.0
141
1.0
290
     0
  0
SCALE
  5
812
102
{ACAD_REACTORS
330
804
102
}
330
804
100
AcDbScale
 70
     0
300
4:1
140
4.0
141
1.0
290
     0
  0
SCALE
  5
813
102
{ACAD_REACTORS
330
804
102
}
330
804
100
AcDbScale
 70
     0
300
8:1
140
8.0
141
1.0
290
     0
  0
SCALE
  5
814
102
{ACAD_REACTORS
330
804
102
}
330
804
100
AcDbScale
 70
     0
300
10:1
140
10.0
141
1.0
290
     0
  0
SCALE
  5
815
102
{ACAD_REACTORS
330
804
102
}
330
804
100
AcDbScale
 70
     0
300
100:1
140
100.0
141
1.0
290
     0
  0
ACDBSECTIONVIEWSTYLE
  5
819
102
{ACAD_XDICTIONARY
360
83D
102
}
102
{ACAD_REACTORS
330
818
102
}
330
818
100
AcDbModelDocViewStyle
 70
     0
  3
Metric50
290
     0
100
AcDbSectionViewStyle
 70
     0
 71
     0
 90
      102
 71
     1
340
11
 62
   256
 40
5.0
340
0
340
0
 62
   256
 40
5.0
300
I, O, Q, S, X, Z
 40
10.0
 90
        0
 40
2.5
 90
        0
 71
     2
340
16
 90
       25
 62
   256
340
16
 90
       50
 62
   256
 40
5.0
 40
2.5
 40
5.0
 71
     3
340
11
 62
   256
 40
5.0
 90
        0
 40
15.0
 90
        1
300
%<\AcVar ViewSectionStartId>%-%<\AcVar ViewSectionEndId>% (%<\AcVar ViewScale \f "%sn">%)
 71
     4
 62
   256
 62
   257
300
ANSI31
 40
1.0
 90
        0
290
     0
290
     0
 90
        6
 40
0.0
 40
1.570796326794896
 40
0.2617993877991494
 40
1.308996938995747
 40
-0.2617993877991494
 40
1.832595714594046
  0
TABLESTYLE
  5
7CC
102
{ACAD_XDICTIONARY
360
838
102
}
102
{ACAD_REACTORS
330
7C9
102
}
330
7C9
100
AcDbTableStyle
280
     0
  3
Standard
 70
     0
 71
     0
 40
0.06
 41
0.06
280
     1
281
     1
  7
STANDARD
140
0.18
170
     1
 62
     0
 63
     7
283
     0
 90
        4
 91
        0
  1

274
    -2
284
     1
 64
     0
275
    -2
285
     1
 65
     0
276
    -2
286
     1
 66
     0
277
    -2
287
     1
 67
     0
278
    -2
288
     1
 68
     0
279
    -2
289
     1
 69
     0
  7
STANDARD
140
0.18
170
     1
 62
     0
 63
     7
283
     0
 90
        4
 91
        0
  1

274
    -2
284
     1
 64
     0
275
    -2
285
     1
 65
     0
276
    -2
286
     1
 66
     0
277
    -2
287
     1
 67
     0
278
    -2
288
     1
 68
     0
279
    -2
289
     1
 69
     0
  7
STANDARD
140
0.18
170
     1
 62
     0
 63
     7
283
     0
 90
        4
 91
        0
  1

274
    -2
284
     1
 64
     0
275
    -2
285
     1
 65
     0
276
    -2
286
     1
 66
     0
277
    -2
287
     1
 67
     0
278
    -2
288
     1
 68
     0
279
    -2
289
     1
 69
     0
  0
TABLESTYLE
  5
7CD
102
{ACAD_XDICTIONARY
360
83A
102
}
102
{ACAD_REACTORS
330
7C9
102
}
330
7C9
100
AcDbTableStyle
280
     0
  3
Standard1
 70
     1
 71
     0
 40
0.06
 41
0.06
280
     1
281
     1
  7
STANDARD
140
0.18
170
     1
 62
     0
 63
     7
283
     0
 90
        4
 91
        0
  1

274
    -2
284
     1
 64
     0
275
    -2
285
     1
 65
     0
276
    -2
286
     1
 66
     0
277
    -2
287
     1
 67
     0
278
    -2
288
     1
 68
     0
279
    -2
289
     1
 69
     0
  7
STANDARD
140
0.18
170
     1
 62
     0
 63
     7
283
     0
 90
        4
 91
        0
  1

274
    -2
284
     1
 64
     0
275
    -2
285
     1
 65
     0
276
    -2
286
     1
 66
     0
277
    -2
287
     1
 67
     0
278
    -2
288
     1
 68
     0
279
    -2
289
     1
 69
     0
  7
STANDARD
140
0.18
170
     1
 62
     0
 63
     7
283
     0
 90
        4
 91
        0
  1

274
    -2
284
     1
 64
     0
275
    -2
285
     1
 65
     0
276
    -2
286
     1
 66
     0
277
    -2
287
     1
 67
     0
278
    -2
288
     1
 68
     0
279
    -2
289
     1
 69
     0
  0
VISUALSTYLE
  5
7F0
102
{ACAD_REACTORS
330
7EA
102
}
330
7EA
100
AcDbVisualStyle
  2
2dWireframe
 70
     4
177
     3
291
     0
 70
    58
 90
        0
176
     1
 90
        2
176
     1
 90
        0
176
     1
 90
        0
176
     1
 40
0.6
176
     1
 40
30.0
176
     1
 62
     7
420
 16777215
176
     1
 90
        1
176
     1
 90
        4
176
     1
 62
     7
176
     1
 62
   257
176
     1
 90
        1
176
     1
 90
        1
176
     1
 40
1.0
176
     1
 90
        0
176
     1
 62
   257
176
     1
 40
1.0
176
     1
 90
        1
176
     1
 90
        6
176
     1
 90
        2
176
     1
 62
     7
176
     1
 90
        5
176
     1
 90
        0
176
     1
 90
        0
176
     1
290
     0
176
     1
 90
        1
176
     1
 40
0.0
176
     1
 90
        0
176
     1
290
     1
176
     1
290
     1
176
     1
290
     0
176
     1
290
     0
176
     1
290
     0
176
     1
290
     0
176
     1
290
     0
176
     1
290
     0
176
     1
290
     0
176
     1
 90
       50
176
     1
 40
0.0
176
     1
 40
1.0
176
     1
 90
        0
176
     1
 62
    18
420
        0
176
     1
 90
       50
176
     1
 90
        3
176
     1
 62
     5
420
      255
176
     1
290
     0
176
     1
 90
       50
176
     1
 90
       50
176
     1
 90
       50
176
     1
290
     0
176
     1
 90
       50
176
     1
 62
   256
176
     0
 40
1.0
176
     0
 90
        2
176
     1
  1
strokes_ogs.tif
176
     1
290
     0
176
     1
 40
1.0
176
     1
 40
1.0
176
     1
1001
ACAD
1000
AcDbSavedByObjectVersion
1070
     0
  0
VISUALSTYLE
  5
7EF
102
{ACAD_REACTORS
330
7EA
102
}
330
7EA
100
AcDbVisualStyle
  2
Basic
 70
     7
177
     3
291
     1
 70
    58
 90
        1
176
     1
 90
        0
176
     1
 90
        1
176
     1
 90
        0
176
     1
 40
0.6
176
     1
 40
30.0
176
     1
 62
     7
420
 16777215
176
     1
 90
        0
176
     1
 90
        4
176
     1
 62
     7
176
     1
 62
   257
176
     1
 90
        1
176
     1
 90
        1
176
     1
 40
1.0
176
     1
 90
        8
176
     1
 62
     7
176
     1
 40
1.0
176
     1
 90
        1
176
     1
 90
        6
176
     1
 90
        2
176
     1
 62
     7
176
     1
 90
        5
176
     1
 90
        0
176
     1
 90
        0
176
     1
290
     0
176
     1
 90
        1
176
     1
 40
0.0
176
     1
 90
        0
176
     1
290
     0
176
     1
290
     1
176
     1
290
     1
176
     1
290
     0
176
     1
290
     0
176
     1
290
     0
176
     1
290
     0
176
     1
290
     0
176
     1
290
     0
176
     1
 90
       50
176
     1
 40
0.0
176
     1
 40
1.0
176
     1
 90
        0
176
     1
 62
    18
420
        0
176
     1
 90
       50
176
     1
 90
        3
176
     1
 62
     5
420
      255
176
     1
290
     0
176
     1
 90
       50
176
     1
 90
       50
176
     1
 90
       50
176
     1
290
     0
176
     1
 90
       50
176
     1
 62
   256
176
     0
 40
1.0
176
     0
 90
        2
176
     1
  1
strokes_ogs.tif
176
     1
290
     0
176
     1
 40
1.0
176
     1
 40
1.0
176
     1
1001
ACAD
1000
AcDbSavedByObjectVersion
1070
     0
  0
VISUALSTYLE
  5
7F6
102
{ACAD_REACTORS
330
7EA
102
}
330
7EA
100
AcDbVisualStyle
  2
Brighten
 70
    12
177
     3
291
     1
 70
    58
 90
        2
176
     1
 90
        2
176
     1
 90
        0
176
     1
 90
        0
176
     1
 40
0.6
176
     1
 40
30.0
176
     1
 62
     7
420
 16777215
176
     1
 90
        1
176
     1
 90
        4
176
     1
 62
     7
176
     1
 62
   257
176
     1
 90
        1
176
     1
 90
        1
176
     1
 40
1.0
176
     1
 90
        8
176
     1
 62
     7
176
     1
 40
1.0
176
     1
 90
        1
176
     1
 90
        6
176
     1
 90
        2
176
     1
 62
     7
176
     1
 90
        5
176
     1
 90
        0
176
     1
 90
        0
176
     1
290
     0
176
     1
 90
        1
176
     1
 40
50.0
176
     1
 90
        0
176
     1
290
     0
176
     1
290
     1
176
     1
290
     1
176
     1
290
     0
176
     1
290
     0
176
     1
290
     0
176
     1
290
     0
176
     1
290
     0
176
     1
290
     0
176
     1
 90
       50
176
     1
 40
0.0
176
     1
 40
1.0
176
     1
 90
        0
176
     1
 62
    18
420
        0
176
     1
 90
       50
176
     1
 90
        3
176
     1
 62
     5
420
      255
176
     1
290
     0
176
     1
 90
       50
176
     1
 90
       50
176
     1
 90
       50
176
     1
290
     0
176
     1
 90
       50
176
     1
 62
   256
176
     0
 40
1.0
176
     0
 90
        2
176
     1
  1
strokes_ogs.tif
176
     1
290
     0
176
     1
 40
1.0
176
     1
 40
1.0
176
     1
1001
ACAD
1000
AcDbSavedByObjectVersion
1070
     0
  0
VISUALSTYLE
  5
7FA
102
{ACAD_REACTORS
330
7EA
102
}
330
7EA
100
AcDbVisualStyle
  2
ColorChange
 70
    16
177
     3
291
     1
 70
    58
 90
        2
176
     1
 90
        2
176
     1
 90
        3
176
     1
 90
        0
176
     1
 40
0.6
176
     1
 40
30.0
176
     1
 62
     8
420
  8421504
176
     1
 90
        1
176
     1
 90
        4
176
     1
 62
     7
176
     1
 62
   257
176
     1
 90
        1
176
     1
 90
        1
176
     1
 40
1.0
176
     1
 90
        8
176
     1
 62
     8
420
  8421504
176
     1
 40
1.0
176
     1
 90
        1
176
     1
 90
        6
176
     1
 90
        2
176
     1
 62
     7
176
     1
 90
        5
176
     1
 90
        0
176
     1
 90
        0
176
     1
290
     0
176
     1
 90
        1
176
     1
 40
0.0
176
     1
 90
        0
176
     1
290
     0
176
     1
290
     1
176
     1
290
     1
176
     1
290
     0
176
     1
290
     0
176
     1
290
     0
176
     1
290
     0
176
     1
290
     0
176
     1
290
     0
176
     1
 90
       50
176
     1
 40
0.0
176
     1
 40
1.0
176
     1
 90
        0
176
     1
 62
    18
420
        0
176
     1
 90
       50
176
     1
 90
        3
176
     1
 62
     5
420
      255
176
     1
290
     0
176
     1
 90
       50
176
     1
 90
       50
176
     1
 90
       50
176
     1
290
     0
176
     1
 90
       50
176
     1
 62
   256
176
     0
 40
1.0
176
     0
 90
        2
176
     1
  1
strokes_ogs.tif
176
     1
290
     0
176
     1
 40
1.0
176
     1
 40
1.0
176
     1
1001
ACAD
1000
AcDbSavedByObjectVersion
1070
     0
  0
VISUALSTYLE
  5
7F3
102
{ACAD_REACTORS
330
7EA
102
}
330
7EA
100
AcDbVisualStyle
  2
Conceptual
 70
     9
177
     3
291
     0
 70
    58
 90
        3
176
     1
 90
        2
176
     1
 90
        0
176
     1
 90
        0
176
     1
 40
0.6
176
     1
 40
30.0
176
     1
 62
     7
420
 16777215
176
     1
 90
        2
176
     1
 90
        2
176
     1
 62
     7
176
     1
 62
   257
176
     1
 90
        1
176
     1
 90
        1
176
     1
 40
179.0
176
     1
 90
        8
176
     1
 62
     7
176
     1
 40
1.0
176
     1
 90
        1
176
     1
 90
        6
176
     1
 90
        2
176
     1
 62
     7
176
     1
 90
        3
176
     1
 90
        0
176
     1
 90
        0
176
     1
290
     0
176
     1
 90
        1
176
     1
 40
0.0
176
     1
 90
        0
176
     1
290
     0
176
     1
290
     1
176
     1
290
     1
176
     1
290
     0
176
     1
290
     0
176
     1
290
     0
176
     1
290
     0
176
     1
290
     0
176
     1
290
     0
176
     1
 90
       50
176
     1
 40
0.0
176
     1
 40
1.0
176
     1
 90
        0
176
     1
 62
    18
420
        0
176
     1
 90
       50
176
     1
 90
        3
176
     1
 62
     5
420
      255
176
     1
290
     0
176
     1
 90
       50
176
     1
 90
       50
176
     1
 90
       50
176
     1
290
     0
176
     1
 90
       50
176
     1
 62
   256
176
     0
 40
1.0
176
     0
 90
        2
176
     1
  1
strokes_ogs.tif
176
     1
290
     0
176
     1
 40
1.0
176
     1
 40
1.0
176
     1
1001
ACAD
1000
AcDbSavedByObjectVersion
1070
     0
  0
VISUALSTYLE
  5
7F5
102
{ACAD_REACTORS
330
7EA
102
}
330
7EA
100
AcDbVisualStyle
  2
Dim
 70
    11
177
     3
291
     1
 70
    58
 90
        2
176
     1
 90
        2
176
     1
 90
        0
176
     1
 90
        0
176
     1
 40
0.6
176
     1
 40
30.0
176
     1
 62
     7
420
 16777215
176
     1
 90
        1
176
     1
 90
        4
176
     1
 62
     7
176
     1
 62
   257
176
     1
 90
        1
176
     1
 90
        1
176
     1
 40
1.0
176
     1
 90
        8
176
     1
 62
     7
176
     1
 40
1.0
176
     1
 90
        1
176
     1
 90
        6
176
     1
 90
        2
176
     1
 62
     7
176
     1
 90
        5
176
     1
 90
        0
176
     1
 90
        0
176
     1
290
     0
176
     1
 90
        1
176
     1
 40
-50.0
176
     1
 90
        0
176
     1
290
     0
176
     1
290
     1
176
     1
290
     1
176
     1
290
     0
176
     1
290
     0
176
     1
290
     0
176
     1
290
     0
176
     1
290
     0
176
     1
290
     0
176
     1
 90
       50
176
     1
 40
0.0
176
     1
 40
1.0
176
     1
 90
        0
176
     1
 62
    18
420
        0
176
     1
 90
       50
176
     1
 90
        3
176
     1
 62
     5
420
      255
176
     1
290
     0
176
     1
 90
       50
176
     1
 90
       50
176
     1
 90
       50
176
     1
290
     0
176
     1
 90
       50
176
     1
 62
   256
176
     0
 40
1.0
176
     0
 90
        2
176
     1
  1
strokes_ogs.tif
176
     1
290
     0
176
     1
 40
1.0
176
     1
 40
1.0
176
     1
1001
ACAD
1000
AcDbSavedByObjectVersion
1070
     0
  0
VISUALSTYLE
  5
802
102
{ACAD_REACTORS
330
7EA
102
}
330
7EA
100
AcDbVisualStyle
  2
EdgeColorOff
 70
    22
177
     3
291
     1
 70
    58
 90
        2
176
     0
 90
        2
176
     0
 90
        0
176
     0
 90
        0
176
     0
 40
0.6
176
     0
 40
30.0
176
     0
 62
     7
420
 16777215
176
     0
 90
        1
176
     0
 90
        4
176
     0
 62
     7
176
     0
 62
   257
176
     0
 90
        1
176
     0
 90
        1
176
     0
 40
1.0
176
     0
 90
        8
176
     2
 62
     7
176
     0
 40
1.0
176
     0
 90
        1
176
     0
 90
        6
176
     0
 90
        2
176
     0
 62
     7
176
     0
 90
        5
176
     0
 90
        0
176
     0
 90
        0
176
     0
290
     0
176
     0
 90
        1
176
     0
 40
0.0
176
     0
 90
        0
176
     0
290
     0
176
     1
290
     1
176
     1
290
     1
176
     1
290
     0
176
     1
290
     0
176
     1
290
     0
176
     1
290
     0
176
     1
290
     0
176
     1
290
     0
176
     1
 90
       50
176
     0
 40
0.0
176
     0
 40
1.0
176
     0
 90
        0
176
     0
 62
    18
420
        0
176
     0
 90
       50
176
     0
 90
        3
176
     0
 62
     5
420
      255
176
     0
290
     0
176
     1
 90
       50
176
     0
 90
       50
176
     0
 90
       50
176
     0
290
     0
176
     1
 90
       50
176
     0
 62
   256
176
     0
 40
1.0
176
     0
 90
        2
176
     0
  1
strokes_ogs.tif
176
     0
290
     0
176
     1
 40
1.0
176
     0
 40
1.0
176
     0
1001
ACAD
1000
AcDbSavedByObjectVersion
1070
     0
  0
VISUALSTYLE
  5
7F9
102
{ACAD_REACTORS
330
7EA
102
}
330
7EA
100
AcDbVisualStyle
  2
Facepattern
 70
    15
177
     3
291
     1
 70
    58
 90
        2
176
     1
 90
        2
176
     1
 90
        0
176
     1
 90
        0
176
     1
 40
0.6
176
     1
 40
30.0
176
     1
 62
     7
420
 16777215
176
     1
 90
        1
176
     1
 90
        4
176
     1
 62
     7
176
     1
 62
   257
176
     1
 90
        1
176
     1
 90
        1
176
     1
 40
1.0
176
     1
 90
        8
176
     1
 62
     7
176
     1
 40
1.0
176
     1
 90
        1
176
     1
 90
        6
176
     1
 90
        2
176
     1
 62
     7
176
     1
 90
        5
176
     1
 90
        0
176
     1
 90
        0
176
     1
290
     0
176
     1
 90
        1
176
     1
 40
0.0
176
     1
 90
        0
176
     1
290
     0
176
     1
290
     1
176
     1
290
     1
176
     1
290
     0
176
     1
290
     0
176
     1
290
     0
176
     1
290
     0
176
     1
290
     0
176
     1
290
     0
176
     1
 90
       50
176
     1
 40
0.0
176
     1
 40
1.0
176
     1
 90
        0
176
     1
 62
    18
420
        0
176
     1
 90
       50
176
     1
 90
        3
176
     1
 62
     5
420
      255
176
     1
290
     0
176
     1
 90
       50
176
     1
 90
       50
176
     1
 90
       50
176
     1
290
     0
176
     1
 90
       50
176
     1
 62
   256
176
     0
 40
1.0
176
     0
 90
        2
176
     1
  1
strokes_ogs.tif
176
     1
290
     0
176
     1
 40
1.0
176
     1
 40
1.0
176
     1
1001
ACAD
1000
AcDbSavedByObjectVersion
1070
     0
  0
VISUALSTYLE
  5
7EB
102
{ACAD_REACTORS
330
7EA
102
}
330
7EA
100
AcDbVisualStyle
  2
Flat
 70
     0
177
     3
291
     1
 70
    58
 90
        2
176
     1
 90
        1
176
     1
 90
        1
176
     1
 90
        2
176
     1
 40
0.6
176
     1
 40
30.0
176
     1
 62
     7
420
 16777215
176
     1
 90
        0
176
     1
 90
        0
176
     1
 62
     7
176
     1
 62
   257
176
     1
 90
        1
176
     1
 90
        1
176
     1
 40
1.0
176
     1
 90
        8
176
     1
 62
     7
176
     1
 40
1.0
176
     1
 90
        1
176
     1
 90
        6
176
     1
 90
        2
176
     1
 62
     7
176
     1
 90
        5
176
     1
 90
        0
176
     1
 90
        0
176
     1
290
     0
176
     1
 90
       13
176
     1
 40
0.0
176
     1
 90
        0
176
     1
290
     0
176
     1
290
     1
176
     1
290
     1
176
     1
290
     0
176
     1
290
     0
176
     1
290
     0
176
     1
290
     0
176
     1
290
     0
176
     1
290
     0
176
     1
 90
       50
176
     1
 40
0.0
176
     1
 40
1.0
176
     1
 90
        0
176
     1
 62
    18
420
        0
176
     1
 90
       50
176
     1
 90
        3
176
     1
 62
     5
420
      255
176
     1
290
     0
176
     1
 90
       50
176
     1
 90
       50
176
     1
 90
       50
176
     1
290
     0
176
     1
 90
       50
176
     1
 62
   256
176
     0
 40
1.0
176
     0
 90
        2
176
     1
  1
strokes_ogs.tif
176
     1
290
     0
176
     1
 40
1.0
176
     1
 40
1.0
176
     1
1001
ACAD
1000
AcDbSavedByObjectVersion
1070
     0
  0
VISUALSTYLE
  5
7EC
102
{ACAD_REACTORS
330
7EA
102
}
330
7EA
100
AcDbVisualStyle
  2
FlatWithEdges
 70
     1
177
     3
291
     1
 70
    58
 90
        2
176
     1
 90
        1
176
     1
 90
        1
176
     1
 90
        2
176
     1
 40
0.6
176
     1
 40
30.0
176
     1
 62
     7
420
 16777215
176
     1
 90
        1
176
     1
 90
        0
176
     1
 62
     7
176
     1
 62
   257
176
     1
 90
        1
176
     1
 90
        1
176
     1
 40
1.0
176
     1
 90
        0
176
     1
 62
   257
176
     1
 40
1.0
176
     1
 90
        1
176
     1
 90
        6
176
     1
 90
        2
176
     1
 62
     7
176
     1
 90
        5
176
     1
 90
        0
176
     1
 90
        0
176
     1
290
     0
176
     1
 90
       13
176
     1
 40
0.0
176
     1
 90
        0
176
     1
290
     0
176
     1
290
     1
176
     1
290
     1
176
     1
290
     0
176
     1
290
     0
176
     1
290
     0
176
     1
290
     0
176
     1
290
     0
176
     1
290
     0
176
     1
 90
       50
176
     1
 40
0.0
176
     1
 40
1.0
176
     1
 90
        0
176
     1
 62
    18
420
        0
176
     1
 90
       50
176
     1
 90
        3
176
     1
 62
     5
420
      255
176
     1
290
     0
176
     1
 90
       50
176
     1
 90
       50
176
     1
 90
       50
176
     1
290
     0
176
     1
 90
       50
176
     1
 62
   256
176
     0
 40
1.0
176
     0
 90
        2
176
     1
  1
strokes_ogs.tif
176
     1
290
     0
176
     1
 40
1.0
176
     1
 40
1.0
176
     1
1001
ACAD
1000
AcDbSavedByObjectVersion
1070
     0
  0
VISUALSTYLE
  5
7ED
102
{ACAD_REACTORS
330
7EA
102
}
330
7EA
100
AcDbVisualStyle
  2
Gouraud
 70
     2
177
     3
291
     1
 70
    58
 90
        2
176
     1
 90
        2
176
     1
 90
        1
176
     1
 90
        2
176
     1
 40
0.6
176
     1
 40
30.0
176
     1
 62
     7
420
 16777215
176
     1
 90
        0
176
     1
 90
        0
176
     1
 62
     7
176
     1
 62
   257
176
     1
 90
        1
176
     1
 90
        1
176
     1
 40
1.0
176
     1
 90
        0
176
     1
 62
     7
176
     1
 40
1.0
176
     1
 90
        1
176
     1
 90
        6
176
     1
 90
        2
176
     1
 62
     7
176
     1
 90
        5
176
     1
 90
        0
176
     1
 90
        0
176
     1
290
     0
176
     1
 90
       13
176
     1
 40
0.0
176
     1
 90
        0
176
     1
290
     0
176
     1
290
     1
176
     1
290
     1
176
     1
290
     0
176
     1
290
     0
176
     1
290
     0
176
     1
290
     0
176
     1
290
     0
176
     1
290
     0
176
     1
 90
       50
176
     1
 40
0.0
176
     1
 40
1.0
176
     1
 90
        0
176
     1
 62
    18
420
        0
176
     1
 90
       50
176
     1
 90
        3
176
     1
 62
     5
420
      255
176
     1
290
     0
176
     1
 90
       50
176
     1
 90
       50
176
     1
 90
       50
176
     1
290
     0
176
     1
 90
       50
176
     1
 62
   256
176
     0
 40
1.0
176
     0
 90
        2
176
     1
  1
strokes_ogs.tif
176
     1
290
     0
176
     1
 40
1.0
176
     1
 40
1.0
176
     1
1001
ACAD
1000
AcDbSavedByObjectVersion
1070
     0
  0
VISUALSTYLE
  5
7EE
102
{ACAD_REACTORS
330
7EA
102
}
330
7EA
100
AcDbVisualStyle
  2
GouraudWithEdges
 70
     3
177
     3
291
     1
 70
    58
 90
        2
176
     1
 90
        2
176
     1
 90
        1
176
     1
 90
        2
176
     1
 40
0.6
176
     1
 40
30.0
176
     1
 62
     7
420
 16777215
176
     1
 90
        1
176
     1
 90
        0
176
     1
 62
     7
176
     1
 62
   257
176
     1
 90
        1
176
     1
 90
        1
176
     1
 40
1.0
176
     1
 90
        0
176
     1
 62
   257
176
     1
 40
1.0
176
     1
 90
        1
176
     1
 90
        6
176
     1
 90
        2
176
     1
 62
     7
176
     1
 90
        5
176
     1
 90
        0
176
     1
 90
        0
176
     1
290
     0
176
     1
 90
       13
176
     1
 40
0.0
176
     1
 90
        0
176
     1
290
     0
176
     1
290
     1
176
     1
290
     1
176
     1
290
     0
176
     1
290
     0
176
     1
290
     0
176
     1
290
     0
176
     1
290
     0
176
     1
290
     0
176
     1
 90
       50
176
     1
 40
0.0
176
     1
 40
1.0
176
     1
 90
        0
176
     1
 62
    18
420
        0
176
     1
 90
       50
176
     1
 90
        3
176
     1
 62
     5
420
      255
176
     1
290
     0
176
     1
 90
       50
176
     1
 90
       50
176
     1
 90
       50
176
     1
290
     0
176
     1
 90
       50
176
     1
 62
   256
176
     0
 40
1.0
176
     0
 90
        2
176
     1
  1
strokes_ogs.tif
176
     1
290
     0
176
     1
 40
1.0
176
     1
 40
1.0
176
     1
1001
ACAD
1000
AcDbSavedByObjectVersion
1070
     0
  0
VISUALSTYLE
  5
7F2
102
{ACAD_REACTORS
330
7EA
102
}
330
7EA
100
AcDbVisualStyle
  2
Hidden
 70
     6
177
     3
291
     0
 70
    58
 90
        1
176
     1
 90
        2
176
     1
 90
        2
176
     1
 90
        0
176
     1
 40
0.6
176
     1
 40
30.0
176
     1
 62
     7
420
 16777215
176
     1
 90
        2
176
     1
 90
        2
176
     1
 62
     7
176
     1
 62
   257
176
     1
 90
        2
176
     1
 90
        1
176
     1
 40
40.0
176
     1
 90
        0
176
     1
 62
   257
176
     1
 40
1.0
176
     1
 90
        1
176
     1
 90
        6
176
     1
 90
        2
176
     1
 62
     7
176
     1
 90
        3
176
     1
 90
        0
176
     1
 90
        0
176
     1
290
     0
176
     1
 90
        1
176
     1
 40
0.0
176
     1
 90
        0
176
     1
290
     0
176
     1
290
     1
176
     1
290
     1
176
     1
290
     0
176
     1
290
     0
176
     1
290
     0
176
     1
290
     0
176
     1
290
     0
176
     1
290
     0
176
     1
 90
       50
176
     1
 40
0.0
176
     1
 40
1.0
176
     1
 90
        0
176
     1
 62
    18
420
        0
176
     1
 90
       50
176
     1
 90
        3
176
     1
 62
     5
420
      255
176
     1
290
     0
176
     1
 90
       50
176
     1
 90
       50
176
     1
 90
       50
176
     1
290
     0
176
     1
 90
       50
176
     1
 62
   256
176
     0
 40
1.0
176
     0
 90
        2
176
     1
  1
strokes_ogs.tif
176
     1
290
     0
176
     1
 40
1.0
176
     1
 40
1.0
176
     1
1001
ACAD
1000
AcDbSavedByObjectVersion
1070
     0
  0
VISUALSTYLE
  5
800
102
{ACAD_REACTORS
330
7EA
102
}
330
7EA
100
AcDbVisualStyle
  2
JitterOff
 70
    20
177
     3
291
     1
 70
    58
 90
        2
176
     0
 90
        2
176
     0
 90
        0
176
     0
 90
        0
176
     0
 40
0.6
176
     0
 40
30.0
176
     0
 62
     7
420
 16777215
176
     0
 90
        1
176
     0
 90
        4
176
     0
 62
     7
176
     0
 62
   257
176
     0
 90
        1
176
     0
 90
        1
176
     0
 40
1.0
176
     0
 90
       10
176
     2
 62
     7
176
     0
 40
1.0
176
     0
 90
        1
176
     0
 90
        6
176
     0
 90
        2
176
     0
 62
     7
176
     0
 90
        5
176
     0
 90
        0
176
     0
 90
        0
176
     0
290
     0
176
     0
 90
        1
176
     0
 40
0.0
176
     0
 90
        0
176
     0
290
     0
176
     1
290
     1
176
     1
290
     1
176
     1
290
     0
176
     1
290
     0
176
     1
290
     0
176
     1
290
     0
176
     1
290
     0
176
     1
290
     0
176
     1
 90
       50
176
     0
 40
0.0
176
     0
 40
1.0
176
     0
 90
        0
176
     0
 62
    18
420
        0
176
     0
 90
       50
176
     0
 90
        3
176
     0
 62
     5
420
      255
176
     0
290
     0
176
     1
 90
       50
176
     0
 90
       50
176
     0
 90
       50
176
     0
290
     0
176
     1
 90
       50
176
     0
 62
   256
176
     0
 40
1.0
176
     0
 90
        2
176
     0
  1
strokes_ogs.tif
176
     0
290
     0
176
     1
 40
1.0
176
     0
 40
1.0
176
     0
1001
ACAD
1000
AcDbSavedByObjectVersion
1070
     0
  0
VISUALSTYLE
  5
7F8
102
{ACAD_REACTORS
330
7EA
102
}
330
7EA
100
AcDbVisualStyle
  2
Linepattern
 70
    14
177
     3
291
     1
 70
    58
 90
        2
176
     1
 90
        2
176
     1
 90
        0
176
     1
 90
        0
176
     1
 40
0.6
176
     1
 40
30.0
176
     1
 62
     7
420
 16777215
176
     1
 90
        1
176
     1
 90
        4
176
     1
 62
     7
176
     1
 62
   257
176
     1
 90
        7
176
     1
 90
        7
176
     1
 40
1.0
176
     1
 90
        8
176
     1
 62
     7
176
     1
 40
1.0
176
     1
 90
        1
176
     1
 90
        6
176
     1
 90
        2
176
     1
 62
     7
176
     1
 90
        5
176
     1
 90
        0
176
     1
 90
        0
176
     1
290
     0
176
     1
 90
        1
176
     1
 40
0.0
176
     1
 90
        0
176
     1
290
     0
176
     1
290
     1
176
     1
290
     1
176
     1
290
     0
176
     1
290
     0
176
     1
290
     0
176
     1
290
     0
176
     1
290
     0
176
     1
290
     0
176
     1
 90
       50
176
     1
 40
0.0
176
     1
 40
1.0
176
     1
 90
        0
176
     1
 62
    18
420
        0
176
     1
 90
       50
176
     1
 90
        3
176
     1
 62
     5
420
      255
176
     1
290
     0
176
     1
 90
       50
176
     1
 90
       50
176
     1
 90
       50
176
     1
290
     0
176
     1
 90
       50
176
     1
 62
   256
176
     0
 40
1.0
176
     0
 90
        2
176
     1
  1
strokes_ogs.tif
176
     1
290
     0
176
     1
 40
1.0
176
     1
 40
1.0
176
     1
1001
ACAD
1000
AcDbSavedByObjectVersion
1070
     0
  0
VISUALSTYLE
  5
801
102
{ACAD_REACTORS
330
7EA
102
}
330
7EA
100
AcDbVisualStyle
  2
OverhangOff
 70
    21
177
     3
291
     1
 70
    58
 90
        2
176
     0
 90
        2
176
     0
 90
        0
176
     0
 90
        0
176
     0
 40
0.6
176
     0
 40
30.0
176
     0
 62
     7
420
 16777215
176
     0
 90
        1
176
     0
 90
        4
176
     0
 62
     7
176
     0
 62
   257
176
     0
 90
        1
176
     0
 90
        1
176
     0
 40
1.0
176
     0
 90
        9
176
     2
 62
     7
176
     0
 40
1.0
176
     0
 90
        1
176
     0
 90
        6
176
     0
 90
        2
176
     0
 62
     7
176
     0
 90
        5
176
     0
 90
        0
176
     0
 90
        0
176
     0
290
     0
176
     0
 90
        1
176
     0
 40
0.0
176
     0
 90
        0
176
     0
290
     0
176
     1
290
     1
176
     1
290
     1
176
     1
290
     0
176
     1
290
     0
176
     1
290
     0
176
     1
290
     0
176
     1
290
     0
176
     1
290
     0
176
     1
 90
       50
176
     0
 40
0.0
176
     0
 40
1.0
176
     0
 90
        0
176
     0
 62
    18
420
        0
176
     0
 90
       50
176
     0
 90
        3
176
     0
 62
     5
420
      255
176
     0
290
     0
176
     1
 90
       50
176
     0
 90
       50
176
     0
 90
       50
176
     0
290
     0
176
     1
 90
       50
176
     0
 62
   256
176
     0
 40
1.0
176
     0
 90
        2
176
     0
  1
strokes_ogs.tif
176
     0
290
     0
176
     1
 40
1.0
176
     0
 40
1.0
176
     0
1001
ACAD
1000
AcDbSavedByObjectVersion
1070
     0
  0
VISUALSTYLE
  5
7F4
102
{ACAD_REACTORS
330
7EA
102
}
330
7EA
100
AcDbVisualStyle
  2
Realistic
 70
     8
177
     3
291
     0
 70
    58
 90
        2
176
     1
 90
        3
176
     1
 90
        0
176
     1
 90
        2
176
     1
 40
0.6
176
     1
 40
30.0
176
     1
 62
     7
420
 16777215
176
     1
 90
        0
176
     1
 90
        0
176
     1
 62
     7
176
     1
 62
   257
176
     1
 90
        1
176
     1
 90
        1
176
     1
 40
1.0
176
     1
 90
        8
176
     1
 62
   257
176
     1
 40
1.0
176
     1
 90
        1
176
     1
 90
        6
176
     1
 90
        2
176
     1
 62
     7
176
     1
 90
        3
176
     1
 90
        0
176
     1
 90
        0
176
     1
290
     0
176
     1
 90
       13
176
     1
 40
0.0
176
     1
 90
        0
176
     1
290
     0
176
     1
290
     1
176
     1
290
     1
176
     1
290
     0
176
     1
290
     0
176
     1
290
     0
176
     1
290
     0
176
     1
290
     0
176
     1
290
     0
176
     1
 90
       50
176
     1
 40
0.0
176
     1
 40
1.0
176
     1
 90
        0
176
     1
 62
    18
420
        0
176
     1
 90
       50
176
     1
 90
        3
176
     1
 62
     5
420
      255
176
     1
290
     0
176
     1
 90
       50
176
     1
 90
       50
176
     1
 90
       50
176
     1
290
     0
176
     1
 90
       50
176
     1
 62
   256
176
     0
 40
1.0
176
     0
 90
        2
176
     1
  1
strokes_ogs.tif
176
     1
290
     0
176
     1
 40
1.0
176
     1
 40
1.0
176
     1
1001
ACAD
1000
AcDbSavedByObjectVersion
1070
     0
  0
VISUALSTYLE
  5
7FF
102
{ACAD_REACTORS
330
7EA
102
}
330
7EA
100
AcDbVisualStyle
  2
Shaded
 70
    27
177
     3
291
     0
 70
    58
 90
        2
176
     1
 90
        2
176
     1
 90
        1
176
     1
 90
        2
176
     1
 40
0.6
176
     1
 40
30.0
176
     1
 62
     7
420
 16777215
176
     1
 90
        0
176
     1
 90
        4
176
     1
 62
     7
176
     1
 62
   257
176
     1
 90
        1
176
     1
 90
        1
176
     1
 40
1.0
176
     1
 90
        8
176
     1
 62
   257
176
     1
 40
1.0
176
     1
 90
        1
176
     1
 90
        6
176
     1
 90
        2
176
     1
 62
     8
420
  7895160
176
     1
 90
        3
176
     1
 90
        0
176
     1
 90
        0
176
     1
290
     0
176
     1
 90
        5
176
     1
 40
0.0
176
     1
 90
        0
176
     1
290
     0
176
     1
290
     1
176
     1
290
     1
176
     1
290
     0
176
     1
290
     0
176
     1
290
     0
176
     1
290
     0
176
     1
290
     0
176
     1
290
     0
176
     1
 90
       50
176
     1
 40
0.0
176
     1
 40
1.0
176
     1
 90
        0
176
     1
 62
    18
420
        0
176
     1
 90
       50
176
     1
 90
        3
176
     1
 62
     5
420
      255
176
     1
290
     0
176
     1
 90
       50
176
     1
 90
       50
176
     1
 90
       50
176
     1
290
     0
176
     1
 90
       50
176
     1
 62
   256
176
     0
 40
1.0
176
     0
 90
        2
176
     1
  1
strokes_ogs.tif
176
     1
290
     0
176
     1
 40
1.0
176
     1
 40
1.0
176
     1
1001
ACAD
1000
AcDbSavedByObjectVersion
1070
     0
  0
VISUALSTYLE
  5
7FE
102
{ACAD_REACTORS
330
7EA
102
}
330
7EA
100
AcDbVisualStyle
  2
Shaded with edges
 70
    26
177
     3
291
     0
 70
    58
 90
        2
176
     1
 90
        2
176
     1
 90
        1
176
     1
 90
        2
176
     1
 40
0.6
176
     1
 40
30.0
176
     1
 62
     7
420
 16777215
176
     1
 90
        1
176
     1
 90
        2
176
     1
 62
     7
176
     1
 62
   257
176
     1
 90
        2
176
     1
 90
        1
176
     1
 40
1.0
176
     1
 90
        8
176
     1
 62
   257
176
     1
 40
1.0
176
     1
 90
        1
176
     1
 90
        6
176
     1
 90
        2
176
     1
 62
     7
176
     1
 90
        3
176
     1
 90
        0
176
     1
 90
        0
176
     1
290
     0
176
     1
 90
        5
176
     1
 40
0.0
176
     1
 90
        0
176
     1
290
     0
176
     1
290
     1
176
     1
290
     1
176
     1
290
     0
176
     1
290
     0
176
     1
290
     0
176
     1
290
     0
176
     1
290
     0
176
     1
290
     0
176
     1
 90
       50
176
     1
 40
0.0
176
     1
 40
1.0
176
     1
 90
        0
176
     1
 62
    18
420
        0
176
     1
 90
       50
176
     1
 90
        3
176
     1
 62
     5
420
      255
176
     1
290
     0
176
     1
 90
       50
176
     1
 90
       50
176
     1
 90
       50
176
     1
290
     0
176
     1
 90
       50
176
     1
 62
   256
176
     0
 40
1.0
176
     0
 90
        2
176
     1
  1
strokes_ogs.tif
176
     1
290
     0
176
     1
 40
1.0
176
     1
 40
1.0
176
     1
1001
ACAD
1000
AcDbSavedByObjectVersion
1070
     0
  0
VISUALSTYLE
  5
7FB
102
{ACAD_REACTORS
330
7EA
102
}
330
7EA
100
AcDbVisualStyle
  2
Shades of Gray
 70
    23
177
     3
291
     0
 70
    58
 90
        2
176
     1
 90
        2
176
     1
 90
        3
176
     1
 90
        0
176
     1
 40
0.6
176
     1
 40
30.0
176
     1
 62
     7
420
 16777215
176
     1
 90
        2
176
     1
 90
        2
176
     1
 62
     7
176
     1
 62
     7
176
     1
 90
        1
176
     1
 90
        1
176
     1
 40
40.0
176
     1
 90
        8
176
     1
 62
     7
176
     1
 40
1.0
176
     1
 90
        1
176
     1
 90
        6
176
     1
 90
        2
176
     1
 62
     7
176
     1
 90
        3
176
     1
 90
        0
176
     1
 90
        0
176
     1
290
     0
176
     1
 90
        1
176
     1
 40
0.0
176
     1
 90
        0
176
     1
290
     0
176
     1
290
     1
176
     1
290
     1
176
     1
290
     0
176
     1
290
     0
176
     1
290
     0
176
     1
290
     0
176
     1
290
     0
176
     1
290
     0
176
     1
 90
       50
176
     1
 40
0.0
176
     1
 40
1.0
176
     1
 90
        0
176
     1
 62
    18
420
        0
176
     1
 90
       50
176
     1
 90
        3
176
     1
 62
     5
420
      255
176
     1
290
     0
176
     1
 90
       50
176
     1
 90
       50
176
     1
 90
       50
176
     1
290
     0
176
     1
 90
       50
176
     1
 62
   256
176
     0
 40
1.0
176
     0
 90
        2
176
     1
  1
strokes_ogs.tif
176
     1
290
     0
176
     1
 40
1.0
176
     1
 40
1.0
176
     1
1001
ACAD
1000
AcDbSavedByObjectVersion
1070
     0
  0
VISUALSTYLE
  5
7FC
102
{ACAD_REACTORS
330
7EA
102
}
330
7EA
100
AcDbVisualStyle
  2
Sketchy
 70
    24
177
     3
291
     0
 70
    58
 90
        1
176
     1
 90
        2
176
     1
 90
        2
176
     1
 90
        0
176
     1
 40
0.6
176
     1
 40
30.0
176
     1
 62
     7
420
 16777215
176
     1
 90
        2
176
     1
 90
        2
176
     1
 62
     7
176
     1
 62
     7
176
     1
 90
        1
176
     1
 90
        1
176
     1
 40
40.0
176
     1
 90
       11
176
     1
 62
     7
176
     1
 40
1.0
176
     1
 90
        1
176
     1
 90
        6
176
     1
 90
        2
176
     1
 62
     7
176
     1
 90
        6
176
     1
 90
        0
176
     1
 90
        0
176
     1
290
     0
176
     1
 90
        1
176
     1
 40
0.0
176
     1
 90
        0
176
     1
290
     0
176
     1
290
     1
176
     1
290
     1
176
     1
290
     0
176
     1
290
     0
176
     1
290
     0
176
     1
290
     0
176
     1
290
     0
176
     1
290
     0
176
     1
 90
       50
176
     1
 40
0.0
176
     1
 40
1.0
176
     1
 90
        0
176
     1
 62
    18
420
        0
176
     1
 90
       50
176
     1
 90
        3
176
     1
 62
     5
420
      255
176
     1
290
     0
176
     1
 90
       50
176
     1
 90
       50
176
     1
 90
       50
176
     1
290
     0
176
     1
 90
       50
176
     1
 62
   256
176
     0
 40
1.0
176
     0
 90
        2
176
     1
  1
strokes_ogs.tif
176
     1
290
     0
176
     1
 40
1.0
176
     1
 40
1.0
176
     1
1001
ACAD
1000
AcDbSavedByObjectVersion
1070
     0
  0
VISUALSTYLE
  5
7F7
102
{ACAD_REACTORS
330
7EA
102
}
330
7EA
100
AcDbVisualStyle
  2
Thicken
 70
    13
177
     3
291
     1
 70
    58
 90
        2
176
     1
 90
        2
176
     1
 90
        0
176
     1
 90
        0
176
     1
 40
0.6
176
     1
 40
30.0
176
     1
 62
     7
420
 16777215
176
     1
 90
        1
176
     1
 90
        4
176
     1
 62
     7
176
     1
 62
   257
176
     1
 90
        1
176
     1
 90
        1
176
     1
 40
1.0
176
     1
 90
       12
176
     1
 62
     7
176
     1
 40
1.0
176
     1
 90
        1
176
     1
 90
        6
176
     1
 90
        2
176
     1
 62
     7
176
     1
 90
        5
176
     1
 90
        0
176
     1
 90
        0
176
     1
290
     0
176
     1
 90
        1
176
     1
 40
0.0
176
     1
 90
        0
176
     1
290
     0
176
     1
290
     1
176
     1
290
     1
176
     1
290
     0
176
     1
290
     0
176
     1
290
     0
176
     1
290
     0
176
     1
290
     0
176
     1
290
     0
176
     1
 90
       50
176
     1
 40
0.0
176
     1
 40
1.0
176
     1
 90
        0
176
     1
 62
    18
420
        0
176
     1
 90
       50
176
     1
 90
        3
176
     1
 62
     5
420
      255
176
     1
290
     0
176
     1
 90
       50
176
     1
 90
       50
176
     1
 90
       50
176
     1
290
     0
176
     1
 90
       50
176
     1
 62
   256
176
     0
 40
1.0
176
     0
 90
        2
176
     1
  1
strokes_ogs.tif
176
     1
290
     0
176
     1
 40
1.0
176
     1
 40
1.0
176
     1
1001
ACAD
1000
AcDbSavedByObjectVersion
1070
     0
  0
VISUALSTYLE
  5
7F1
102
{ACAD_REACTORS
330
7EA
102
}
330
7EA
100
AcDbVisualStyle
  2
Wireframe
 70
     5
177
     3
291
     0
 70
    58
 90
        0
176
     1
 90
        2
176
     1
 90
        0
176
     1
 90
        0
176
     1
 40
0.6
176
     1
 40
30.0
176
     1
 62
     7
420
 16777215
176
     1
 90
        1
176
     1
 90
        4
176
     1
 62
     7
176
     1
 62
   257
176
     1
 90
        1
176
     1
 90
        1
176
     1
 40
1.0
176
     1
 90
        0
176
     1
 62
   257
176
     1
 40
1.0
176
     1
 90
        1
176
     1
 90
        6
176
     1
 90
        2
176
     1
 62
     7
176
     1
 90
        3
176
     1
 90
        0
176
     1
 90
        0
176
     1
290
     0
176
     1
 90
        1
176
     1
 40
0.0
176
     1
 90
        0
176
     1
290
     0
176
     1
290
     1
176
     1
290
     1
176
     1
290
     0
176
     1
290
     0
176
     1
290
     0
176
     1
290
     0
176
     1
290
     0
176
     1
290
     0
176
     1
 90
       50
176
     1
 40
0.0
176
     1
 40
1.0
176
     1
 90
        0
176
     1
 62
    18
420
        0
176
     1
 90
       50
176
     1
 90
        3
176
     1
 62
     5
420
      255
176
     1
290
     0
176
     1
 90
       50
176
     1
 90
       50
176
     1
 90
       50
176
     1
290
     0
176
     1
 90
       50
176
     1
 62
   256
176
     0
 40
1.0
176
     0
 90
        2
176
     1
  1
strokes_ogs.tif
176
     1
290
     0
176
     1
 40
1.0
176
     1
 40
1.0
176
     1
1001
ACAD
1000
AcDbSavedByObjectVersion
1070
     0
  0
VISUALSTYLE
  5
7FD
102
{ACAD_REACTORS
330
7EA
102
}
330
7EA
100
AcDbVisualStyle
  2
X-Ray
 70
    25
177
     3
291
     0
 70
    58
 90
        2
176
     1
 90
        2
176
     1
 90
        1
176
     1
 90
        1
176
     1
 40
0.5
176
     1
 40
30.0
176
     1
 62
     7
420
 16777215
176
     1
 90
        1
176
     1
 90
        0
176
     1
 62
     7
176
     1
 62
   257
176
     1
 90
        1
176
     1
 90
        1
176
     1
 40
1.0
176
     1
 90
        8
176
     1
 62
     7
176
     1
 40
1.0
176
     1
 90
        1
176
     1
 90
        6
176
     1
 90
        2
176
     1
 62
     7
176
     1
 90
        3
176
     1
 90
        0
176
     1
 90
        0
176
     1
290
     0
176
     1
 90
       13
176
     1
 40
0.0
176
     1
 90
        0
176
     1
290
     0
176
     1
290
     1
176
     1
290
     1
176
     1
290
     0
176
     1
290
     0
176
     1
290
     0
176
     1
290
     0
176
     1
290
     0
176
     1
290
     0
176
     1
 90
       50
176
     1
 40
0.0
176
     1
 40
1.0
176
     1
 90
        0
176
     1
 62
    18
420
        0
176
     1
 90
       50
176
     1
 90
        3
176
     1
 62
     5
420
      255
176
     1
290
     0
176
     1
 90
       50
176
     1
 90
       50
176
     1
 90
       50
176
     1
290
     0
176
     1
 90
       50
176
     1
 62
   256
176
     0
 40
1.0
176
     0
 90
        2
176
     1
  1
strokes_ogs.tif
176
     1
290
     0
176
     1
 40
1.0
176
     1
 40
1.0
176
     1
1001
ACAD
1000
AcDbSavedByObjectVersion
1070
     0
  0
DICTIONARYVAR
  5
833
102
{ACAD_REACTORS
330
822
102
}
330
822
100
DictionaryVariables
280
     0
  1
1:1
  0
DICTIONARYVAR
  5
82F
102
{ACAD_REACTORS
330
822
102
}
330
822
100
DictionaryVariables
280
     0
  1
STANDARD
  0
DICTIONARYVAR
  5
82E
102
{ACAD_REACTORS
330
822
102
}
330
822
100
DictionaryVariables
280
     0
  1
STANDARD
  0
DICTIONARYVAR
  5
830
102
{ACAD_REACTORS
330
822
102
}
330
822
100
DictionaryVariables
280
     0
  1
Metric50
  0
DICTIONARYVAR
  5
831
102
{ACAD_REACTORS
330
822
102
}
330
822
100
DictionaryVariables
280
     0
  1
Metric50
  0
DICTIONARYVAR
  5
835
102
{ACAD_REACTORS
330
822
102
}
330
822
100
DictionaryVariables
280
     0
  1
1
  0
DICTIONARYVAR
  5
836
102
{ACAD_REACTORS
330
822
102
}
330
822
100
DictionaryVariables
280
     0
  1
15
  0
DICTIONARYVAR
  5
834
102
{ACAD_REACTORS
330
822
102
}
330
822
100
DictionaryVariables
280
     0
  1
0
  0
DICTIONARYVAR
  5
832
102
{ACAD_REACTORS
330
822
102
}
330
822
100
DictionaryVariables
280
     0
  1
0
  0
DICTIONARY
  5
83F
330
81B
100
AcDbDictionary
280
     1
281
     1
  3
ACAD_XREC_ROUNDTRIP
360
840
  0
DICTIONARY
  5
7DB
330
7DA
100
AcDbDictionary
280
     1
281
     1
  3
BUMPTILE
360
7DD
  3
DIFFUSETILE
360
7DC
  3
OPACITYTILE
360
7E0
  3
REFLECTIONTILE
360
7DF
  3
REFRACTIONTILE
360
7E1
  3
SPECULARTILE
360
7DE
  0
DICTIONARY
  5
7D3
330
7D2
100
AcDbDictionary
280
     1
281
     1
  3
BUMPTILE
360
7D5
  3
DIFFUSETILE
360
7D4
  3
OPACITYTILE
360
7D8
  3
REFLECTIONTILE
360
7D7
  3
REFRACTIONTILE
360
7D9
  3
SPECULARTILE
360
7D6
  0
DICTIONARY
  5
7E3
330
7E2
100
AcDbDictionary
280
     1
281
     1
  3
BUMPTILE
360
7E5
  3
DIFFUSETILE
360
7E4
  3
OPACITYTILE
360
7E8
  3
REFLECTIONTILE
360
7E7
  3
REFRACTIONTILE
360
7E9
  3
SPECULARTILE
360
7E6
  0
DICTIONARY
  5
83D
330
819
100
AcDbDictionary
280
     1
281
     1
  3
ACAD_XREC_ROUNDTRIP
360
83E
  0
DICTIONARY
  5
838
330
7CC
100
AcDbDictionary
280
     1
281
     1
  3
ACAD_ROUNDTRIP_2008_TABLESTYLE_CELLSTYLEMAP
360
839
  0
DICTIONARY
  5
83A
330
7CD
100
AcDbDictionary
280
     1
281
     1
  3
ACAD_ROUNDTRIP_2008_TABLESTYLE_CELLSTYLEMAP
360
83B
  0
XRECORD
  5
840
102
{ACAD_REACTORS
330
83F
102
}
330
83F
100
AcDbXrecord
280
     1
102
DISPLAYNAME
  1
Metric50
102
FLAGS
 90
        0
  0
XRECORD
  5
7DD
102
{ACAD_REACTORS
330
7DB
102
}
330
7DB
100
AcDbXrecord
280
     1
270
     1
271
     1
  0
XRECORD
  5
7DC
102
{ACAD_REACTORS
330
7DB
102
}
330
7DB
100
AcDbXrecord
280
     1
270
     1
271
     1
  0
XRECORD
  5
7E0
102
{ACAD_REACTORS
330
7DB
102
}
330
7DB
100
AcDbXrecord
280
     1
270
     1
271
     1
  0
XRECORD
  5
7DF
102
{ACAD_REACTORS
330
7DB
102
}
330
7DB
100
AcDbXrecord
280
     1
270
     1
271
     1
  0
XRECORD
  5
7E1
102
{ACAD_REACTORS
330
7DB
102
}
330
7DB
100
AcDbXrecord
280
     1
270
     1
271
     1
  0
XRECORD
  5
7DE
102
{ACAD_REACTORS
330
7DB
102
}
330
7DB
100
AcDbXrecord
280
     1
270
     1
271
     1
  0
XRECORD
  5
7D5
102
{ACAD_REACTORS
330
7D3
102
}
330
7D3
100
AcDbXrecord
280
     1
270
     1
271
     1
  0
XRECORD
  5
7D4
102
{ACAD_REACTORS
330
7D3
102
}
330
7D3
100
AcDbXrecord
280
     1
270
     1
271
     1
  0
XRECORD
  5
7D8
102
{ACAD_REACTORS
330
7D3
102
}
330
7D3
100
AcDbXrecord
280
     1
270
     1
271
     1
  0
XRECORD
  5
7D7
102
{ACAD_REACTORS
330
7D3
102
}
330
7D3
100
AcDbXrecord
280
     1
270
     1
271
     1
  0
XRECORD
  5
7D9
102
{ACAD_REACTORS
330
7D3
102
}
330
7D3
100
AcDbXrecord
280
     1
270
     1
271
     1
  0
XRECORD
  5
7D6
102
{ACAD_REACTORS
330
7D3
102
}
330
7D3
100
AcDbXrecord
280
     1
270
     1
271
     1
  0
XRECORD
  5
7E5
102
{ACAD_REACTORS
330
7E3
102
}
330
7E3
100
AcDbXrecord
280
     1
270
     1
271
     1
  0
XRECORD
  5
7E4
102
{ACAD_REACTORS
330
7E3
102
}
330
7E3
100
AcDbXrecord
280
     1
270
     1
271
     1
  0
XRECORD
  5
7E8
102
{ACAD_REACTORS
330
7E3
102
}
330
7E3
100
AcDbXrecord
280
     1
270
     1
271
     1
  0
XRECORD
  5
7E7
102
{ACAD_REACTORS
330
7E3
102
}
330
7E3
100
AcDbXrecord
280
     1
270
     1
271
     1
  0
XRECORD
  5
7E9
102
{ACAD_REACTORS
330
7E3
102
}
330
7E3
100
AcDbXrecord
280
     1
270
     1
271
     1
  0
XRECORD
  5
7E6
102
{ACAD_REACTORS
330
7E3
102
}
330
7E3
100
AcDbXrecord
280
     1
270
     1
271
     1
  0
XRECORD
  5
83E
102
{ACAD_REACTORS
330
83D
102
}
330
83D
100
AcDbXrecord
280
     1
102
DISPLAYNAME
  1
Metric50
102
FLAGS
 90
        0
  0
CELLSTYLEMAP
  5
839
102
{ACAD_REACTORS
330
838
102
}
330
838
100
AcDbCellStyleMap
 90
        3
300
CELLSTYLE
  1
TABLEFORMAT_BEGIN
 90
        5
170
     1
 91
        0
 92
    32768
 62
   257
 93
        1
300
CONTENTFORMAT
  1
CONTENTFORMAT_BEGIN
 90
        0
 91
        0
 92
        4
 93
        0
300

 40
0.0
140
1.0
 94
        1
 62
     0
340
11
144
0.18
309
CONTENTFORMAT_END
171
     0
 94
        0
309
TABLEFORMAT_END
  1
CELLSTYLE_BEGIN
 90
        1
 91
        1
300
_TITLE
309
CELLSTYLE_END
300
CELLSTYLE
  1
TABLEFORMAT_BEGIN
 90
        5
170
     1
 91
        0
 92
        0
 62
   257
 93
        1
300
CONTENTFORMAT
  1
CONTENTFORMAT_BEGIN
 90
        0
 91
        0
 92
        4
 93
        0
300

 40
0.0
140
1.0
 94
        1
 62
     0
340
11
144
0.18
309
CONTENTFORMAT_END
171
     0
 94
        0
309
TABLEFORMAT_END
  1
CELLSTYLE_BEGIN
 90
        2
 91
        1
300
_HEADER
309
CELLSTYLE_END
300
CELLSTYLE
  1
TABLEFORMAT_BEGIN
 90
        5
170
     1
 91
        0
 92
        0
 62
   257
 93
        1
300
CONTENTFORMAT
  1
CONTENTFORMAT_BEGIN
 90
        0
 91
        0
 92
        4
 93
        0
300

 40
0.0
140
1.0
 94
        1
 62
     0
340
11
144
0.18
309
CONTENTFORMAT_END
171
     0
 94
        0
309
TABLEFORMAT_END
  1
CELLSTYLE_BEGIN
 90
        3
 91
        2
300
_DATA
309
CELLSTYLE_END
  0
CELLSTYLEMAP
  5
83B
102
{ACAD_REACTORS
330
83A
102
}
330
83A
100
AcDbCellStyleMap
 90
        3
300
CELLSTYLE
  1
TABLEFORMAT_BEGIN
 90
        5
170
     1
 91
        0
 92
    32768
 62
   257
 93
        1
300
CONTENTFORMAT
  1
CONTENTFORMAT_BEGIN
 90
        0
 91
        0
 92
        4
 93
        0
300

 40
0.0
140
1.0
 94
        1
 62
     0
340
11
144
0.18
309
CONTENTFORMAT_END
171
     0
 94
        0
309
TABLEFORMAT_END
  1
CELLSTYLE_BEGIN
 90
        1
 91
        1
300
_TITLE
309
CELLSTYLE_END
300
CELLSTYLE
  1
TABLEFORMAT_BEGIN
 90
        5
170
     1
 91
        0
 92
        0
 62
   257
 93
        1
300
CONTENTFORMAT
  1
CONTENTFORMAT_BEGIN
 90
        0
 91
        0
 92
        4
 93
        0
300

 40
0.0
140
1.0
 94
        1
 62
     0
340
11
144
0.18
309
CONTENTFORMAT_END
171
     0
 94
        0
309
TABLEFORMAT_END
  1
CELLSTYLE_BEGIN
 90
        2
 91
        1
300
_HEADER
309
CELLSTYLE_END
300
CELLSTYLE
  1
TABLEFORMAT_BEGIN
 90
        5
170
     1
 91
        0
 92
        0
 62
   257
 93
        1
300
CONTENTFORMAT
  1
CONTENTFORMAT_BEGIN
 90
        0
 91
        0
 92
        4
 93
        0
300

 40
0.0
140
1.0
 94
        1
 62
     0
340
11
144
0.18
309
CONTENTFORMAT_END
171
     0
 94
        0
309
TABLEFORMAT_END
  1
CELLSTYLE_BEGIN
 90
        3
 91
        2
300
_DATA
309
CELLSTYLE_END
  0
ENDSEC
  0
EOF
